<?xml version="1.0" standalone="no"?>
<!DOCTYPE svg PUBLIC "-//W3C//DTD SVG 1.1//EN" "http://www.w3.org/Graphics/SVG/1.1/DTD/svg11.dtd" >
<svg xmlns="http://www.w3.org/2000/svg">
<metadata>
This is a custom SVG webfont generated by Font Squirrel.
Copyright   : Unicode Fonts for Ancient Scripts George Douros 2012
Designer    : George Douros
Foundry     : Free
Foundry URL : httpusersteilargrg1951d
</metadata>
<defs>
<font id="LinearBRegular" horiz-adv-x="1236" >
<font-face units-per-em="2048" ascent="1606" descent="-442" />
<missing-glyph horiz-adv-x="512" />
<glyph unicode=" "  horiz-adv-x="512" />
<glyph unicode="&#x09;" horiz-adv-x="512" />
<glyph unicode="&#xa0;" horiz-adv-x="512" />
<glyph unicode="!" horiz-adv-x="418" d="M112 97q0 40 28.5 68.5t68.5 28.5t68.5 -28.5t28.5 -68.5t-28.5 -68.5t-68.5 -28.5t-68.5 28.5t-28.5 68.5zM153 384v990h112v-990h-112z" />
<glyph unicode="&#x22;" horiz-adv-x="900" d="M112 1062l214 493l102 -45l-213 -493zM472 1062l214 493l102 -45l-213 -493z" />
<glyph unicode="#" horiz-adv-x="1266" d="M112 431v112h238l52 288h-230v112h250l66 365l110 -20l-62 -345h286l66 365l110 -20l-62 -345h218v-112h-238l-52 -288h230v-112h-250l-66 -365l-110 20l62 345h-286l-66 -365l-110 20l62 345h-218zM464 543h286l52 288h-286z" />
<glyph unicode="$" horiz-adv-x="1038" d="M112 901q0 127 116 207q96 66 235 80v186h112v-184q143 -8 324 -72l-37 -106q-161 57 -287 65v-338q170 -8 245 -51q106 -61 106 -215q0 -127 -116 -207q-96 -66 -235 -80v-186h-112v184q-143 8 -324 72l37 106q156 -56 287 -65v338q-170 8 -245 51q-106 61 -106 215z M224 901q0 -91 79 -128q50 -23 160 -29v331q-91 -12 -154 -48q-85 -49 -85 -126zM575 299q91 12 154 48q85 49 85 126q0 91 -79 128q-50 23 -160 29v-331z" />
<glyph unicode="%" horiz-adv-x="1574" d="M112 1053q0 145 74 249q83 117 222 117t223 -117q74 -104 74 -249t-74 -249q-84 -116 -223 -116t-222 116q-74 104 -74 249zM224 1053q0 -96 43 -168q51 -85 141 -85t142 85q43 72 43 168t-43 168q-52 86 -142 86t-141 -86q-43 -72 -43 -168zM497 -25l472 1459l107 -35 l-472 -1459zM869 321q0 145 74 249q83 116 222 116t223 -116q74 -104 74 -249t-74 -249q-84 -117 -223 -117t-222 117q-74 104 -74 249zM981 321q0 -96 43 -168q51 -86 141 -86t142 86q43 72 43 168t-43 168q-52 85 -142 85t-141 -85q-43 -72 -43 -168z" />
<glyph unicode="&#x26;" horiz-adv-x="1364" d="M112 852q0 227 161.5 388.5t388.5 161.5q124 0 280 -72l-46 -102q-134 62 -234 62q-166 0 -289.5 -110t-144.5 -272h1024v-112h-389v-924h-112v924h-524q32 -282 365 -380l-32 -108l-54 16q-176 55 -285 199.5t-109 328.5z" />
<glyph unicode="'" horiz-adv-x="540" d="M112 1062l214 493l102 -45l-213 -493z" />
<glyph unicode="(" horiz-adv-x="799" d="M112 687q0 288 135 527q134 236 380 392l60 -95q-222 -140 -341 -351q-122 -214 -122 -473t122 -473q119 -211 341 -351l-60 -95q-246 156 -380.5 393.5t-134.5 525.5z" />
<glyph unicode=")" horiz-adv-x="799" d="M112 -137q222 140 342.5 352.5t120.5 471.5t-122 473q-119 211 -341 351l60 95q246 -156 380 -392q135 -239 135 -527t-134.5 -525.5t-380.5 -393.5z" />
<glyph unicode="*" horiz-adv-x="1206" d="M112 1051v112h394l-197 341l97 56l197 -341l197 341l97 -56l-197 -341h394v-112h-394l197 -341l-97 -56l-197 341l-197 -341l-97 56l197 341h-394z" />
<glyph unicode="+" horiz-adv-x="1206" d="M112 631v112h435v435h112v-435h435v-112h-435v-435h-112v435h-435z" />
<glyph unicode="," horiz-adv-x="540" d="M112 -397l214 493l102 -45l-213 -493z" />
<glyph unicode="-" horiz-adv-x="768" d="M112 631v112h544v-112h-544z" />
<glyph unicode="." horiz-adv-x="418" d="M112 97q0 40 28.5 68.5t68.5 28.5t68.5 -28.5t28.5 -68.5t-28.5 -68.5t-68.5 -28.5t-68.5 28.5t-28.5 68.5z" />
<glyph unicode="/" horiz-adv-x="851" d="M112 -201l520 1807l107 -31l-520 -1807z" />
<glyph unicode="0" horiz-adv-x="1197" d="M112 500v403q0 223 122 358q126 141 347 141q213 0 344 -144q125 -139 125 -355v-403q0 -243 -110 -379q-121 -149 -359 -149q-232 0 -355 151q-114 140 -114 377zM224 500q0 -416 357 -416t357 416v403q0 169 -93 275q-97 112 -264 112q-174 0 -268 -108 q-89 -102 -89 -279v-403z" />
<glyph unicode="1" horiz-adv-x="1232" d="M405 1262v112h366l56 -56l-1 -1318h-112l1 1262h-310z" />
<glyph unicode="2" horiz-adv-x="1232" d="M187 96q213 203 624 625q138 153 138 284q0 116 -87.5 200.5t-203.5 84.5q-148 0 -232 -94q-79 -90 -79 -240v-56h-112v56q0 197 112 319q116 127 311 127q163 0 283 -117.5t120 -279.5q0 -128 -80 -249q-50 -78 -174 -201l-445 -443h670v-112h-805z" />
<glyph unicode="3" horiz-adv-x="1232" d="M174 399l111 15q42 -330 303 -330q146 0 243 71q108 79 108 220q0 139 -99 224q-91 78 -234 87l-7 111q107 20 178 91q75 77 75 182q0 98 -79 161q-73 59 -174 59q-203 0 -234 -254l-112 14q2 19 7 56q19 134 111.5 215t227.5 81q148 0 254 -91q111 -96 111 -241 q0 -198 -172 -313q259 -107 259 -382q0 -189 -140 -300q-130 -103 -323 -103q-182 0 -292 126q-98 111 -122 301z" />
<glyph unicode="4" horiz-adv-x="1232" d="M112 358l688 1049l103 -31v-993h217v-112h-217v-271h-112v271h-632zM263 383h528v806z" />
<glyph unicode="5" horiz-adv-x="1232" d="M170 461l112 2q2 -165 83 -267q89 -112 249 -112q144 0 240 102q95 99 95 244q0 142 -90 243q-93 106 -233 106q-95 0 -161 -44t-132 -89l-81 59l115 623l55 46h575v-112h-528l-82 -440q118 69 239 69q187 0 313 -138q122 -135 122 -323q0 -191 -128.5 -324.5 t-318.5 -133.5q-206 0 -328 144q-113 134 -116 345z" />
<glyph unicode="6" horiz-adv-x="1232" d="M169 431q0 112 51 217q29 58 120 189l391 559l92 -64q-154 -213 -451 -646q-91 -139 -91 -255q0 -142 94 -243q97 -104 238 -104q146 0 241.5 98t95.5 244q0 126 -85 229q-90 109 -213 109h-56v112h56q170 0 293 -142q117 -135 117 -308q0 -192 -128.5 -323t-320.5 -131 q-187 0 -315.5 135.5t-128.5 323.5z" />
<glyph unicode="7" horiz-adv-x="1232" d="M223 1262v112h750l51 -79l-604 -1313l-101 47l567 1233h-663z" />
<glyph unicode="8" horiz-adv-x="1232" d="M186 388q0 118 58 217.5t161 155.5q-157 101 -157 291q0 149 109 251q107 99 257 99q145 0 249.5 -103t104.5 -248q0 -182 -155 -287q107 -54 170 -152t63 -215q0 -180 -128 -302.5t-308 -122.5q-176 0 -300 120.5t-124 295.5zM298 388q0 -129 91 -216.5t221 -87.5 q134 0 229 90t95 223q0 128 -96.5 216t-225.5 88q-133 0 -223.5 -90.5t-90.5 -222.5zM360 1052q0 -105 73 -171.5t179 -66.5q98 0 171 69.5t73 167.5t-72 168.5t-170 70.5q-104 0 -179 -67.5t-75 -170.5z" />
<glyph unicode="9" horiz-adv-x="1232" d="M170 946q0 187 131.5 321.5t317.5 134.5q187 0 317 -139q126 -136 126 -325q0 -111 -52 -216q-25 -52 -118 -190l-373 -554l-93 63q105 153 314 461q-58 -17 -121 -17q-187 0 -319 138q-130 135 -130 323zM282 946q0 -141 98 -245t239 -104q137 0 270 134q61 107 61 207 q0 142 -94 245q-96 107 -237 107q-140 0 -238.5 -102t-98.5 -242z" />
<glyph unicode=":" horiz-adv-x="418" d="M112 97q0 40 28.5 68.5t68.5 28.5t68.5 -28.5t28.5 -68.5t-28.5 -68.5t-68.5 -28.5t-68.5 28.5t-28.5 68.5zM112 807q0 40 28.5 68.5t68.5 28.5t68.5 -28.5t28.5 -68.5t-28.5 -68.5t-68.5 -28.5t-68.5 28.5t-28.5 68.5z" />
<glyph unicode=";" horiz-adv-x="540" d="M112 -397l214 493l102 -45l-213 -493zM173 807q0 40 28.5 68.5t68.5 28.5t68.5 -28.5t28.5 -68.5t-28.5 -68.5t-68.5 -28.5t-68.5 28.5t-28.5 68.5z" />
<glyph unicode="&#x3c;" horiz-adv-x="1087" d="M112 638v98l808 458l55 -97l-722 -410l722 -410l-55 -97z" />
<glyph unicode="=" horiz-adv-x="1206" d="M112 431v112h982v-112h-982zM112 831v112h982v-112h-982z" />
<glyph unicode="&#x3e;" horiz-adv-x="1087" d="M112 277l722 410l-722 410l55 97l808 -458v-98l-808 -458z" />
<glyph unicode="?" horiz-adv-x="849" d="M112 97q0 40 28.5 68.5t68.5 28.5t68.5 -28.5t28.5 -68.5t-28.5 -68.5t-68.5 -28.5t-68.5 28.5t-28.5 68.5zM147 1271l12 112q218 -23 376 -116q202 -118 202 -309q0 -147 -97 -232q-93 -80 -242 -80q-67 0 -133 18v-280h-112v360l80 51q80 -37 165 -37q227 0 227 200 q0 140 -177 229q-131 66 -301 84z" />
<glyph unicode="@" horiz-adv-x="1816" d="M112 282l447 1058l104 -1l222 -550h819v-112h-389v-805h-112v805h-273l91 -226l-104 -42l-108 268h-409l-185 -438zM448 789h316l-154 382z" />
<glyph unicode="A" horiz-adv-x="1436" d="M112 26l554 1314h104l554 -1314l-103 -43l-199 472h-608l-199 -472zM462 567h512l-256 607z" />
<glyph unicode="B" horiz-adv-x="1076" d="M112 56v1262l59 56q793 -40 793 -371q0 -225 -325 -316q325 -91 325 -316q0 -332 -793 -371zM224 115q217 14 369 54q259 70 259 202q0 143 -256 212q-161 43 -372 48v-516zM224 743q211 5 372 48q256 69 256 212q0 132 -259 202q-152 40 -369 54v-516z" />
<glyph unicode="C" horiz-adv-x="1287" d="M112 687q0 296 209.5 505.5t505.5 209.5q160 0 348 -87l-46 -102q-166 77 -302 77q-250 0 -426.5 -177t-176.5 -426t177 -426t426 -177q135 0 302 78l46 -102q-185 -88 -348 -88q-296 0 -505.5 209.5t-209.5 505.5z" />
<glyph unicode="D" horiz-adv-x="1126" d="M112 56v1262l56 56q327 0 573 -176q273 -196 273 -511t-273 -511q-246 -176 -573 -176zM224 114q266 16 459 159q219 162 219 414t-219 414q-193 143 -459 159v-1146z" />
<glyph unicode="E" horiz-adv-x="946" d="M112 56v1262l56 56h666v-112h-610v-519h610v-112h-610v-519h610v-112h-666z" />
<glyph unicode="F" horiz-adv-x="946" d="M112 0v1318l56 56h666v-112h-610v-519h610v-112h-610v-631h-112z" />
<glyph unicode="G" horiz-adv-x="1287" d="M112 687q0 296 209.5 505.5t505.5 209.5q160 0 348 -87l-46 -102q-166 77 -302 77q-250 0 -426.5 -177t-176.5 -426q0 -250 176.5 -426.5t426.5 -176.5q113 0 218 41v406h-274v112h330l56 -56v-499l-33 -51q-141 -65 -297 -65q-296 0 -505.5 209.5t-209.5 505.5z" />
<glyph unicode="H" horiz-adv-x="1064" d="M112 0v1374h112v-631h616v631h112v-1374h-112v631h-616v-631h-112z" />
<glyph unicode="I" horiz-adv-x="496" d="M192 0v1374h112v-1374h-112z" />
<glyph unicode="J" horiz-adv-x="559" d="M-272 -216h56q471 0 471 403v1187h112v-1187q0 -515 -583 -515h-56v112z" />
<glyph unicode="K" horiz-adv-x="1010" d="M112 0v1374h112v-597l598 560l76 -82l-606 -568l606 -568l-76 -82l-598 560v-597h-112z" />
<glyph unicode="L" horiz-adv-x="1064" d="M112 56v1318h112v-1262h728v-112h-784z" />
<glyph unicode="M" horiz-adv-x="1382" d="M112 0v1318l101 33l478 -659l478 659l101 -33v-1318h-112v1145l-422 -581h-90l-422 581v-1145h-112z" />
<glyph unicode="N" horiz-adv-x="1164" d="M112 0v1318l103 31l725 -1106v1131h112v-1318l-103 -31l-725 1106v-1131h-112z" />
<glyph unicode="O" horiz-adv-x="1542" d="M112 687q0 273 193 466t466 193t466 -193t193 -466t-193 -466t-466 -193t-466 193t-193 466zM224 687q0 -226 160.5 -386.5t386.5 -160.5t386.5 160.5t160.5 386.5t-160.5 386.5t-386.5 160.5t-386.5 -160.5t-160.5 -386.5z" />
<glyph unicode="P" horiz-adv-x="1084" d="M112 0v1318l60 56q800 -56 800 -423q0 -357 -748 -418v-533h-112zM224 645q636 53 636 306t-636 306v-612z" />
<glyph unicode="Q" horiz-adv-x="1542" d="M112 687q0 273 193 466t466 193t466 -193t193 -466q0 -183 -95 -340q-92 -151 -247 -237l295 -310l-81 -77l-323 339q-102 -34 -208 -34q-273 0 -466 193t-193 466zM224 687q0 -226 160.5 -386.5t386.5 -160.5q64 0 121 13l-187 197l81 77l222 -233q140 67 224 198 q86 135 86 295q0 226 -160.5 386.5t-386.5 160.5t-386.5 -160.5t-160.5 -386.5z" />
<glyph unicode="R" horiz-adv-x="1084" d="M112 0v1318l60 56q800 -56 800 -423q0 -334 -633 -407l625 -467l-67 -89l-673 501v-489h-112zM224 645q636 50 636 306q0 253 -636 306v-612z" />
<glyph unicode="S" horiz-adv-x="1200" d="M112 78l40 104q250 -98 441 -98q143 0 248 64q124 76 124 210q0 186 -218 248q-203 47 -406 93q-218 84 -218 323q0 190 153 292q132 88 331 88q213 0 481 -153l-55 -97q-241 138 -426 138q-151 0 -250 -57q-122 -71 -122 -211q0 -181 218 -241l406 -94q218 -86 218 -329 q0 -184 -155 -291q-137 -95 -329 -95q-206 0 -481 106z" />
<glyph unicode="T" horiz-adv-x="1354" d="M112 1262v112h1130v-112h-509v-1262h-112v1262h-509z" />
<glyph unicode="U" horiz-adv-x="1390" d="M112 587v787h112v-787q0 -223 123 -360q128 -143 348 -143t348 143q123 137 123 360v787h112v-787q0 -269 -155 -439q-161 -176 -428 -176t-428 176q-155 170 -155 439z" />
<glyph unicode="V" horiz-adv-x="1508" d="M112 1342l103 45l539 -1225l539 1225l103 -45l-591 -1342h-102z" />
<glyph unicode="W" horiz-adv-x="2048" d="M112 1342l103 45l539 -1225l209 474l-311 706l103 45l269 -612l269 612l103 -45l-311 -706l209 -474l539 1225l103 -45l-591 -1342h-102l-219 497l-219 -497h-102z" />
<glyph unicode="X" horiz-adv-x="1308" d="M112 44l472 643l-472 643l90 66l452 -614l452 614l90 -66l-472 -643l472 -643l-90 -66l-452 614l-452 -614z" />
<glyph unicode="Y" horiz-adv-x="1386" d="M112 1329l89 67l492 -645l492 645l89 -67l-525 -689v-640h-112v640z" />
<glyph unicode="Z" horiz-adv-x="1064" d="M112 1262v112h784l49 -84l-680 -1178h687v-112h-784l-49 84l680 1178h-687z" />
<glyph unicode="[" horiz-adv-x="572" d="M112 -176v1726l56 56h292v-112h-236v-1614h236v-112h-292z" />
<glyph unicode="\" horiz-adv-x="851" d="M112 1575l107 31l520 -1807l-107 -31z" />
<glyph unicode="]" horiz-adv-x="572" d="M112 -120h236v1614h-236v112h292l56 -56v-1726l-56 -56h-292v112z" />
<glyph unicode="^" horiz-adv-x="1016" d="M112 981l348 566h96l348 -566l-95 -59l-301 489l-301 -489z" />
<glyph unicode="_" horiz-adv-x="1130" d="M0 -256h1130v-112h-1130v112z" />
<glyph unicode="`" horiz-adv-x="540" d="M112 1510l102 45l214 -493l-103 -45z" />
<glyph unicode="a" horiz-adv-x="1117" d="M85 29l423 909h102l422 -909l-101 -47l-152 327h-440l-153 -327zM391 421h336l-168 360z" />
<glyph unicode="b" horiz-adv-x="862" d="M85 56v858l59 56q633 -36 633 -271q0 -148 -227 -214q227 -67 227 -215q0 -235 -633 -270zM197 116q468 31 468 154q0 122 -468 156v-310zM197 544q468 34 468 155q0 73 -195 117q-119 28 -273 38v-310z" />
<glyph unicode="c" horiz-adv-x="999" d="M85 485q0 216 169 363q161 141 381 141q121 0 279 -66l-43 -103q-136 57 -236 57q-173 0 -302 -108q-136 -114 -136 -284t136 -284q129 -108 302 -108q98 0 236 58l43 -103q-156 -67 -279 -67q-220 0 -381 141q-169 147 -169 363z" />
<glyph unicode="d" horiz-adv-x="950" d="M85 55v859l56 56h90q298 0 446 -90q188 -115 188 -395t-188 -395q-148 -91 -446 -91h-90zM197 111h34q252 0 365 61q157 84 157 313q0 239 -172 320q-112 53 -384 53v-747z" />
<glyph unicode="e" horiz-adv-x="739" d="M85 56v858l56 56h513v-112h-457v-317h457v-112h-457v-317h457v-112h-513z" />
<glyph unicode="f" horiz-adv-x="739" d="M85 0v914l56 56h513v-112h-457v-317h457v-112h-457v-429h-112z" />
<glyph unicode="g" horiz-adv-x="999" d="M85 485q0 216 169 363q161 141 381 141q121 0 279 -66l-43 -103q-136 57 -236 57q-173 0 -302 -108q-136 -114 -136 -284t136 -284q129 -108 302 -108q77 0 150 24v244h-206v112h262l56 -56v-339l-34 -52q-108 -45 -228 -45q-220 0 -381 141q-169 147 -169 363z" />
<glyph unicode="h" horiz-adv-x="903" d="M85 0v970h112v-429h509v429h112v-970h-112v429h-509v-429h-112z" />
<glyph unicode="i" horiz-adv-x="402" d="M145 0v970h112v-970h-112z" />
<glyph unicode="j" horiz-adv-x="448" d="M-204 -111h56q339 0 339 256v825h112v-825q0 -368 -451 -368h-56v112z" />
<glyph unicode="k" horiz-adv-x="827" d="M85 0v970h112v-396l478 364l67 -89l-443 -338l443 -336l-67 -89l-478 362v-448h-112z" />
<glyph unicode="l" horiz-adv-x="844" d="M85 56v914h112v-858h562v-112h-618z" />
<glyph unicode="m" horiz-adv-x="1067" d="M85 0v935l100 35l348 -442l349 442l100 -35v-935h-112v774l-293 -371h-88l-292 371v-774h-112z" />
<glyph unicode="n" horiz-adv-x="874" d="M85 0v880l101 34l491 -656v712h112v-880l-101 -34l-491 656v-712h-112z" />
<glyph unicode="o" horiz-adv-x="1187" d="M85 485q0 200 156 336q149 130 352 130t353 -130q156 -136 156 -336t-156 -336q-150 -130 -353 -130t-352 130q-156 136 -156 336zM197 485q0 -153 123 -256q117 -98 273 -98t273 98q124 103 124 256t-124 256q-117 98 -273 98t-273 -98q-123 -103 -123 -256z" />
<glyph unicode="p" horiz-adv-x="862" d="M85 0v914l60 56q632 -40 632 -305q0 -258 -580 -302v-363h-112zM197 475q468 39 468 190q0 152 -468 189v-379z" />
<glyph unicode="q" horiz-adv-x="1271" d="M85 485q0 216 169 363q161 141 381 141t382 -141q169 -147 169 -363q0 -140 -76 -256q-71 -110 -193 -176l234 -223l-77 -81l-270 257q-84 -25 -169 -25q-220 0 -381 141q-169 147 -169 363zM197 485q0 -170 136 -284q129 -108 302 -108q38 0 71 5l-139 133l77 81 l186 -177q109 48 174 137q70 96 70 213q0 170 -137 284q-129 108 -302 108t-302 -108q-136 -114 -136 -284z" />
<glyph unicode="r" horiz-adv-x="867" d="M85 0v914l60 56q632 -40 632 -305q0 -229 -450 -289l452 -297l-62 -94l-520 344v-329h-112zM197 475q468 39 468 190q0 152 -468 189v-379z" />
<glyph unicode="s" horiz-adv-x="937" d="M85 58l36 106q200 -71 342 -71q95 0 170 36q95 47 95 132q0 116 -164 154q-152 33 -304 65q-164 62 -164 233q0 141 124 215q102 61 253 61q163 0 379 -112l-51 -99q-191 99 -328 99q-101 0 -171 -32q-94 -43 -94 -132q0 -112 164 -150q152 -32 304 -65q164 -63 164 -237 q0 -137 -125 -214q-106 -66 -252 -66q-158 0 -378 77z" />
<glyph unicode="t" horiz-adv-x="1046" d="M85 858v112h876v-112h-382v-858h-112v858h-382z" />
<glyph unicode="u" horiz-adv-x="1073" d="M85 417v553h112v-553q0 -151 95 -239q92 -85 244 -85t246 86.5t94 237.5v553h112v-553q0 -198 -126.5 -317t-325.5 -119t-325 119t-126 317z" />
<glyph unicode="v" horiz-adv-x="1172" d="M85 927l101 49l400 -824l400 824l101 -49l-451 -927h-100z" />
<glyph unicode="w" horiz-adv-x="1577" d="M85 927l101 49l400 -824l140 289l-236 486l101 49l197 -407l198 407l101 -49l-236 -486l140 -289l400 824l101 -49l-451 -927h-100l-152 313l-153 -313h-100z" />
<glyph unicode="x" horiz-adv-x="1091" d="M85 51l386 434l-386 434l84 74l377 -424l376 424l84 -74l-386 -434l386 -434l-84 -74l-376 424l-377 -424z" />
<glyph unicode="y" horiz-adv-x="1082" d="M85 919l86 72l370 -440l370 440l86 -72l-400 -475v-444h-112v444z" />
<glyph unicode="z" horiz-adv-x="790" d="M85 85l472 773h-450v112h550l48 -85l-472 -773h450v-112h-550z" />
<glyph unicode="{" horiz-adv-x="804" d="M112 640v94q161 106 161 220q0 52 -25.5 152t-25.5 152q0 278 453 348l17 -111q-358 -55 -358 -237q0 -52 25.5 -152t25.5 -152q0 -151 -146 -267q146 -116 146 -267q0 -52 -25.5 -152t-25.5 -152q0 -182 358 -237l-17 -111q-453 70 -453 348q0 52 25.5 152t25.5 152 q0 114 -161 220z" />
<glyph unicode="|" horiz-adv-x="336" d="M112 -232v1838h112v-1838h-112z" />
<glyph unicode="}" horiz-adv-x="804" d="M112 -121q358 55 358 237q0 52 -25.5 152t-25.5 152q0 151 146 267q-146 116 -146 267q0 52 25.5 152t25.5 152q0 182 -358 237l17 111q453 -70 453 -348q0 -52 -25.5 -152t-25.5 -152q0 -114 161 -220v-94q-161 -106 -161 -220q0 -52 25.5 -152t25.5 -152 q0 -278 -453 -348z" />
<glyph unicode="~" horiz-adv-x="1244" d="M112 541v56q0 108 78 179q75 68 184 68q104 0 218 -63q10 -5 179 -116q96 -63 153 -63q42 0 70 34q26 31 26 74v56h112v-56q0 -89 -60 -154.5t-148 -65.5q-99 0 -272.5 121t-277.5 121q-63 0 -105 -36q-45 -38 -45 -99v-56h-112z" />
<glyph unicode="&#xad;" horiz-adv-x="768" d="M112 631v112h544v-112h-544z" />
<glyph unicode="&#x2000;" horiz-adv-x="803" />
<glyph unicode="&#x2001;" horiz-adv-x="1606" />
<glyph unicode="&#x2002;" horiz-adv-x="803" />
<glyph unicode="&#x2003;" horiz-adv-x="1606" />
<glyph unicode="&#x2004;" horiz-adv-x="535" />
<glyph unicode="&#x2005;" horiz-adv-x="401" />
<glyph unicode="&#x2006;" horiz-adv-x="267" />
<glyph unicode="&#x2007;" horiz-adv-x="267" />
<glyph unicode="&#x2008;" horiz-adv-x="200" />
<glyph unicode="&#x2009;" horiz-adv-x="321" />
<glyph unicode="&#x200a;" horiz-adv-x="89" />
<glyph unicode="&#x2010;" horiz-adv-x="768" d="M112 631v112h544v-112h-544z" />
<glyph unicode="&#x2011;" horiz-adv-x="768" d="M112 631v112h544v-112h-544z" />
<glyph unicode="&#x2012;" horiz-adv-x="768" d="M112 631v112h544v-112h-544z" />
<glyph unicode="&#x2013;" horiz-adv-x="1248" d="M112 631v112h1024v-112h-1024z" />
<glyph unicode="&#x2014;" horiz-adv-x="2272" d="M112 631v112h2048v-112h-2048z" />
<glyph unicode="&#x202f;" horiz-adv-x="321" />
<glyph unicode="&#x205f;" horiz-adv-x="401" />
<glyph unicode="&#xe000;" horiz-adv-x="995" d="M0 995h995v-995h-995v995z" />
<glyph unicode="&#x10000;" horiz-adv-x="1328" d="M112 631v906h112v-396h880v396h112v-906h-112v398h-384v-1402h-112v1402h-384v-398h-112z" />
<glyph unicode="&#x10001;" horiz-adv-x="1402" d="M112 -369q35 538 43 620q40 409 119 683h-46v112h82q96 273 245 417q77 74 146 74q112 0 234 -183q90 -135 154 -308h84v-112h-46q81 -268 119 -658q7 -71 44 -645l-112 -7l-24 402q-19 268 -48 469h-811q-27 -184 -71 -871zM314 607h774q-32 183 -76 327h-619 q-46 -143 -79 -327zM433 1046h540q-84 220 -203 337q-43 42 -69 42q-50 0 -140 -133q-73 -108 -128 -246z" />
<glyph unicode="&#x10002;" horiz-adv-x="1233" d="M112 1493l102 46l308 -680l-102 -46zM368 668v112h192v757h112v-757h192v-112h-192v-1041h-112v1041h-192zM710 859l309 680l102 -46l-309 -680z" />
<glyph unicode="&#x10003;" horiz-adv-x="1304" d="M112 -373v1716h112v-1716h-112zM112 1425v112h65q249 0 349 -44q149 -64 207 -271q45 -163 70 -196q51 -70 192 -70q24 0 64 1q46 2 64 2l57 -56v-1276h-112v1219q-57 -2 -73 -2q-221 0 -296 129q-41 127 -82 255q-54 150 -214 182q-75 15 -291 15zM310 -261h647v-112 h-647v112zM875 1062l214 493l103 -45l-214 -493z" />
<glyph unicode="&#x10004;" horiz-adv-x="1005" d="M112 -373v1349q0 262 158 413q155 148 419 148h183v-112h-77v-443h98v-112h-98v-99h-112v99h-459v-1243h-112zM224 982h459v443q-213 -2 -334 -115q-123 -116 -125 -328z" />
<glyph unicode="&#x10005;" horiz-adv-x="1113" d="M112 -373v1910h112v-899h777v-112h-777v-899h-112z" />
<glyph unicode="&#x10006;" horiz-adv-x="1404" d="M112 770l164 573l-68 169l105 42l169 -427l169 377h102l171 -377l168 427l104 -41l-67 -171l163 -572l-107 -31l-124 431l-82 -208l-103 -2l-174 384l-172 -384l-103 2l-84 211l-123 -434zM301 750v112h801v-112h-71l-266 -500l315 -590l-99 -53l-279 524l-279 -524 l-99 53l314 590l-266 500h-71zM499 750l203 -381l202 381h-405z" />
<glyph unicode="&#x10007;" horiz-adv-x="1246" d="M112 742v523h112v-523h-112zM112 1425v112h1022v-112h-1022zM567 -373v955h112v-955h-112zM567 742v523h112v-523h-112zM1022 742v523h112v-523h-112z" />
<glyph unicode="&#x10008;" horiz-adv-x="992" d="M112 1113q0 87 69 151q65 47 130 95q69 56 69 122v56h112v-56q0 -100 -69 -172q-17 -17 -130 -98q-69 -50 -69 -98t69 -98q113 -82 130 -99q69 -72 69 -172v-1117h-112v1117q0 66 -69 122l-130 96q-69 64 -69 151zM518 845v112h56q59 0 101.5 42.5t42.5 101.5t-42.5 101 t-101.5 42h-56v112h56q105 0 180.5 -75t75.5 -180t-75.5 -180.5t-180.5 -75.5h-56zM541 697v112h339v-112h-339z" />
<glyph unicode="&#x10009;" horiz-adv-x="1416" d="M112 155q0 182 76 341q36 76 165 264q113 166 160 292h-208l-58 96q59 34 78 58q26 33 26 93q0 69 -40 98q-29 21 -104 32l17 111l56 -9q85 -14 134 -79t49 -153q0 -80 -33 -135h658q-25 50 -25 113q0 81 42 141q44 64 121 79l55 11l23 -109q-69 -14 -93 -32 q-36 -27 -36 -90q0 -56 26 -81q18 -17 78 -39l-39 -105h-114q-150 -338 -150 -970q0 -255 63 -417l-104 -40q-71 172 -71 457q0 606 141 970h-118q-40 -158 -209 -504q-128 -262 -128 -437q0 -273 143 -414l-79 -79l-39 39q-137 144 -137 454q0 147 66 322q31 80 141 308 q93 192 126 311h-138q-45 -139 -112 -246q-10 -18 -152 -219q-145 -206 -145 -432q0 -196 118 -489l-104 -42q-126 310 -126 531z" />
<glyph unicode="&#x1000a;" horiz-adv-x="1272" d="M112 -317v1798l56 56h936l56 -56v-1798l-56 -56h-936zM224 -20v-241h824v241h-824zM224 92h824v979h-824v-979zM224 1183h824v242h-824v-242z" />
<glyph unicode="&#x1000b;" horiz-adv-x="1645" d="M112 593l89 662l111 -15l-89 -662zM183 -335l573 917l-573 917l95 59l544 -870l544 870l95 -59l-573 -917l573 -917l-95 -59l-544 870l-544 -870zM1332 1240l111 15l90 -662l-111 -15z" />
<glyph unicode="&#x1000d;" horiz-adv-x="1254" d="M112 954v527l56 56h974v-112h-918v-292q107 116 269 116q115 0 201 -83.5t86 -198.5q0 -85 -61 -190q-57 -95 -115 -189q-61 -122 -61 -248q0 -131 40 -350q36 -176 72 -351l-110 -22q-37 181 -74 361q-40 221 -40 362q0 138 61 271q20 42 115 196q61 101 61 160 q0 69 -53 119.5t-122 50.5q-100 0 -168 -62q-48 -43 -108 -149z" />
<glyph unicode="&#x1000e;" horiz-adv-x="1806" d="M112 1188q89 47 147 47q275 0 275 -809q0 -54 -3 -147q-3 -105 -4 -146q187 502 560 827v465h-181v112h472v-112h-179v-375q201 151 449 262l46 -102q-279 -125 -495 -304v-588q214 -28 336 -256q103 -192 105 -434l-112 -2q-2 191 -76 352q-92 197 -253 227v-461h-112 v461q-162 -30 -254 -226q-76 -161 -78 -352h-112v56q6 218 118 401q128 207 326 234v487q-447 -436 -568 -1132l-111 10q1 58 4 210q3 134 3 211q0 54 3.5 161t3.5 161q0 218 -23 392q-41 305 -140 305q-32 0 -98 -36z" />
<glyph unicode="&#x1000f;" horiz-adv-x="2134" d="M112 582q0 395 280 675t675 280t675 -280t280 -675t-280 -675t-675 -280t-675 280t-280 675zM226 526q21 -315 245.5 -539.5t539.5 -245.5v785h-785zM226 638h785v785q-316 -21 -540 -245t-245 -540zM1123 -259q316 21 540 245.5t245 539.5h-785v-785zM1123 638h785 q-21 316 -245 540t-540 245v-785z" />
<glyph unicode="&#x10010;" horiz-adv-x="1434" d="M112 870l186 446l-79 196l104 42l175 -436l167 385h102l168 -385l175 436l104 -42l-78 -195l186 -447l-103 -43l-143 342l-87 -217l-103 -1l-170 389l-169 -389l-103 1l-86 215l-143 -340zM219 -362l205 1093h-91v112h765v-112h-89l206 -1093l-110 -20l-210 1113h-357 l-209 -1113zM660 -313v932h112v-932h-112z" />
<glyph unicode="&#x10011;" horiz-adv-x="1780" d="M112 1187l319 325l80 -78l-226 -230h224l357 356l79 -79l-278 -277h1001v-112h-150l-422 -1424l-53 -40l-60 -1l-55 40l-412 1386l-208 -207l-79 79l167 167h-244zM621 1092l391 -1313l389 1313h-780z" />
<glyph unicode="&#x10012;" horiz-adv-x="1312" d="M112 1108q0 203 189 325q160 104 355 104t355 -104q189 -122 189 -325q0 -153 -116 -266q-99 -96 -248 -136q-9 -410 -41 -643q-26 -126 -57 -382l-56 -54h-52l-56 54q-3 76 -24 192q-29 161 -33 190q-32 233 -41 643q-149 40 -248 136q-116 113 -116 266zM224 1108 q0 -194 250 -281q-5 261 -13 404l-3 56l112 6q16 -305 32 -841q9 -295 54 -539q45 244 54 539q16 536 32 841l112 -6l-3 -56q-8 -143 -13 -404q250 87 250 281q0 139 -139 232q-127 85 -293 85t-293 -85q-139 -93 -139 -232z" />
<glyph unicode="&#x10013;" horiz-adv-x="1410" d="M112 582q0 88 63.5 151.5t151.5 63.5h56v-112h-56q-42 0 -72.5 -30.5t-30.5 -72.5t30.5 -72.5t72.5 -30.5q57 0 86 48h96q29 -48 87 -48q42 0 113 23q2 38 2 80q0 473 -313 912l91 65q334 -458 334 -977q0 -513 -335 -977l-91 65q251 347 301 712q-56 -15 -102 -15 q-77 0 -135 47q-58 -47 -134 -47q-88 0 -151.5 63.5t-63.5 151.5zM882 640q107 36 155 36q261 0 261 -218q0 -74 -44 -145q-40 -64 -81 -128q-44 -88 -44 -206q0 -69 8 -175q13 -153 14 -174l-112 -6q-22 383 -22 355q0 135 44 235q8 19 76 122q49 76 49 122q0 106 -149 106 q-29 0 -120 -31z" />
<glyph unicode="&#x10014;" horiz-adv-x="1482" d="M112 1504l98 54l475 -849v405h112v-405l475 849l98 -54l-573 -1025v-852h-112v852zM267 123v805h112v-805h-112zM330 -93q0 175 221 241l33 -107q-142 -42 -142 -134t142 -134l-33 -107l-53 16q-75 23 -121.5 85t-46.5 140zM898 41l33 107q221 -66 221 -241t-221 -241 l-33 107q142 40 142 134q0 92 -142 134zM1103 123v805h112v-805h-112z" />
<glyph unicode="&#x10015;" horiz-adv-x="1412" d="M112 1425v112h254q156 0 264.5 -109t108.5 -265v-1536h-112v1332q-76 46 -128 46q-81 0 -164 -102v-69h-112v591h-111zM335 1062q71 55 164 55q66 0 128 -30v76q0 109 -76 185.5t-185 76.5h-31v-363zM739 1383q95 132 244 132q156 0 156 -125q0 -77 -92.5 -157 t-92.5 -110q0 -47 130 -60v73h112v-78h63q38 1 41 1v-112h-104v-94h-112v97q-242 21 -242 173q0 81 92.5 162t92.5 105q0 13 -37 13q-61 0 -92.5 -17.5t-67.5 -67.5z" />
<glyph unicode="&#x10016;" horiz-adv-x="1403" d="M112 1367v112h144l56 -56v-1629l853 1325l-182 104l-20 77l150 258l97 -57l-122 -209l184 -105l19 -79l-937 -1455l-47 -26h-51l-56 56v1684h-88z" />
<glyph unicode="&#x10017;" horiz-adv-x="1126" d="M112 735l12 112q228 -25 263 -25q159 0 227 147l-481 99l22 110l485 -100v9q0 104 -68 176q-66 69 -171 81q-31 4 -126 13l12 111q42 -4 125 -12q148 -16 244 -118.5t96 -250.5q0 -155 -105 -266t-260 -111q-47 0 -275 25zM703 -14q0 766 153 952q46 56 46 83 q0 58 -66 163t-66 166q0 26 17.5 57.5t17.5 43.5q0 19 -10 77l111 17q11 -73 11 -94q0 -32 -35 -102q0 -25 66 -135.5t66 -192.5q0 -65 -72 -155q-126 -157 -126 -902q0 -63 1 -158t1 -123v-56h-112q0 59 -1.5 179t-1.5 180z" />
<glyph unicode="&#x10018;" horiz-adv-x="1550" d="M112 1452l52 61q25 2 43 2q200 0 353.5 -116.5t207.5 -309.5q6 -21 6 -38v-2h537l56 -56v-225h-112v169h-481v-1310h-112v1310h-5q-210 0 -369 154q-157 151 -176 361zM233 1402q34 -148 153 -249q121 -104 271 -104h5v2q0 17 -31 86q-53 117 -160.5 187.5t-237.5 77.5z M1030 1153q0 85 44 128q29 29 122 69q84 36 104.5 67t26.5 124l111 -8l-3 -56q-6 -109 -83 -169q-27 -21 -140 -72q-74 -33 -74 -77q0 3 8 -66l-112 -12q-4 36 -4 72z" />
<glyph unicode="&#x10019;" horiz-adv-x="1096" d="M112 1219v112h872v-112h-872zM112 1425v112h872v-112h-872zM178 1078l94 60l276 -430l277 430l94 -60l-315 -489v-962h-112v962z" />
<glyph unicode="&#x1001a;" horiz-adv-x="1648" d="M112 1382l35 106l212 -70q137 -60 137 -147q0 -60 -72.5 -148.5t-72.5 -139.5q0 -111 191 -111q66 0 181 8l8 -112q-112 -8 -189 -8q-121 0 -204 50q-99 60 -99 173q0 83 72.5 178t72.5 110q-18 28 -126 65zM616 1425v112h417v-112h-153v-1798h-112v1798h-152zM919 768 l8 112q152 -11 163 -11q128 0 179 51q31 31 31 63q0 49 -73 137.5t-73 147.5q0 89 136 150q10 4 212 70l34 -107l-146 -46q-106 -37 -123 -65q0 -18 72.5 -111.5t72.5 -175.5q0 -113 -107 -175q-88 -51 -209 -51q-22 0 -177 11z" />
<glyph unicode="&#x1001b;" horiz-adv-x="1509" d="M112 1497l94 62l224 -343l198 341l97 -57l-226 -389l255 -388l255 388l-227 389l97 57l199 -342l226 344l93 -62l-256 -390l191 -328l-97 -57l-163 281l-262 -399v-977h-112v977l-262 399l-162 -281l-97 57l191 328z" />
<glyph unicode="&#x1001c;" horiz-adv-x="1294" d="M112 1535l112 4l41 -1085l89 1l-19 1081l112 2l19 -1083h68l19 1083l112 -2l-19 -1080h90l39 1083l112 -4q-12 -284 -25 -568q-14 -337 -14 -569l-56 -56h-583l-56 56q0 229 -15 569zM188 -347l260 614h103l262 -615l-103 -43l-211 493l-208 -492zM427 -225q0 70 70 70 q72 0 72 -70q0 -71 -72 -71q-70 0 -70 71zM910 246q88 16 106 24q54 25 54 86q0 25 -59.5 75t-59.5 104q0 66 49.5 121t114.5 55h56v-112h-56q-18 0 -34.5 -22.5t-17.5 -41.5q40 -38 81 -76q38 -41 38 -103q0 -109 -76 -161q-51 -35 -175 -59z" />
<glyph unicode="&#x1001d;" horiz-adv-x="1172" d="M112 -373v1910h112v-1910h-112zM247 391v56h112v-56q0 -94 66.5 -161t160.5 -67q93 0 160 67.5t67 160.5v56h112v-56q0 -140 -100 -240t-239 -100q-140 0 -239.5 99.5t-99.5 240.5zM247 717v56q0 142 98.5 241t240.5 99q140 0 239.5 -99.5t99.5 -240.5v-56h-112v56 q0 94 -66.5 161t-160.5 67q-95 0 -161 -66.5t-66 -161.5v-56h-112zM948 -373v1910h112v-1910h-112z" />
<glyph unicode="&#x1001e;" horiz-adv-x="1002" d="M112 270v112h333v431h-333v112h333v612h112v-612h333v-112h-333v-431h333v-112h-333v-643h-112v643h-333z" />
<glyph unicode="&#x1001f;" horiz-adv-x="969" d="M112 -317v1798l95 41l650 -618l-77 -81l-556 528v-1538l556 528l77 -81l-650 -618zM237 229l352 353l-352 353l79 79l392 -392v-80l-392 -392z" />
<glyph unicode="&#x10020;" horiz-adv-x="1402" d="M112 -369q38 581 53 717q53 470 167 758h-164v112h214q75 150 173 245q77 74 146 74q112 0 234 -183q42 -63 79 -136h218v-112h-166q119 -290 170 -735q15 -125 54 -740l-112 -7q-37 581 -53 724q-55 480 -176 758h-192v-1367h246v-112h-605v112h247v1367h-186 q-126 -282 -180 -738q-16 -135 -55 -744zM515 1218h378q-57 100 -123 165q-43 42 -69 42q-50 0 -140 -133q-24 -36 -46 -74z" />
<glyph unicode="&#x10021;" horiz-adv-x="1215" d="M112 533v1004h112v-258h879v-112h-879v-357h676l56 -56v-1127h-112v1071h-620v-165h-112z" />
<glyph unicode="&#x10022;" horiz-adv-x="1337" d="M112 -261h95q-35 327 -35 434q0 222 83 371q82 145 269 266q87 50 258 152t258 189q73 73 73 107q0 82 -67 127q-59 40 -144 40q-66 0 -152 -25q-74 -23 -148 -47l-33 107q248 77 333 77q133 0 224 -72q99 -77 99 -207q0 -140 -299 -335l190 -1184h102v-112h-303v112h87 l-179 1119q-54 -32 -157 -92l84 -1027h93v-112h-303v112h98l-79 961q-31 -20 -60 -44q-121 -98 -170 -213q-45 -107 -45 -270q0 -99 36 -434h95v-112h-303v112z" />
<glyph unicode="&#x10023;" horiz-adv-x="1524" d="M112 1161q0 102 71.5 173.5t173.5 71.5h56v-112h-56q-56 0 -94.5 -38.5t-38.5 -94.5q0 -55 38.5 -93t93.5 -38h56v-112h-56q-101 0 -172.5 71t-71.5 172zM459 1155q0 141 76 254q86 128 220 128q132 0 217 -110q79 -101 79 -236q0 -196 -105 -396q-19 -33 -56 -98 q-45 -80 -45 -145v-925h-112v925q0 88 103 283.5t103 355.5q0 88 -47 157q-53 77 -137 77t-138 -97q-46 -82 -46 -173q0 -87 49 -183q25 -49 103 -161l-92 -64q-88 126 -119 191q-53 109 -53 217zM1112 918v112h56q55 0 93.5 38t38.5 93t-38.5 94t-93.5 39h-56v112h56 q101 0 172.5 -72t71.5 -173t-71.5 -172t-172.5 -71h-56z" />
<glyph unicode="&#x10024;" horiz-adv-x="2134" d="M112 582q0 395 280 675t675 280t675 -280t280 -675t-280 -675t-675 -280t-675 280t-280 675zM224 582q0 -349 247 -596t596 -247t596 247t247 596t-247 596t-596 247t-596 -247t-247 -596zM588 454l79 79l351 -351l-79 -79zM774 1154l79 79l350 -350l-79 -79zM1287 641 l79 79l352 -352l-79 -79z" />
<glyph unicode="&#x10025;" horiz-adv-x="1771" d="M112 1481l56 56h1491v-112h-403q77 -25 123 -103q43 -72 43 -157q0 -106 -63 -184q-67 -83 -170 -83v-1271h-112v1527h-10q-117 0 -199 -70q-66 -65 -132 -131q-86 -70 -213 -70q-222 0 -328 199q-83 156 -83 399zM225 1425q16 -430 298 -430q97 0 170 70q67 65 133 131 q97 70 251 70v159h-852zM1189 1010h3q53 0 88 53q30 46 30 102q0 59 -31 105q-34 53 -90 53v-313z" />
<glyph unicode="&#x10026;" horiz-adv-x="1600" d="M112 996v112h412l55 -44q16 -71 83 -109q59 -33 137 -33q79 0 138 33q68 39 85 110l55 43h411v-112h-370q-37 -91 -130 -141q-84 -45 -189 -45q-104 0 -188 45q-92 51 -128 141h-371zM461 1157v380h112v-380h-112zM548 667v112h504v-112h-197v-1040h-112v1040h-195z M1027 1157v380h112v-380h-112z" />
<glyph unicode="&#x10028;" horiz-adv-x="1241" d="M112 -317v1854h112v-1798h905v-112h-961zM380 163q0 116 82.5 199t198.5 83t198.5 -83t82.5 -199t-82.5 -198.5t-198.5 -82.5t-198.5 82.5t-82.5 198.5zM492 163q0 -70 49.5 -119.5t119.5 -49.5t119.5 49.5t49.5 119.5t-49.5 120t-119.5 50t-119.5 -50t-49.5 -120z" />
<glyph unicode="&#x10029;" horiz-adv-x="1274" d="M112 1481v56h112v-56q0 -148 105.5 -267t251.5 -141v464h112v-464q145 23 251 142.5t106 265.5v56h112v-56q0 -192 -139 -345t-330 -176v-1333h-112v1333q-192 23 -330.5 175t-138.5 346z" />
<glyph unicode="&#x1002a;" horiz-adv-x="1076" d="M112 447v112h331q-199 270 -199 466q0 136 78 224q81 92 215 92q187 0 263 -164q1 12 1 21q0 227 -228 227q-64 0 -189 -85l-63 93q153 104 252 104q156 0 248 -91.5t92 -247.5q0 -104 -85 -236q-21 -166 -196 -403h332v-112h-310l196 -805l-109 -27l-202 832h-2 l-199 -831l-108 26l192 805h-310zM356 1025q0 -164 181 -406q183 245 183 406q0 89 -46 145q-50 59 -137 59t-136 -60q-45 -55 -45 -144z" />
<glyph unicode="&#x1002b;" horiz-adv-x="1092" d="M112 526v112h377v899h112v-899h379v-112h-379v-899h-112v899h-377z" />
<glyph unicode="&#x1002c;" horiz-adv-x="1700" d="M112 1062q0 245 255 498l79 -79q-222 -217 -222 -419q0 -66 33 -119q38 -62 100 -62q81 0 239 101q131 83 215 164h78q84 -81 215 -164q159 -102 240 -102q62 0 100 62q32 53 32 119q0 201 -220 420l79 79q253 -252 253 -499q0 -114 -63 -200q-70 -93 -181 -93 q-160 0 -438 217v-1246h154v-112h-421v112h155v1246q-277 -216 -437 -216q-111 0 -181 93q-64 85 -64 200z" />
<glyph unicode="&#x1002d;" horiz-adv-x="1532" d="M112 591l156 507l107 -33l-156 -507zM123 1495l91 64l551 -781l553 781l91 -65l-588 -831v-1036h-112v1036zM1157 1065l107 33l156 -507l-107 -33z" />
<glyph unicode="&#x1002e;" horiz-adv-x="1014" d="M112 -373v1910h112v-598h678v-112h-678v-1200h-112zM319 1027v510h112v-510h-112zM527 1027v510h112v-510h-112zM734 1027v510h112v-510h-112z" />
<glyph unicode="&#x1002f;" horiz-adv-x="1546" d="M112 -346l294 1585l111 -20l-295 -1585zM395 210v112h322v320h-222v112h222v783h112v-783h221v-112h-221v-320h322v-112h-322v-583h-112v583h-322zM1029 1219l110 20l295 -1585l-111 -20z" />
<glyph unicode="&#x10030;" horiz-adv-x="1141" d="M112 626v811h112v-182h530v-112h-530v-223h530v-112h-530v-182h-112zM715 1530l111 13q13 -109 111 -258q92 -140 92 -233q0 -50 -48 -174q-57 -146 -66 -186q-24 -111 -42 -292q-8 -84 -37 -775l-112 4q14 343 29 685q35 460 133 641q31 57 31 97q0 63 -89 196 q-94 143 -107 227q-2 18 -6 55z" />
<glyph unicode="&#x10031;" horiz-adv-x="1314" d="M112 -317v1798l56 56h978l56 -56v-715h-112v35h-866v-1062h978v-112h-1034zM224 913h866v512h-866v-512z" />
<glyph unicode="&#x10032;" horiz-adv-x="1243" d="M112 -358q117 488 117 940t-117 940l109 27q21 -86 36 -159h731q16 84 34 159l109 -27q-55 -224 -76 -479l-112 9q10 118 26 226h-691q63 -354 63 -696q0 -338 -63 -694h691q-13 86 -25 220l111 10q25 -272 76 -476l-108 -27q-20 78 -35 161h-731q-15 -72 -36 -161z" />
<glyph unicode="&#x10033;" horiz-adv-x="1489" d="M112 249v112h465v-112h-465zM112 526v112h465v-112h-465zM112 804v112h465v-112h-465zM689 -373v1910h112v-1910h-112zM913 249v112h464v-112h-464zM913 526v112h464v-112h-464zM913 804v112h464v-112h-464z" />
<glyph unicode="&#x10034;" horiz-adv-x="1402" d="M112 -369q47 724 88 969q104 621 355 863q77 74 146 74q112 0 234 -183q202 -303 281 -832q30 -196 74 -891l-112 -7q-45 700 -81 929q-96 602 -327 830q-43 42 -69 42q-50 0 -140 -133q-191 -282 -267 -805q-27 -186 -70 -863zM645 -267v1435h112v-1435h-112z" />
<glyph unicode="&#x10035;" horiz-adv-x="1266" d="M112 1425v112h1042v-112h-465v-353h445v-112h-445v-1333h-112v1333h-445v112h445v353h-465z" />
<glyph unicode="&#x10036;" horiz-adv-x="1683" d="M112 835q0 156 116.5 267t273.5 111q75 0 142 -42q39 -24 116 -96l-76 -82q-115 108 -182 108q-111 0 -193 -77q-85 -79 -85 -189q0 -100 112 -243q89 -108 178 -217q127 -184 271 -528v1263q0 125 70.5 204.5t194.5 97.5q81 12 153 56l136 88l55 -97q-77 -49 -154 -99 q-74 -44 -178 -60q-165 -25 -165 -190v-1241q121 289 271 506q89 109 179 217q112 143 112 243q0 110 -83.5 188t-194.5 78q-49 0 -100 -36q-19 -14 -81 -72l-76 82q78 72 115 96q67 42 142 42q157 0 273.5 -111t116.5 -267q0 -134 -113 -281q-99 -121 -198 -241 q-117 -170 -238 -454q-20 -51 -63 -151q-22 -48 -42 -63q-23 -18 -76 -18q-85 0 -131 97q-29 84 -59 168q-132 315 -316 530q-117 136 -150 188q-73 114 -73 225z" />
<glyph unicode="&#x10037;" horiz-adv-x="1448" d="M112 -373v1910h112v-20h1000v20h112v-1910h-112v1248h-1000v-1248h-112zM224 987h1000v418h-1000v-418zM667 -373v1167h112v-1167h-112z" />
<glyph unicode="&#x10038;" horiz-adv-x="1174" d="M112 1220q102 158 194 228q118 89 282 89q176 0 305 -84q149 -97 149 -264q0 -185 -207 -427q-191 -201 -383 -403q-207 -229 -207 -384q0 -117 119 -182q97 -54 224 -54q132 0 227 78q66 53 154 189l93 -62q-105 -160 -193 -228q-118 -89 -281 -89q-177 0 -306 84 q-149 97 -149 264q0 185 207 426q191 201 383 403q207 229 207 385q0 117 -118 182q-97 54 -224 54q-132 0 -228 -77q-66 -54 -154 -190z" />
<glyph unicode="&#x10039;" horiz-adv-x="1499" d="M112 -369l4 56q34 479 163 756q121 261 463 619q181 190 522 498l75 -83q-240 -217 -378 -353q57 -444 142 -752q102 -373 284 -712l-99 -53q-187 347 -291 726h-266v-594h318v-112h-747v112h317v594h-265q-98 -245 -130 -710zM406 445h562q-61 251 -107 579 q-331 -340 -455 -579z" />
<glyph unicode="&#x1003a;" horiz-adv-x="1206" d="M112 -354l438 1416h107l437 -1416l-107 -33l-384 1242l-384 -1242zM340 -261h539v-112h-539v112zM354 1146v112h499v-112h-499zM838 867v112h56q34 0 59.5 25t25.5 59t-25.5 58.5t-59.5 24.5v112q34 0 59.5 24t25.5 58t-25.5 59.5t-59.5 25.5h-56v112h56q81 0 139 -58 t58 -139t-59 -138q59 -57 59 -139q0 -81 -58 -138.5t-139 -57.5h-56z" />
<glyph unicode="&#x1003c;" horiz-adv-x="1076" d="M112 642v112h331q-199 270 -199 467q0 136 78 224q81 92 215 92t216 -92q79 -88 79 -224q0 -196 -200 -467h332v-112h-371v-1015h-112v1015h-369zM356 1221q0 -165 181 -407q183 245 183 407q0 89 -46 145q-50 59 -137 59t-136 -60q-45 -55 -45 -144z" />
<glyph unicode="&#x1003d;" horiz-adv-x="844" d="M112 -317v1854h112v-186h508v-112h-508v-167h508v-112h-508v-166h508v-112h-508v-186q118 -25 194.5 -117t76.5 -215q0 -262 -271 -326v-99h485v-112h-541zM224 -46q159 49 159 210t-159 211v-421z" />
<glyph unicode="&#x1003f;" horiz-adv-x="1844" d="M112 607l767 910h86l767 -910l-86 -72l-668 793v-836h338v-112h-338v-753h-112v753h-339v112h339v836l-668 -793z" />
<glyph unicode="&#x10040;" horiz-adv-x="1359" d="M112 1328h112l1 -238q1 -141 122 -141t121 141v238h112v-238q0 -253 -233 -253t-234 253zM271 1425v112h817v-112h-817zM624 -373v1701h112v-1701h-112zM779 1327l112 2l2 -238q2 -142 121 -142q121 0 121 141v238h112v-238q0 -253 -233 -253q-231 0 -233 252z" />
<glyph unicode="&#x10041;" horiz-adv-x="1218" d="M112 1501l97 57q142 -242 142 -359q0 -56 -45.5 -129.5t-45.5 -114.5q0 -99 116 -99h578v-112h-309l-252 -1128l-109 25l246 1103h-154q-101 0 -163 54q-65 57 -65 157q0 68 45.5 144t45.5 100q0 86 -127 302zM431 1410l97 57q101 -173 101 -287q0 -63 -32 -140 q-7 -19 -63 -131l-100 50q83 166 83 221q0 82 -86 230zM612 1413l99 52q97 -186 97 -285q0 -82 -94 -271l-100 50q82 164 82 221q0 72 -84 233zM787 584l110 24l209 -968l-109 -24zM789 955q87 154 87 236t-85 212l94 62l30 -47q24 -37 48 -110q25 -76 25 -117 q0 -113 -101 -291z" />
<glyph unicode="&#x10042;" horiz-adv-x="1634" d="M112 1350q0 75 41 128q45 59 118 59q188 0 210 -288h295q100 0 177 -76q42 -41 106 -146q50 -83 78 -90q41 -11 112 -11q37 0 110 4.5t108 4.5l55 -65l-53 -319l-55 -47h-893v112h846l34 205q-196 -7 -188 -7q-105 0 -169 57q-35 30 -112.5 148t-155.5 118h-293v-1510 h-112v1512q-259 18 -259 211zM224 1350q0 -88 144 -99q-17 174 -97 174q-47 0 -47 -75zM642 913q0 37 27 63.5t64 26.5t63.5 -26.5t26.5 -63.5t-26.5 -64t-63.5 -27t-64 27t-27 64z" />
<glyph unicode="&#x10043;" horiz-adv-x="1713" d="M112 695q64 6 92 6h44q203 0 203 -160q0 -68 -81 -141t-81 -101q0 -42 84 -42q42 0 121 14l19 -111q-92 -16 -135 -16q-83 0 -137 35q-64 41 -64 120q0 75 81 151t81 91q0 48 -91 48h-44q-19 0 -82 -6zM263 1077q0 212 197 344q173 116 396 116q224 0 397 -115 q197 -132 197 -345q0 -267 -320 -407v-987l-56 -56h-426l-56 56v981q-143 57 -230 157q-99 114 -99 256zM375 1077q0 -181 217 -288v351h112v-776h314v776h112v-347q208 106 208 284q0 164 -166 263q-141 85 -316 85q-174 0 -315 -85q-166 -100 -166 -263zM704 252v-513h314 v513h-314zM1201 160l19 111q79 -14 121 -14q83 0 83 42q0 28 -81 101t-81 141q0 160 203 160h44q29 0 92 -6l-10 -112q-64 6 -73 6h-53q-91 0 -91 -48q0 -15 81 -91t81 -151q0 -154 -207 -154q-43 0 -128 15z" />
<glyph unicode="&#x10044;" horiz-adv-x="2269" d="M112 -354l438 1416h107l437 -1416l-107 -33l-384 1242l-384 -1242zM340 -261h539v-112h-539v112zM354 1146v112h499v-112h-499zM838 867v112h56q34 0 59.5 25t25.5 59t-25.5 58.5t-59.5 24.5v112q34 0 59.5 24t25.5 58t-25.5 59.5t-59.5 25.5h-56v112h56q81 0 139 -58 t58 -139t-59 -138q59 -57 59 -139q0 -81 -58 -138.5t-139 -57.5h-56zM1176 -354l438 1416h107l436 -1416l-107 -33l-383 1242l-384 -1242zM1179 1063q0 82 59 139q-59 56 -59 138q0 81 58.5 139t139.5 58h56v-112h-56q-34 0 -60 -25.5t-26 -59.5t25.5 -58t60.5 -24v-112 q-34 0 -60 -24.5t-26 -58.5t26 -59t60 -25h56v-112h-56q-81 0 -139.5 57.5t-58.5 138.5zM1391 -261h540v-112h-540v112zM1417 1146v112h498v-112h-498z" />
<glyph unicode="&#x10045;" horiz-adv-x="1698" d="M112 984v553h112v-497h250l45 -23q159 -219 169 -233q94 -133 157 -240q110 183 240 340l86 -72q-141 -169 -262 -381q145 -268 327 -726l-104 -42l-21 52q-149 370 -269 594q-33 -64 -322 -700l-102 46q88 197 176 393q102 226 184 377q-128 221 -333 503h-277z M319 1135v402h112v-402h-112zM526 1135v402h112v-402h-112zM1060 1135v402h112v-402h-112zM1145 928v112h329v497h112v-553l-56 -56h-385zM1267 1135v402h112v-402h-112z" />
<glyph unicode="&#x10046;" horiz-adv-x="1291" d="M112 1031l111 19l-91 475l110 22l91 -478l153 27l20 -111l-151 -26l119 -627h115v866h-134v112h134v227h112v-227h134v-112h-134v-866h115l120 627l-152 26l19 111l153 -27l91 477l110 -20l-90 -476l112 -19l-20 -111l-113 20l-116 -608h56v-112h-285v-593h-112v593h-283 v112h54l-116 608l-113 -20z" />
<glyph unicode="&#x10047;" horiz-adv-x="1323" d="M112 1418l59 95q206 -127 253 -234q16 -37 35 -125q13 -60 45 -179q46 -140 157 -140q86 0 134 88q31 57 58 186q29 136 45 171q51 109 254 233l59 -95l-48 -30q-144 -90 -178 -194l-60 -252q-70 -219 -264 -219q-139 0 -206 92q-44 60 -73 205q-34 163 -59 214 q-39 79 -211 184zM162 -373v1575h112v-1575h-112zM333 -261h658v-112h-658v112zM1048 -373v1575h112v-1575h-112z" />
<glyph unicode="&#x10048;" horiz-adv-x="1391" d="M112 1141v112h137l207 306l93 -63l-165 -243h365l208 306l93 -63l-165 -243h394v-112h-411l146 -303l4 -38l-295 -1185l-109 27l291 1166l-161 333h-376l149 -312l4 -38l-294 -1176l-109 27l290 1157l-164 342h-132z" />
<glyph unicode="&#x10049;" horiz-adv-x="1345" d="M112 1425v112h376v-112h-376zM157 -1v112h375v-112h-375zM157 224v112h375v-112h-375zM157 448v112h375v-112h-375zM234 1097q0 122 89 271l97 -57q-74 -120 -74 -214q0 -135 95.5 -231t230.5 -96t231.5 96t96.5 231q0 87 -76 213l96 58q92 -154 92 -271 q0 -166 -110.5 -290t-273.5 -145v-1035h-112v1035q-162 21 -272 145t-110 290zM436 945q61 111 188 331l98 -3q39 -74 188 -327l-97 -57q-48 81 -143 244q-45 -81 -137 -243zM812 -1v112h376v-112h-376zM812 224v112h376v-112h-376zM812 448v112h376v-112h-376zM855 1425 v112h378v-112h-378z" />
<glyph unicode="&#x1004a;" horiz-adv-x="1374" d="M112 402q0 159 101.5 259.5t260.5 100.5h56v-112h-56q-113 0 -181.5 -67.5t-68.5 -180.5q0 -155 137 -327q82 -103 269 -267v1128h-196v112h196v489h112v-489h197v-112h-197v-1128q188 165 270 267q138 172 138 327q0 112 -69 180t-181 68h-56v112h56q158 0 260 -101 t102 -259q0 -149 -91 -298q-71 -115 -211 -249q-118 -106 -236 -213h-76q-298 272 -350 333q-186 217 -186 427z" />
<glyph unicode="&#x1004b;" horiz-adv-x="1556" d="M112 1469l55 68h1223l54 -68q-187 -864 -251 -1790l-105 -24l-309 534q-104 -178 -311 -534l-104 24q-41 562 -91.5 921t-160.5 869zM236 1425q99 -467 147 -808q45 -318 79 -750q90 153 267 461l97 1q82 -136 268 -460q60 779 226 1556h-1084zM432 897v375h112v-375 h-112zM578 401v377h112v-377h-112zM722 897v375h112v-375h-112zM868 401v377h112v-377h-112zM1012 897v375h112v-375h-112z" />
<glyph unicode="&#x1004c;" horiz-adv-x="957" d="M112 -253v1670h112v-1670h-112zM211 -300q307 200 315 206q207 157 207 274q0 82 -141 200q-107 79 -214 157v90q107 78 214 157q141 118 141 200q0 116 -209 275q-33 25 -313 205l60 94q307 -197 356 -237q218 -176 218 -337q0 -115 -121 -233q-49 -48 -217 -169 q168 -121 217 -169q121 -118 121 -233q0 -161 -218 -337q-49 -40 -356 -237z" />
<glyph unicode="&#x1004d;" horiz-adv-x="1808" d="M112 355l744 1156h94l746 -1156l-94 -60l-699 1083l-697 -1083zM302 382l96 59l353 -574l102 205h100l104 -206l352 575l95 -58l-387 -635l45 -90l-100 -50l-158 314l-158 -314l-100 50l46 91zM557 584v112h693v-112h-693zM577 307v112h652v-112h-652zM680 860v112h446 v-112h-446z" />
<glyph unicode="&#x10050;" horiz-adv-x="1701" d="M112 1390q0 56 27 159l108 -28q-23 -88 -23 -131q0 -123 103 -277l-93 -63q-122 181 -122 340zM174 806q0 89 50 219l104 -40q-42 -108 -42 -179q0 -169 175 -309l-70 -88l-44 35q-173 138 -173 362zM365 1512l109 23l98 -466l-109 -23zM449 -261h132v615q-47 7 -105 23 l29 109q93 -26 144 -26q140 0 238.5 102.5t98.5 243.5q0 64 -46 178l104 42q54 -135 54 -220q0 -137 -74.5 -251.5t-195.5 -168.5q93 -88 132 -308l-110 -20q-19 111 -42 164q-39 90 -115 114v-597h130v-112h-374v112zM699 1069l99 466l109 -23l-99 -466zM944 1113 q105 154 105 277q0 37 -25 131l108 28q29 -110 29 -159q0 -157 -124 -340zM1130 615l19 111q73 -13 100 -13q112 0 269 128l71 -87q-187 -153 -340 -153q-39 0 -119 14z" />
<glyph unicode="&#x10051;" horiz-adv-x="1103" d="M112 -365q47 367 75 501q79 379 205 518h-265v112h331q-97 130 -138 211q-62 124 -62 244q0 136 78 224q82 92 216 92t216 -92q79 -89 79 -224q0 -120 -62 -244q-41 -81 -138 -211h331v-112h-273q123 -140 206 -521q34 -158 80 -498l-111 -15q-140 1002 -328 1002 q-200 0 -329 -1002zM312 -261h482v-112h-482v112zM370 1221q0 -156 182 -395q89 117 125 185q58 110 58 210q0 89 -46 144q-50 60 -137 60t-136 -60q-46 -55 -46 -144z" />
<glyph unicode="&#x10052;" horiz-adv-x="1652" d="M112 1206l373 310q25 21 55 21q34 0 65 -30q24 -29 48 -57q159 -186 234 -188h56v-112q-126 1 -232 82q-67 51 -173 182l-354 -294zM1054 -373v1704h112v-1704h-112zM1218 1471l109 25q33 -140 73 -218q44 -86 140 -183l-80 -78q-106 106 -158 207q-48 92 -84 247z" />
<glyph unicode="&#x10053;" horiz-adv-x="1049" d="M112 582q0 167 116.5 287.5t283.5 125.5q102 312 311 565l87 -71q-190 -230 -284 -507q135 -34 223 -145.5t88 -254.5q0 -171 -120.5 -292t-291.5 -121t-292 121t-121 292zM224 582q0 -124 88.5 -212.5t212.5 -88.5t212 88.5t88 212.5q0 105 -65 187t-165 106 q-36 -165 -36 -293q0 -86 22 -236l-111 -17q-23 157 -23 253q0 130 35 298q-110 -16 -184 -100.5t-74 -197.5zM531 96l105 41q103 -260 269 -462l-87 -71q-177 212 -287 492z" />
<glyph unicode="&#x10054;" horiz-adv-x="1728" d="M112 1016l151 329l101 -46l-150 -329zM247 -369q30 463 131 723q112 290 409 610q-217 227 -533 513l75 83q226 -205 265 -241q159 -148 274 -269q215 224 531 510l75 -83q-199 -180 -260 -237q-157 -147 -273 -269q337 -374 438 -697q74 -237 102 -643l-112 -8 q-31 449 -121 685q-103 271 -386 577q-314 -352 -405 -645q-72 -230 -98 -617zM407 927q0 102 63 242l102 -46q-53 -117 -53 -196q0 -71 41 -179l-104 -39q-49 128 -49 218zM665 511l36 106q107 -37 163 -37q58 0 166 38l37 -105q-127 -45 -203 -45q-74 0 -199 43zM692 1358 q108 29 172 29q62 0 178 -33l-30 -108q-102 29 -148 29q-50 0 -144 -25zM1155 1125l102 47q66 -142 66 -245q0 -87 -49 -215l-105 40q42 109 42 175q0 77 -56 198zM1364 1299l102 46l150 -329l-101 -46z" />
<glyph unicode="&#x10055;" horiz-adv-x="1567" d="M112 -7l23 109l351 -74l-23 -109l-122 25l-58 -271l-109 23l58 271zM135 1216q82 154 122 205q91 116 194 116q62 0 167 -60t165 -60q61 0 166.5 60t167.5 60q102 0 193 -116q40 -52 122 -205l-98 -53q-138 262 -217 262q-33 0 -144 -60t-190 -60t-189 60t-143 60 q-80 0 -218 -262zM185 339l23 110l120 -26l169 794l110 -23l-169 -795l122 -26l-24 -110zM265 123l30 144l110 -22l-30 -144zM604 17h359v-112h-124v-278h-112v278h-123v112zM604 258v112h123v813h112v-813h124v-112h-359zM727 65v146h112v-146h-112zM959 1194l110 23 l168 -794l122 25l23 -109l-352 -74l-23 109l121 26zM1081 28l350 76l24 -110l-121 -26l58 -272l-110 -23l-58 271l-120 -26zM1161 245l110 22l30 -144l-110 -22z" />
<glyph unicode="&#x10056;" horiz-adv-x="1172" d="M112 -373v1910h112v-1910h-112zM279 43v112h616v-112h-616zM279 1011v112h616v-112h-616zM346 526v112h481v-112h-481zM948 -373v1910h112v-1910h-112z" />
<glyph unicode="&#x10057;" horiz-adv-x="1597" d="M112 -373v1790l56 56q169 1 242 -146q32 -65 78 -294q70 166 94 206q70 122 160 149v37h-132v112h376v-112h-132v-37q90 -27 161 -149q23 -40 95 -208q47 233 77 295q73 148 242 147l56 -56v-1790h-112v1726q-81 -25 -115 -153q-22 -111 -43 -222q-27 -113 -93 -113 q-67 0 -138 169q-81 196 -130 231v-1526h132v-112h-376v112h132v1526q-49 -35 -130 -231q-70 -169 -137 -169q-65 0 -92 113q-22 111 -43 222q-35 128 -116 153v-1726h-112zM309 402v112h389v-112h-389zM899 402v112h389v-112h-389z" />
<glyph unicode="&#x10058;" horiz-adv-x="1662" d="M112 -317v1798l56 56h337v-112h-281v-1686h281v-112h-337zM281 331l436 247l-436 248l55 97l495 -280l495 280l55 -97l-436 -247l436 -248l-55 -97l-495 280l-495 -280zM314 50v112h1034v-112h-1034zM314 991v112h1034v-112h-1034zM1158 -261h280v1686h-280v112h336 l56 -56v-1798l-56 -56h-336v112z" />
<glyph unicode="&#x10059;" horiz-adv-x="2093" d="M112 -19l306 305l79 -79l-306 -305zM239 -146l306 305l79 -79l-306 -305zM366 -272l305 305l79 -79l-305 -305zM379 807q0 197 122.5 319.5t319.5 122.5q324 0 608.5 -284.5t284.5 -608.5q0 -197 -122.5 -319t-319.5 -122q-324 0 -608.5 284t-284.5 608zM491 807 q0 -278 251.5 -529t529.5 -251q151 0 240.5 89t89.5 240q0 278 -251.5 529.5t-529.5 251.5q-151 0 -240.5 -89.5t-89.5 -240.5zM1342 1211l306 305l79 -79l-306 -305zM1469 1085l306 305l79 -79l-306 -305zM1595 958l308 305l78 -79l-307 -305z" />
<glyph unicode="&#x1005a;" horiz-adv-x="1299" d="M112 1443l32 108q599 -174 599 -448q0 -90 -74 -202l-136 -182q-74 -100 -74 -157q0 -74 73 -240.5t73 -269.5q0 -160 -125 -278q-87 -82 -268 -165l-47 101q149 68 218 127q110 93 110 215q0 87 -73 252.5t-73 257.5q0 103 142 284t142 257q0 188 -519 340zM807 990 q0 64 120.5 181t120.5 148q0 32 -45 32q-32 0 -56 -30q-6 -9 -33 -58l-98 54q41 76 71 103q46 43 116 43q63 0 110 -41t47 -103q0 -79 -120.5 -196t-120.5 -134q0 -42 48 -42q51 0 72 24q5 5 38 68l98 -53q-46 -86 -78 -113q-45 -38 -130 -38q-67 0 -113.5 44t-46.5 111z M819 -113q0 64 120.5 181t120.5 148q0 32 -46 32q-32 0 -55 -30q-6 -8 -33 -58l-98 54q41 76 71 103q45 43 115 43q63 0 110.5 -41t47.5 -103q0 -79 -120.5 -196t-120.5 -134q0 -42 47 -42q51 0 73 24q5 5 38 68l98 -53q-46 -86 -78 -113q-45 -38 -131 -38q-67 0 -113 44 t-46 111z" />
<glyph unicode="&#x1005b;" horiz-adv-x="1676" d="M112 825l295 299l79 -78l-294 -299zM112 1482l80 78l294 -299l-79 -78zM160 424v112l1068 1q124 0 205 -73q85 -76 85 -198v-639h-112v639q0 75 -52 119q-49 40 -126 40zM469 1098v112h740v-112h-740zM562 155v112h521q67 0 107 -53q37 -48 37 -117v-470h-112v470 q0 58 -32 58h-521zM650 611v395h112v-395h-112zM914 611v395h112v-395h-112zM1191 1046l80 78l293 -299l-80 -78zM1191 1261l293 299l80 -78l-293 -299z" />
<glyph unicode="&#x1005c;" horiz-adv-x="2263" d="M112 -317v1854h112v-928l476 -510h1207l164 169l80 -78l-530 -546l-40 -17h-1413zM224 -261h396v282l-396 424v-706zM732 -13v-248h825l241 248h-1066z" />
<glyph unicode="&#x1005d;" horiz-adv-x="1980" d="M112 -261h256v1177l56 56h491q13 177 19 453h-308v112h728v-112h-308q6 -276 19 -453h491l56 -56v-1177h256v-112h-1756v112zM480 -213q344 261 425 1073h-425v-1073zM598 -261h784q-292 263 -392 896q-100 -633 -392 -896zM1075 860q81 -812 425 -1073v1073h-425z" />
<glyph unicode="&#x10080;" horiz-adv-x="1199" d="M112 931v112h975v-112h-317q240 -257 240 -1304h-112v56q0 830 -167 1114q-60 102 -132 102t-132 -102q-167 -284 -167 -1114v-56h-112v56q0 991 240 1248h-316zM543 1109v428h112v-428h-112z" />
<glyph unicode="&#x10081;" horiz-adv-x="1538" d="M112 769v112h1314v-112h-521q127 -138 213 -548q29 -142 82 -530l-55 -64h-753l-55 63q60 447 77 532q80 409 211 547h-513zM254 626q0 38 27 64t65 26t65 -26t27 -64t-27 -65.5t-65 -27.5t-65 27.5t-27 65.5zM455 -261h626q-41 311 -98 552q-102 435 -215 435 q-51 0 -118 -114q-113 -192 -195 -873zM502 1225q0 129 92 220.5t221 91.5h56v-112h-56q-83 0 -142 -58.5t-59 -141.5t59 -141.5t142 -58.5h56v-112h-56q-129 0 -221 91.5t-92 220.5zM1099 626q0 38 27 64t65 26t65 -26t27 -64t-27 -65.5t-65 -27.5t-65 27.5t-27 65.5z" />
<glyph unicode="&#x10082;" horiz-adv-x="2420" d="M112 1431l112 2q3 -152 104 -295l61 259l109 -25l-79 -336q102 -91 221 -116l18 -103q-97 -58 -315 -60q-1 -136 184 -136q17 0 44 3q34 43 81 90l79 -79q-180 -178 -248 -441q-49 -187 -54 -508l-112 2q9 541 176 822q-116 8 -185 69q-77 66 -77 178q0 38 13 78l59 39 q33 -3 70 -3q43 0 85 4q-340 200 -346 556zM517 -333l27 109q151 -37 279 -37q59 0 197 24l19 -111q-144 -25 -216 -25q-143 0 -306 40zM705 950l39 105l129 -48l16 36l-114 90l70 88l101 -81q33 45 77 82l-159 153l77 81l173 -165q14 10 43 33l11 216l112 -6l-12 -241 l-20 -40q-70 -53 -140 -107q-79 -64 -113 -133q-41 -84 -81 -167q-34 -52 -147 -122l-59 95q51 32 60 39q30 21 51 50zM946 711q0 69 70 112q60 36 134 36q76 0 134 -37q67 -43 67 -114q0 -75 -66 -116q-56 -34 -135 -34q-76 0 -135 38q-69 43 -69 115zM999 337q0 47 46 73 q37 21 88 21q80 0 147 -46q31 -21 94 -86q47 -48 75 -52q42 40 137 106q89 44 303 69q205 24 302 79q-15 24 -30 24q-18 0 -53 -3t-53 -3q-120 0 -239 103q-107 96 -214 193q-144 103 -325 103q-59 0 -239 -14l-8 112q181 14 247 14q194 0 355 -103q53 -35 227 -193 q114 -103 196 -103q18 0 53 3t53 3q56 0 101.5 -46.5t45.5 -102.5q0 -84 -152 -128q-58 -17 -307 -56q-191 -29 -243 -70l-70 -62q-44 -37 -82 -37q-74 0 -164.5 92t-156.5 92q-2 0 -11 -1q131 -316 131 -529q0 -38 -19 -113l-109 26q16 57 16 87q0 137 -58 286l-54 128 q-30 79 -30 134zM1058 711q0 -18 38 -31q30 -10 54 -10q89 0 89 38q0 18 -37 30q-28 9 -52 9q-62 0 -92 -36z" />
<glyph unicode="&#x10083;" horiz-adv-x="2527" d="M112 379q0 25 13 100l110 -18q-11 -61 -11 -82q0 -12 7 -26q32 -11 95 -35q1 4 24 91q17 63 17 85q0 34 -40 55q-65 33 -73 41q-40 35 -40 105q0 28 32 121l106 -36q-26 -74 -26 -85t3 -19q14 -13 45 -28q35 -16 47 -25q19 40 38 81q27 57 27 78q0 32 -35 53 q-57 34 -66 43q-35 35 -35 101q0 36 42 130l103 -45q-33 -73 -33 -85q0 -25 41 -50q55 -32 63 -41q104 146 239 220q-68 30 -131 108q-68 85 -68 153q0 70 34 116q37 52 105 52q89 0 177.5 -95.5t88.5 -185.5q0 -40 -23 -80q62 14 132 19q-86 96 -86 174q0 70 33 116 q37 52 105 52q89 0 178.5 -95.5t89.5 -185.5q0 -42 -24 -82q141 -38 290 -163q159 -134 381 -352q284 -280 315 -367q13 -37 13 -79q0 -106 -61 -195q-68 -99 -169 -99q-56 0 -230.5 187t-223.5 187q-14 0 -41.5 -8t-41.5 -8q-141 0 -340 132l62 94q171 -114 278 -114 q14 0 41.5 8t41.5 8q88 0 240 -152l214 -222q51 2 87 69q31 56 31 113q0 78 -290 365q-204 200 -379 347q-106 89 -194 123q-94 38 -226 38q-208 0 -344 -71q-143 -74 -249 -247q-146 -239 -200 -552q-39 -226 -39 -589h-112v56q0 178 11 317q6 49 16 147v23q0 41 -48 59 q-81 31 -89 37q-48 34 -48 113zM560 -328l19 111q260 -44 477 -44q88 0 177 6q1 55 1 76q0 488 -186 849l99 51l26 -49q173 -326 173 -851q0 -77 -2 -130l-51 -54q-114 -10 -237 -10q-230 0 -496 45zM718 1369q0 -33 56 -98t88 -65q12 0 24.5 18.5t12.5 31.5 q0 44 -55.5 106.5t-98.5 62.5q-27 0 -27 -56zM1146 1369q0 -33 56 -98t88 -65q12 0 25 18.5t13 31.5q0 44 -56.5 106.5t-99.5 62.5q-26 0 -26 -56zM1253 609v312h112v-312h-112z" />
<glyph unicode="&#x10084;" horiz-adv-x="2365" d="M112 -92q0 359 133 683q23 50 47 99q36 78 36 91q0 32 -36 53q-57 34 -65 42q-36 36 -36 102q0 35 42 129l103 -43q-33 -73 -33 -86q0 -25 41 -50q60 -38 61 -39q103 145 238 219q-68 31 -131 109q-68 83 -68 152q0 70 34 116q37 52 105 52q90 0 178.5 -95.5t88.5 -185.5 q0 -40 -23 -80q63 14 131 19q-85 95 -85 174q0 70 33 116q37 52 105 52q90 0 178.5 -95.5t88.5 -185.5q0 -42 -24 -82q142 -38 291 -163q156 -131 382 -353q289 -284 314 -366q12 -39 12 -79q0 -106 -60 -195q-68 -99 -169 -99q-60 0 -232.5 187t-222.5 187q-14 0 -40.5 -8 t-40.5 -8q-142 0 -341 132l62 94q171 -114 279 -114q14 0 40.5 8t40.5 8q85 0 240 -153q109 -111 217 -221q51 2 86 69q29 56 29 113q0 62 -123 196q-37 40 -178 176q-120 116 -368 340q-106 89 -194 123q-94 38 -226 38q-209 0 -344 -71q-143 -74 -249 -247 q-234 -381 -234 -867q0 -161 251 -162q-4 57 -30 160q-26 109 -32 160q-8 73 -8 180q0 229 67 494l109 -27q-64 -253 -64 -467q0 -161 41 -338q30 -130 30 -189q0 -39 -34 -63q-30 -22 -70 -22q-288 0 -355 164q-18 44 -18 117zM556 1369q0 -33 56.5 -98t88.5 -65 q12 0 24.5 18.5t12.5 31.5q0 44 -56 106.5t-99 62.5q-27 0 -27 -56zM885 668l99 54q115 -208 161 -431q39 -190 39 -458q0 -99 -4 -208l-112 4q4 86 4 131q0 294 -30 465q-40 231 -157 443zM985 1369q0 -33 55.5 -98t87.5 -65q12 0 25 18.5t13 31.5q0 44 -56 106.5t-99 62.5 q-26 0 -26 -56zM1092 609v312h112v-312h-112z" />
<glyph unicode="&#x10085;" horiz-adv-x="2513" d="M112 280l31 108l174 -49q15 67 37 137l-195 55l31 108l201 -57q2 5 80 173q6 13 6 26q0 32 -35 53q-57 34 -66 42q-35 35 -35 102q0 35 41 129l103 -43q-32 -72 -32 -86q0 -26 40 -49q57 -35 61 -39q104 145 237 218q-68 30 -131 108q-68 85 -68 153q0 70 34 116 q37 52 105 52q89 0 177.5 -95.5t88.5 -185.5q0 -42 -22 -80q62 14 132 19q-86 96 -86 174q0 71 32 116q37 52 105 52q89 0 178.5 -95.5t89.5 -185.5q0 -43 -23 -82q142 -38 291 -163q155 -130 380 -352q286 -283 314 -367q13 -39 13 -79q0 -106 -60 -195q-68 -99 -169 -99 q-57 0 -231.5 187t-223.5 187q-14 0 -41.5 -8t-41.5 -8q-140 0 -339 132l61 94q171 -114 278 -114q14 0 41.5 8t41.5 8q88 0 240 -152q108 -111 215 -222q51 3 87 69q30 56 30 113q0 78 -290 365q-206 203 -378 347q-106 89 -194 124q-95 37 -227 37q-209 0 -344 -71 q-141 -73 -249 -247q-61 -99 -108 -217l192 -54l-30 -108l-199 56q-23 -74 -37 -137l218 -62l-30 -108l-209 59q-36 -223 -36 -570h-112v56q0 316 39 545zM704 1369q0 -33 56 -98t88 -65q12 0 24.5 18.5t12.5 31.5q0 44 -55.5 106.5t-98.5 62.5q-27 0 -27 -56zM1033 668 l98 54q115 -209 161 -431q40 -191 40 -458q0 -102 -4 -208l-112 4q4 98 4 204q0 253 -36 430q-43 209 -151 405zM1133 1369q0 -33 55.5 -98t87.5 -65q12 0 25 18.5t13 31.5q0 44 -56.5 106.5t-99.5 62.5q-25 0 -25 -56zM1239 609v312h112v-312h-112z" />
<glyph unicode="&#x10086;" horiz-adv-x="1789" d="M112 1166q0 169 82 266q87 105 253 105h1169v-112h-323q53 -104 141 -186q95 -89 194 -114l-27 -109q-19 4 -55 14q-167 47 -328 303q-343 -490 -717 -490q-135 0 -257 93q-132 99 -132 230zM224 1166q0 -83 100 -150q90 -61 177 -61q326 0 644 470h-698 q-223 0 -223 -259zM769 -365q49 344 141 746q124 538 227 682q21 29 48 46q14 9 38 9t38 -9q27 -17 48 -46q103 -144 227 -682q92 -402 141 -746l-111 -15q-43 306 -136 714q-118 520 -207 658q-89 -138 -207 -658q-93 -408 -136 -714z" />
<glyph unicode="&#x10087;" horiz-adv-x="1740" d="M112 1166q0 169 82 266q87 105 253 105h1169v-112h-323q53 -104 141 -186q95 -89 194 -114l-27 -109q-19 4 -55 14q-167 47 -328 303q-343 -490 -717 -490q-135 0 -257 93q-132 99 -132 230zM224 1166q0 -83 100 -150q90 -61 177 -61q326 0 644 470h-698 q-223 0 -223 -259zM833 4v112h334v271h-334v112h334v619h112v-619h332v-112h-332v-271h332v-112h-332v-377h-112v377h-334z" />
<glyph unicode="&#x10088;" horiz-adv-x="1968" d="M112 1161l396 361h76l338 -309h203v-112h-225l-38 15l-316 289l-358 -327zM776 -365q49 344 141 746q124 538 227 682q21 29 48 46q14 9 38 9t38 -9q27 -17 48 -46q103 -144 227 -682q92 -402 141 -746l-111 -15q-43 306 -136 714q-118 520 -207 658q-89 -138 -207 -658 q-93 -408 -136 -714zM1066 1477l75 83l513 -466h202v-112h-224l-38 15z" />
<glyph unicode="&#x10089;" horiz-adv-x="1968" d="M112 1161l396 361h76l338 -309h203v-112h-225l-38 15l-316 289l-358 -327zM840 4v112h334v271h-334v112h334v619h112v-619h332v-112h-332v-271h332v-112h-332v-377h-112v377h-334zM1066 1477l75 83l513 -466h202v-112h-224l-38 15z" />
<glyph unicode="&#x1008a;" horiz-adv-x="1634" d="M112 1350q0 75 41 128q45 59 118 59q102 0 158 -98q43 -75 52 -190h295q100 0 177 -76q42 -42 106 -146q50 -83 78 -90q42 -11 112 -11q37 0 109.5 4.5t108.5 4.5l55 -65l-53 -319l-55 -47h-893v112h846l34 205q-192 -7 -188 -7q-106 0 -169 57q-32 28 -111.5 147 t-156.5 119h-293v-638q154 -295 219 -865l-111 -13q-52 465 -164 733q-112 -269 -165 -733l-111 13q64 568 220 865v640q-259 18 -259 211zM224 1350q0 -88 144 -99q-17 174 -97 174q-47 0 -47 -75zM640 912q0 94 92 94q93 0 93 -94q0 -93 -93 -93q-92 0 -92 93z" />
<glyph unicode="&#x1008b;" horiz-adv-x="1642" d="M112 54h265v211h-265v112h265v762q-257 18 -257 211q0 75 41 128q44 59 117 59q188 0 209 -288h297q100 0 177 -76q42 -41 105 -146q50 -83 78 -90q41 -11 112 -11q37 0 110.5 4.5t108.5 4.5l55 -65l-53 -319l-55 -47h-895v112h848l34 205q-197 -7 -189 -7 q-105 0 -169 57q-34 30 -111 148t-156 118h-295v-760h268v-112h-268v-211h268v-112h-268v-315h-112v315h-265v112zM232 1350q0 -88 142 -99q-16 174 -96 174q-46 0 -46 -75zM646 912q0 94 92 94q93 0 93 -94q0 -93 -93 -93q-92 0 -92 93z" />
<glyph unicode="&#x1008c;" horiz-adv-x="1768" d="M112 1274q0 98 44 173q53 90 144 90q167 0 303 -199q80 -117 169 -348h585v427l56 56h243v-112h-187v-854h114v-112h-340v112h114v371h-542q251 -667 251 -1251h-112q0 559 -218 1153q-221 -604 -221 -1153h-112v56q0 526 250 1195h-42q-169 0 -327 111 q-172 122 -172 285zM224 1274q0 -114 140 -203q126 -81 247 -81h42q-76 183 -132 269q-107 166 -221 166q-38 0 -59 -59q-17 -46 -17 -92z" />
<glyph unicode="&#x1008d;" horiz-adv-x="1768" d="M112 1274q0 98 44 173q53 90 144 90q225 0 357 -165q117 -148 131 -382h569v427l56 56h243v-112h-187v-854h114v-112h-340v112h114v371h-567v-406h322v-112h-322v-257h322v-112h-322v-364h-112v364h-321v112h321v257h-321v112h321v406h-67q-170 0 -327 111 q-172 122 -172 285zM224 1274q0 -114 140 -203q126 -81 247 -81h65q-12 186 -99 302q-100 133 -277 133q-38 0 -59 -60q-17 -45 -17 -91z" />
<glyph unicode="&#x1008e;" horiz-adv-x="1882" d="M112 656v112h223q4 292 138 438q33 36 108 95q86 68 112 124h-275v112h1046v-112h-275q21 -50 78 -97q51 -38 101 -77q169 -139 178 -483h224v-112h-774v-1029h-112v1029h-772zM448 768h436v657h-71q-40 -120 -138 -195q-124 -94 -149 -132q-72 -106 -78 -330zM996 768 h439q-2 164 -36 247q-41 99 -164 195q-128 100 -166 215h-73v-657z" />
<glyph unicode="&#x1008f;" horiz-adv-x="1211" d="M112 1481v56h112v-56q0 -117 47 -231q59 -144 158 -144h558v139q0 180 -118 180h-525v112h525q230 0 230 -292v-1606h-112v1355h-558q-154 0 -244 174q-73 143 -73 313z" />
<glyph unicode="&#x10090;" horiz-adv-x="1362" d="M112 1134q0 193 77 369l82 24q151 -102 232 -244q38 108 126 231l87 5q104 -111 142 -229q70 115 220 235l80 -10q92 -123 92 -339q0 -190 -135 -380q-124 -159 -249 -319q-135 -196 -135 -404v-446h-112v446q0 236 140 447q144 186 288 373q91 127 91 283q0 128 -40 220 q-142 -122 -207 -298l-108 11q-25 178 -103 280q-82 -130 -104 -280l-107 -14q-83 200 -203 297q-42 -126 -42 -258q0 -215 138 -444l-96 -58q-154 253 -154 502z" />
<glyph unicode="&#x10091;" horiz-adv-x="1641" d="M112 507q0 152 109 237q99 76 256 76h64v155l56 56h81l308 480h94l311 -480h82l56 -56v-1292l-56 -56h-876l-56 56v1027q-143 0 -212 -31q-105 -47 -105 -172q0 -62 121 -143.5t121 -162.5q0 -101 -85.5 -179t-187.5 -78h-56v112h56q55 0 108 45.5t53 99.5q0 21 -63 63 q-83 57 -116 92q-63 68 -63 151zM653 -261h764v601h-764v-601zM653 452h764v467h-764v-467zM811 1031h447l-225 347z" />
<glyph unicode="&#x10092;" horiz-adv-x="1085" d="M112 -373v1190l25 47q218 141 310 278q104 156 114 398l112 -6q-10 -241 -100 -402.5t-289 -303.5q258 6 386 82q164 97 192 333l111 -15q-37 -303 -251 -419q-162 -88 -498 -93v-1089h-112z" />
<glyph unicode="&#x10093;" horiz-adv-x="1295" d="M112 162q0 207 138 359.5t341 173.5v331h-310l-56 56v399l56 56h422v-112h-366v-287h310l56 -56v-387q203 -21 341.5 -173.5t138.5 -359.5q0 -222 -157 -378.5t-379 -156.5t-378.5 156.5t-156.5 378.5zM228 106q19 -142 120 -243t243 -120v363h-363zM228 218h363v364 q-142 -19 -243 -120.5t-120 -243.5zM703 106v-363q142 19 243.5 120t120.5 243h-364zM703 218h364q-19 142 -120.5 243.5t-243.5 120.5v-364z" />
<glyph unicode="&#x10094;" horiz-adv-x="940" d="M112 592v112h359v23q-134 53 -134 178q0 106 113 233q-64 57 -164 148l2 84l203 167h71l205 -167l3 -84q-52 -44 -165 -148q114 -122 114 -233q0 -127 -136 -180v-21h193v-112h-193v-387q105 -20 174 -101q71 -84 71 -192q0 -124 -88.5 -212.5t-212.5 -88.5t-211.5 88.5 t-87.5 212.5q0 108 69 190.5t174 102.5v39q-182 44 -182 182v166h-177zM349 -32h122v121q-93 -29 -122 -121zM349 -144q30 -95 122 -125v125h-122zM401 426q0 -44 70 -67v233h-70v-166zM409 1324l117 -109q43 38 121 109l-120 97zM449 905q0 -56 78 -81q80 24 80 81 q0 59 -80 152q-78 -92 -78 -152zM583 -32h124q-30 92 -124 121v-121zM583 -144v-125q94 30 124 125h-124z" />
<glyph unicode="&#x10095;" horiz-adv-x="1758" d="M112 1167l81 77l39 -41q86 -90 243 -197q185 -127 271 -127l106 61q106 61 199 61q16 0 56 -15v214q-28 4 -56 4q-77 0 -168.5 -61t-136.5 -61q-125 0 -340 150q-169 119 -294 251l81 77q105 -110 260 -223q195 -143 293 -143l106 61q106 61 199 61q61 0 126 -16l42 -54 v-118q116 83 226 83q103 0 155 -76q46 -66 46 -173q0 -203 -427 -399v-936h-112v1239q-49 23 -56 23q-77 0 -168.5 -61t-136.5 -61q-126 0 -340 150q-169 118 -294 250zM1219 688q315 159 315 274q0 137 -89 137q-99 0 -226 -115v-296z" />
<glyph unicode="&#x10096;" horiz-adv-x="1554" d="M112 -373v1854l56 56h1274v-112h-1218v-447h1162l56 -56v-1295h-112v1239h-497v-1239h-112v1239h-497v-1239h-112zM291 224l77 81l297 -281l-77 -81zM291 631l77 81l297 -280l-77 -81zM889 104l77 81l298 -281l-77 -81zM889 512l77 81l298 -281l-77 -81z" />
<glyph unicode="&#x10097;" horiz-adv-x="1415" d="M112 855q0 113 110 204q39 32 62 32h275v446h112v-102q24 2 43 2q215 0 215 -199q0 -70 -69 -147h272q23 0 62 -32q109 -90 109 -204q0 -170 -228 -311q152 -158 152 -279q0 -129 -113 -291q-91 -132 -216 -235h57v-112h-495v112h59q-124 103 -217 235q-114 163 -114 291 q0 121 152 279q-228 141 -228 311zM224 855q0 -115 201 -231q73 63 155 119q-69 122 -154 189v-123h-112v170h-12q-78 -57 -78 -124zM300 265q0 -106 129 -272q115 -146 223 -217v880q-352 -241 -352 -391zM542 979q58 -56 110 -140v140h-110zM671 1091h19q127 91 127 147 q0 55 -25 73q-20 14 -78 14q-21 0 -43 -2v-232zM764 -220q120 83 224 213q127 158 127 272q0 85 -138 219q-92 89 -213 172v-876zM764 839q52 84 110 140h-110v-140zM837 743q79 -54 154 -119q200 115 200 231q0 67 -77 124h-12v-170h-112v123q-83 -65 -153 -189z" />
<glyph unicode="&#x10098;" horiz-adv-x="1025" d="M112 235v439h112v-439h-112zM204 769v194h112v-174l205 -256l188 254v176h112v-194l-11 -33l-176 -239h111v-112h-465v112h126l-190 237zM368 934v112h83v113h-78v112h78v266h112v-266h93v-112h-93v-113h85v-112h-85v-182h-112v182h-83zM451 329h112v-702h-112v702z M801 235v439h112v-439h-112z" />
<glyph unicode="&#x10099;" horiz-adv-x="1844" d="M112 743v794h112v-302q81 5 156 5q270 0 430 -86q140 86 281 86q175 0 175 -146q0 -53 -43.5 -129.5t-43.5 -105.5q0 -43 74 -57l2 114l112 -2l-2 -121h9q46 0 87 3l-23 134l111 19l23 -138q67 13 124 32l36 -106q-73 -25 -140 -38l16 -93l-111 -19l-16 98 q-52 -4 -117 -4l-2 -106l-112 2l2 113q-185 30 -185 169q0 55 43.5 132t43.5 103q0 34 -63 34q-91 0 -181 -46q119 -117 119 -319q0 -252 -268 -749h105v-112h-106q52 -79 154 -238l-96 -58q-11 18 -153 238q-78 -131 -155 -239l-91 65q67 94 149 232h-182v112h176 q-127 231 -127 412q0 394 455 486q-91 216 -510 216q-62 0 -156 -6v-379h-112zM547 426q0 -150 114 -360q256 473 256 697q0 17 -2 40q-368 -71 -368 -377z" />
<glyph unicode="&#x1009a;" horiz-adv-x="1172" d="M112 -373v1910h112v-414h724v414h112v-1431h-112v420h-724v-899h-112zM224 638h724v373h-724v-373z" />
<glyph unicode="&#x1009b;" horiz-adv-x="1520" d="M112 1449l41 105q34 -13 52 -21q123 -55 200 -175q16 -25 114 -228q69 -142 152 -215q31 -26 91 -79q29 27 88 79q95 83 161 230q87 190 114 228q83 119 242 181l41 -105q-18 -6 -52 -20q-109 -50 -224 -275q-132 -257 -211 -327q-28 -23 -82 -70q144 -163 323 -535 q181 -376 213 -586l-111 -17q-30 193 -202 552q-170 354 -302 506q-133 -152 -302 -506q-171 -357 -201 -552l-111 17q32 211 212.5 587.5t324.5 533.5q-48 42 -96 85q-54 49 -86 94q-44 62 -105 196q-57 127 -101 183q-70 90 -183 134zM158 683q0 190 208 313l57 -96 q-153 -90 -153 -217t153 -217l-57 -96l-48 29q-160 97 -160 284zM450 1425v112h621v-112h-144v-269h-112v269h-108v-269h-112v269h-145zM1098 466q78 45 111 86q42 52 42 131q0 78 -43 131q-33 41 -110 86l57 96q208 -123 208 -313t-208 -313z" />
<glyph unicode="&#x1009c;" horiz-adv-x="1898" d="M112 1286q0 110 77 181q74 70 185 70q162 0 324 -159t162 -320q0 -17 -3 -38q104 33 216 33q295 0 504 -209t209 -504t-209 -504t-504 -209t-504.5 209t-209.5 504q0 276 188 481q-150 42 -290 186q-145 149 -145 279zM224 1286q0 -103 147 -233.5t252 -130.5q55 0 90 40 t35 96q0 115 -129.5 241t-244.5 126q-64 0 -107 -38t-43 -101zM471 340q0 -249 176.5 -425t425.5 -176t425 176t176 425t-176 425t-425 176t-425.5 -176t-176.5 -425zM630 121v112h356v-112h-356zM630 448v112h356v-112h-356zM1163 121v112h356v-112h-356zM1163 448v112h356 v-112h-356z" />
<glyph unicode="&#x1009d;" horiz-adv-x="1667" d="M112 1487l85 73l362 -423l14 -36v-606h-112v585l-138 161l-93 -97v-854h-112v876l15 39l116 122zM340 84q0 199 324 244l15 -111q-227 -31 -227 -133q0 -104 227 -135l-15 -111l-56 8q-109 16 -182 71q-86 65 -86 167zM523 1525l110 22q39 -201 144 -253v243h112v-243 q105 52 144 253l110 -22l-11 -55q-19 -97 -83 -180q-70 -90 -160 -114v-1229h-112v1228q-102 24 -172 136q-58 91 -82 214zM539 -261h589v-112h-589v112zM988 -51q227 29 227 135q0 102 -227 133l15 111q324 -45 324 -244q0 -201 -324 -246zM1094 495v606l13 36l363 423 l85 -73l-137 -160l116 -122l15 -39v-876h-112v854l-93 97l-138 -161v-585h-112z" />
<glyph unicode="&#x1009e;" horiz-adv-x="1554" d="M112 -373v1910h56q158 0 238 -131q60 -122 121 -244q84 -131 250 -131t250 131q61 122 121 244q80 131 238 131h56v-1910h-112v264h-497v-264h-112v264h-497v-264h-112zM224 3h1106v1413q-74 -26 -134 -159q-76 -172 -123 -224q-103 -114 -296 -114q-192 0 -295 113 q-48 53 -124 224q-60 134 -134 160v-1413zM527 246q0 68 100 138q5 4 184 109q100 58 100 96q0 25 -43 51q-39 24 -66 24q-65 0 -105 -24q-32 -19 -79 -75l-85 73q62 75 117 105q61 33 152 33q76 0 146 -55q75 -58 75 -132q0 -77 -91 -149q-45 -36 -177 -108 q-102 -57 -116 -87q8 -49 100 -49q88 0 126 16q42 19 98 88l87 -71q-71 -87 -134 -116t-177 -29q-79 0 -141 41q-71 46 -71 121z" />
<glyph unicode="&#x1009f;" horiz-adv-x="1872" d="M112 1172v56q0 139 125 229q113 80 258 80q128 0 234 -64q117 -71 143 -189h204v-112h-254l-56 56q0 91 -94 148q-80 49 -177 49q-96 0 -177 -49q-94 -57 -94 -148v-56h-112zM424 -317v1514h112v-1458h556v-112h-612zM631 169q0 36 11 141l111 -11q-10 -96 -10 -130 q0 -90 24 -154q34 -91 107 -91q32 0 118 34l41 -105q-104 -41 -159 -41q-128 0 -192 121q-51 96 -51 236zM1162 1407l69 89q205 -155 357 -360h172v-112h-200l-46 23q-142 199 -352 360zM1188 -373v1570h112v-1570h-112z" />
<glyph unicode="&#x100a0;" horiz-adv-x="2588" d="M112 293q0 327 266 563q257 228 588 228q180 0 376 -68q156 104 271 104q218 0 221 -263q95 34 160 34q181 0 181 -218q0 -53 -26 -129q102 31 157 31q76 0 122 -40q48 -43 48 -118q0 -212 -312 -315q2 -28 2 -52v-311h130v-112h-738v112h131v253q0 324 -224 523 q-215 191 -543 191q-353 0 -511 -469q-15 -44 -44 -168q-25 -108 -107 -108t-121 129q-27 90 -27 203zM224 293q0 -115 33 -201q59 298 209 491q183 235 456 235q374 0 622 -224q257 -231 257 -602v-253h253v311q0 244 -177 466q-162 203 -420 331q-253 125 -491 125 q-285 0 -509 -195q-233 -203 -233 -484zM1470 965q133 -61 251 -148l1 32q5 159 -109 159q-67 0 -143 -43zM1824 733q115 -103 193 -220q46 106 46 160q0 106 -69 106q-58 0 -170 -46zM2081 402q46 -94 67 -187q216 74 216 202q0 46 -58 46q-74 0 -225 -61z" />
<glyph unicode="&#x100a1;" horiz-adv-x="2129" d="M112 1456l77 74q180 -99 425 -169q260 -75 450 -75t450 75q246 71 426 169l77 -74l-226 -392q-129 -241 -129 -424q0 -141 121 -273l-3 -77q-226 -215 -677 -647h-78l-675 647l-3 77q119 129 119 273q0 184 -129 424q-112 196 -225 392zM296 1355q149 -251 190 -340 q92 -201 92 -375q0 -170 -112 -306l598 -573l600 573q-114 137 -114 306q0 175 92 375q41 87 191 340q-428 -181 -769 -181q-340 0 -768 181zM655 195v112h92v357l56 56h23l383 413l82 -76l-137 -148l151 -189h22l56 -56v-357h91v-112h-819zM859 307h149v301h-149v-301z M979 720h183l-85 106zM1120 307h151v301h-151v-301z" />
<glyph unicode="&#x100a2;" horiz-adv-x="1326" d="M112 166l1 79q164 158 164 341q0 162 -163 332v78q318 336 508 525l79 -1l508 -522v-78q-162 -163 -162 -334q0 -159 167 -350l-2 -76q-172 -181 -511 -517h-79q-129 128 -510 523zM230 205q143 -149 431 -443q289 287 435 439q-161 197 -161 385q0 193 157 372l-431 443 q-168 -169 -430 -445q158 -178 158 -370q0 -206 -159 -381zM427 976q0 93 71 155q68 59 163 59t163 -59q71 -62 71 -155q0 -76 -77 -175q0 -10 3.5 -30t3.5 -31q0 -90 -28 -213q-31 -136 -73 -200q-2 -3 -7 -10v-303h-112v304q-9 14 -26 42q-28 50 -55 185q-26 128 -26 195 q0 10 3.5 29t3.5 28q-78 100 -78 179zM539 976q0 -37 51 -102q7 -9 15 -20l1 -1h113q20 29 40 57q24 37 24 66q0 46 -39 75q-35 27 -83 27t-83 -27q-39 -29 -39 -75zM610 740q0 -130 53 -284q50 162 50 284v1h-103v-1z" />
<glyph unicode="&#x100a3;" horiz-adv-x="2205" d="M112 872l571 534q-66 21 -122 44l42 104q265 -107 499 -107t499 107l42 -104q-56 -23 -110 -41l560 -521l-76 -82l-123 115q-179 -135 -179 -253q0 -83 89 -171q37 -36 158 -126l-67 -90q-144 106 -194 162q-98 107 -98 225q0 166 208 329l-403 376q-157 -38 -306 -38 q-146 0 -300 37l4 -5l-413 -386q209 -163 209 -330q0 -118 -97 -225q-51 -56 -194 -162l-67 90q120 89 158 126q88 88 88 171q0 118 -179 253l-123 -114zM547 225v112h300q86 0 146 -68.5t60 -155.5v-486h-112v486q0 41 -27 76.5t-67 35.5h-300zM1130 113q0 87 60 155.5 t146 68.5h300v-112h-300q-40 0 -67 -35.5t-27 -76.5v-486h-112v486z" />
<glyph unicode="&#x100a4;" horiz-adv-x="1156" d="M112 910q0 232 292 232q36 0 82 -4l-10 -112q-65 6 -88 6q-164 0 -164 -122q0 -90 298 -284v749q0 77 79 123q67 39 150 39q82 0 160 -16l-21 -108q-82 12 -139 12q-27 0 -68 -13q-49 -16 -49 -37v-749q298 195 298 284q0 122 -165 122q-23 0 -88 -6l-10 112q68 6 96 6 q122 0 196 -54q83 -62 83 -180q0 -107 -158 -240q-68 -57 -252 -177v-157h235v-112h-235v-457q196 100 196 231q0 15 -15 31.5t-30 16.5h-118v112h118q62 0 109.5 -49t47.5 -111q0 -206 -270 -337q-64 -31 -94 -31t-94 31q-270 131 -270 337q0 62 47.5 111t109.5 49h117 v-112h-117q-15 0 -30 -16.5t-15 -31.5q0 -131 196 -231v457h-228v112h228v157q-187 121 -252 176q-158 133 -158 241z" />
<glyph unicode="&#x100a5;" horiz-adv-x="1713" d="M112 -138q0 93 61 143q56 47 151 47q118 0 181 -31q47 -24 142 -115l-77 -81q-79 77 -107 92q-44 23 -139 23q-100 0 -100 -78q0 -50 102 -81q77 -24 144 -24q129 0 178 23q45 21 141 124q92 99 191 128q70 20 231 20q176 0 264 -41q126 -59 126 -215q0 -88 -97 -133 q-76 -36 -175 -36q-169 0 -310 195l90 66q107 -149 220 -149q41 0 92 13q68 17 68 44q0 91 -83 124q-51 20 -160 20h-43q-156 0 -210 -23q-57 -24 -162 -135q-81 -86 -166 -114q-67 -23 -195 -23q-124 0 -227 47q-131 61 -131 170zM368 193q115 135 181 294l118 318 q74 180 208 379q154 229 285 316q56 37 136 43l13 -111q-77 -8 -139 -63q-23 -21 -102 -116q-117 -140 -189 -272q93 -98 147 -218q28 -63 54 -151q27 -98 55 -196q43 -130 94 -168q30 -22 92 -42l-40 -104q-80 29 -103 45q-35 23 -76 84q-53 79 -84 177l-122 -136v-118h116 v-112h-339v112h111v118l-138 153q-65 -153 -192 -304zM692 541l148 -164l144 161q-51 214 -158 336q-35 -76 -134 -333z" />
<glyph unicode="&#x100a6;" horiz-adv-x="2500" d="M112 -155q0 243 186 511q171 248 398 382q47 28 75 28h321q16 249 169 461q139 194 371 331l57 -97q-250 -147 -376 -356q78 -127 95 -339h321q28 0 75 -28q227 -134 398 -382q186 -268 186 -511v-162l-56 -56h-2164l-56 56v162zM224 -155v-106h2052v106q0 172 -114 367 q-97 164 -246 302q-112 104 -187 140h-255q175 -241 178 -550l-112 -2q-2 153 -60 306q-62 162 -166 261l-17 50q2 13 2 32q0 91 -51 219q-46 -125 -46 -260l-18 -41q-104 -99 -166 -261q-57 -152 -59 -306l-112 2q0 36 1 56q8 257 177 494h-254q-75 -36 -187 -140 q-149 -138 -246 -302q-114 -195 -114 -367zM1193 103v357h112v-357h-112z" />
<glyph unicode="&#x100a7;" horiz-adv-x="1401" d="M112 -373v1854l56 56h1065l56 -56v-1854h-112v396h-429v-396h-112v396h-412v-396h-112zM224 135h953v1290h-953v-1290z" />
<glyph unicode="&#x100a8;" horiz-adv-x="1808" d="M112 -317v1798l56 56h1472l56 -56v-1798l-56 -56h-1472zM224 -261h1027v1686h-1027v-1686zM289 1299l77 81l367 -351l367 351l77 -81l-388 -372v-1101h-112v1101zM1363 -261h221v1686h-221v-1686z" />
<glyph unicode="&#x100a9;" horiz-adv-x="2179" d="M112 1535h29q155 0 245 -67q101 -76 101 -225v-219q97 -21 165 -99t68 -175t-68 -175t-165 -99v-849h-112v1616q0 191 -258 180zM487 592q51 19 86 62.5t35 95.5t-36 97q-34 42 -85 61v-316zM572 -363q65 387 212 678q183 365 468 514q-230 208 -347 693l109 27 q109 -479 344 -662v650h112v-639q222 186 333 651l109 -27q-85 -354 -235 -563q54 -64 118 -81l199 174l73 -84l-169 -149l169 -147l-73 -85l-205 178q-100 16 -183 107q-65 -69 -136 -112v-1133h-112v1128q-281 -111 -468 -479q-145 -284 -208 -658z" />
<glyph unicode="&#x100aa;" horiz-adv-x="1592" d="M112 -314q3 47 28 242q25 204 49 407q34 243 86 408q67 214 180 365q-275 30 -275 212q0 89 62.5 153t151.5 64q108 0 164 -76q50 -67 50 -178q0 -36 -57 -118h489q-56 81 -56 118q0 111 50 178q56 76 164 76q89 0 151.5 -64t62.5 -153q0 -182 -275 -212 q113 -150 180 -365q52 -165 85 -408q25 -203 49 -407q12 -80 29 -242l-56 -59h-1256zM229 -261h1134q-8 58 -23 175l-5 39h-1085q-7 -74 -21 -214zM262 65h1061q-17 149 -27 227h-1004q-16 -101 -30 -227zM292 1320q0 -79 162 -99q28 40 39 62q0 142 -99 142 q-43 0 -72.5 -31t-29.5 -74zM311 404h968q-30 189 -75 325h-813q-45 -137 -80 -325zM433 841h729q-51 119 -124 212h-484q-69 -88 -121 -212zM1099 1283q11 -22 39 -62q162 20 162 99q0 43 -29.5 74t-72.5 31q-99 0 -99 -142z" />
<glyph unicode="&#x100ab;" horiz-adv-x="1865" d="M112 877l15 58l199 188l78 -2l182 -185l8 -68q-37 -60 -102 -106q-73 -51 -136 -51q-79 0 -150 46.5t-94 119.5zM234 882q45 -59 122 -59q51 0 116 69l-109 112zM433 -179q0 92 52 223q46 117 107 205q8 56 8 231q0 381 332 381q331 0 331 -381v-76q0 -92 9 -155 q61 -88 107 -205q52 -131 52 -223q0 -10 -3 -139l-56 -55h-880l-56 55q-3 129 -3 139zM475 1243l110 23q20 -98 73 -123q156 394 274 394q117 0 266 -373q42 29 129 88l61 -94l-148 -100q-78 -43 -172 -43h-253q-159 0 -225 37q-85 47 -115 191zM545 -179q0 -14 2 -82h771 q1 34 1 82q0 39 -11 83h-751q-12 -49 -12 -83zM595 16h675q-24 58 -54 111q-12 18 -35 53h-498q-12 -18 -34 -53q-31 -55 -54 -111zM710 292h443q-3 48 -2 177h-438v-57q0 -66 -3 -120zM721 581h423q-29 168 -212 168t-211 -168zM772 1127h296q13 0 23 1q-96 232 -159 292 q-64 -60 -160 -293zM1271 868l7 68l181 185l79 2l200 -188l15 -58q-23 -73 -95 -119.5t-151 -46.5q-63 0 -135 51q-64 46 -101 106zM1392 892q64 -69 115 -69q78 0 124 59l-130 122z" />
<glyph unicode="&#x100ac;" horiz-adv-x="1402" d="M112 -373v1854l56 56h1066l56 -56v-1854h-112v307h-421v-307h-112v307h-421v-307h-112zM224 46h954v211q-14 -1 -16 -1q-142 0 -238 110q-93 105 -93 249t93 249q96 110 238 110q1 0 16 -1v452h-191q13 -41 13 -86q0 -124 -88 -211.5t-211 -87.5t-211 88t-88 211 q0 45 13 86h-191v-452q15 1 17 1q142 0 238 -110q92 -105 92 -249t-92 -249q-96 -110 -238 -110q-3 0 -17 1v-211zM224 369q9 -1 17 -1q95 0 158 77q60 73 60 170t-60 170q-63 77 -158 77q-7 0 -17 -1v-492zM514 1339q0 -77 55 -132t132 -55t132 55t55 132q0 45 -22 86h-330 q-22 -41 -22 -86zM943 615q0 -97 60 -170q64 -77 159 -77q7 0 16 1v492q-10 1 -16 1q-95 0 -159 -77q-60 -73 -60 -170z" />
<glyph unicode="&#x100ad;" horiz-adv-x="2498" d="M112 131l79 79l170 -169q145 139 145 318t-145 319l-170 -169l-79 79l527 526l79 -79l-159 -159q362 -235 690 -235q326 0 690 235l-159 159l79 79l527 -526l-79 -79l-169 169q-146 -141 -146 -319q0 -177 146 -318l169 169l79 -79l-527 -527l-79 79l159 159 q-364 235 -690 235q-325 0 -689 -235l158 -159l-79 -79zM439 -38l39 -39q399 266 771 266q369 0 771 -266l39 39q-91 89 -131 170q-48 97 -48 227t48 227q40 82 131 171l-39 38q-402 -266 -771 -266t-771 266l-38 -38q91 -89 131 -171q47 -97 47 -227t-48 -227 q-40 -81 -131 -170z" />
<glyph unicode="&#x100ae;" horiz-adv-x="2502" d="M112 -292q202 398 202 687q0 288 -202 687l65 79q397 -110 531 -139q302 -67 543 -67t543 67q134 29 531 139l65 -79q-203 -400 -203 -687t203 -687l-65 -79q-398 110 -531 139q-302 67 -543 67t-543 -67q-134 -29 -531 -139zM267 -230q634 177 984 177t984 -177 q-160 344 -160 625t160 625q-634 -177 -984 -177t-984 177q159 -343 159 -625t-159 -625z" />
<glyph unicode="&#x100af;" horiz-adv-x="2517" d="M112 -201q0 86 72 161q67 66 135 131q72 89 72 208q0 118 -72 207q-67 66 -135 131q-72 75 -72 161q0 77 51.5 124.5t129.5 47.5q79 0 147 -75q100 -109 120 -122q130 -84 337 -131q182 -41 361 -41q568 0 786 259q93 110 179 110q78 0 130 -47.5t52 -124.5 q0 -86 -72 -161q-67 -65 -135 -131q-72 -89 -72 -207q0 -119 72 -208q67 -65 135 -131q72 -75 72 -161q0 -77 -52 -124.5t-130 -47.5q-79 0 -148 75q-101 111 -119 123q-127 85 -336 131q-182 40 -362 40q-568 0 -786 -259q-93 -110 -179 -110q-78 0 -129.5 47.5 t-51.5 124.5zM224 -201q0 -60 69 -60q27 0 103 78q91 93 106 103q141 93 364 144q196 44 392 44q627 0 874 -301q56 -68 91 -68q70 0 70 60q0 46 -72 114q-103 95 -135 142q-72 105 -72 244t72 244q32 46 135 141q72 68 72 114q0 60 -70 60q-27 0 -103 -78 q-90 -93 -105 -103q-141 -93 -365 -143q-196 -45 -392 -45q-259 0 -473 62q-268 78 -401 239q-56 68 -91 68q-69 0 -69 -60q0 -46 72 -114q103 -95 135 -141q72 -105 72 -244t-72 -244q-32 -47 -135 -142q-72 -68 -72 -114z" />
<glyph unicode="&#x100b0;" horiz-adv-x="2517" d="M112 -317v641l56 56h209q236 0 401 28q146 24 388 99q349 107 649 189q243 66 286 66l248 -1l56 -56v-1022l-56 -56h-2181zM224 -261h176v529h-176v-529zM512 -261h1524v899q-35 -8 -204 -55q-402 -111 -632 -182q-394 -121 -688 -131v-531zM2148 -261h145v910l-145 1 v-911z" />
<glyph unicode="&#x100b1;" horiz-adv-x="2446" d="M112 856v112h173q-74 90 -74 216q0 206 230 316q66 31 94 35h30q13 0 70 -24q253 -107 253 -327q0 -130 -75 -216h820q-75 86 -75 216q0 220 253 327q57 24 70 24h30q28 -4 94 -35q230 -110 230 -316q0 -126 -74 -216h173v-112h-261l1 -158q0 -18 42.5 -94t42.5 -96v-825 l-56 -56h-413l-56 56v825q0 20 42.5 96t42.5 97v155h-992v-155q0 -21 42.5 -97t42.5 -96v-825l-56 -56h-413l-56 56v825q0 20 42.5 96t42.5 94l1 158h-261zM323 1184q0 -142 149 -216h156q148 74 148 216q0 86 -73 154q-61 57 -153 85q-92 -28 -154 -85q-73 -68 -73 -154z M399 -261h301v764q-27 48 -54 95q-31 57 -31 103v155h-131v-155q0 -46 -31 -103q-27 -47 -54 -95v-764zM1670 1184q0 -142 148 -216h156q149 74 149 216q0 86 -73 154q-62 57 -154 85q-92 -28 -153 -85q-73 -68 -73 -154zM1746 -261h301v764q-27 48 -54 95q-31 57 -31 103 v155h-131v-155q0 -46 -31 -103q-27 -47 -54 -95v-764z" />
<glyph unicode="&#x100b2;" horiz-adv-x="1496" d="M112 249q0 215 178 459q158 218 364 345v484h112v-516l-29 -49q-185 -104 -341 -308q-172 -225 -172 -415q0 -163 111 -297q106 -128 266 -179q107 -34 155 -34q164 0 337 152q179 156 179 317q0 107 -77 180t-185 73q-65 0 -138 -20q-98 -28 -98 -75q0 -52 34 -52 q35 0 102 26t104 26q50 0 101 -34q56 -37 63 -84v-53q0 -106 -160 -232q-153 -121 -262 -121q-161 0 -295 126t-134 286q0 101 85 244q74 124 164 206q43 40 143 112q97 70 142 113v608h112v-623q0 -42 -85 -110l-122 -88q-136 -103 -204 -190q-83 -106 -119 -250 q-4 -16 -4 -22q0 -114 101 -207t216 -93q62 0 184 91q126 93 126 150v32q-25 27 -52 27q-34 0 -101 -26t-105 -26q-65 0 -107 51q-39 47 -39 113q0 107 127 164q98 43 221 43q154 0 264 -106t110 -259q0 -208 -211 -397q-206 -184 -417 -184q-64 0 -189 40q-195 63 -322 219 q-133 164 -133 363z" />
<glyph unicode="&#x100b3;" horiz-adv-x="1255" d="M112 -261h460v398h-236v112h236v666h-236v112h236v398h-460v112h1031v-112h-459v-398h235v-112h-235v-666h235v-112h-235v-398h459v-112h-1031v112z" />
<glyph unicode="&#x100b4;" horiz-adv-x="2521" d="M112 1207q0 136 105 244t242 108q168 0 323 -138q123 -109 218 -554q239 269 613 269q323 0 555 -211q241 -219 241 -543q0 -323 -241 -543q-233 -212 -555 -212t-555 212q-241 220 -241 543q0 193 91 356q-163 6 -276 20q-232 29 -322 99q-81 63 -135 150 q-63 101 -63 200zM224 1207q0 -143 154 -262q65 -50 268 -76q108 -14 243 -19q-88 404 -181 487q-123 110 -249 110q-90 0 -162.5 -74.5t-72.5 -165.5zM929 382q0 -273 204 -460q200 -183 480 -183t480 183q204 187 204 460q0 274 -204 460q-199 182 -480 182t-480 -182 q-204 -186 -204 -460z" />
<glyph unicode="&#x100b5;" horiz-adv-x="1225" d="M112 582q0 383 281.5 669t663.5 286h56v-112h-56q-185 0 -357 -87v-1512q172 -87 357 -87h56v-112h-56q-382 0 -663.5 286t-281.5 669zM224 582q0 -203 100 -389q97 -180 264 -299v1376q-167 -119 -264 -299q-100 -186 -100 -389z" />
<glyph unicode="&#x100b6;" horiz-adv-x="2184" d="M112 632v112h214q74 0 142 -92q63 -86 63 -163v-750h1122v750q0 77 63 163q68 92 142 92h214v-112h-214q-24 0 -60 -60q-33 -56 -33 -83v-806l-56 -56h-1234l-56 56v806q0 27 -33 83q-36 60 -60 60h-214zM112 856v112h214q61 0 142 -41q127 -65 205 -180q82 -121 82 -258 v-563h674v563q0 137 82 258q78 115 205 180q80 41 142 41h214v-112h-214q-44 0 -110 -39q-207 -122 -207 -328v-619l-56 -56h-786l-56 56v619q0 206 -207 328q-66 39 -110 39h-214zM856 1226q44 54 62 74q38 39 75 60l-113 125l83 75l129 -143l129 143l83 -75l-110 -122 q107 -49 107 -143q0 -71 -79 -150q-15 -15 -148 -125q-79 -65 -79 -101q0 -20 40 -34q32 -11 57 -11q71 0 160 109l86 -72q-122 -149 -246 -149q-78 0 -139 39q-70 45 -70 118q0 71 79 150q15 15 148 125q79 65 79 101q0 22 -39 40q-32 14 -58 14q-55 0 -150 -119z" />
<glyph unicode="&#x100b7;" horiz-adv-x="2175" d="M112 1040l79 79l134 -134l146 146l-220 220l79 79l220 -220l137 137l-134 134l79 79l348 -348l-79 -79l-135 135l-137 -137l459 -460l459 459l-137 137l-135 -134l-79 79l347 348l79 -79l-133 -134l137 -138l221 221l79 -79l-221 -221l146 -145l133 134l79 -79l-347 -349 l-79 79l135 135l-146 146l-482 -482v-451q25 -4 75 -48q79 -70 154 -164q99 -125 99 -189v-34l-56 -56h-655l-56 56v34q0 64 97 186q73 93 151 163q31 28 36 32q23 17 43 20v451l-482 483l-146 -146l135 -136l-79 -79zM824 -261h529q-28 54 -105.5 142t-128.5 127h-62 q-52 -39 -127 -126q-78 -88 -106 -143z" />
<glyph unicode="&#x100b8;" horiz-adv-x="1859" d="M112 947v112h705l-371 428l85 73l398 -459l398 459l85 -73l-371 -428h706v-112h-135v-1320h-112v1320h-313v-1320h-112v1320h-291v-1320h-112v1320h-314v-1320h-112v1320h-134z" />
<glyph unicode="&#x100b9;" horiz-adv-x="2417" d="M112 -317q0 235 45 330q65 136 268 182v603l56 56h672v478l-188 -214l-84 74l272 310v35h112v-35l273 -310l-84 -74l-189 215v-479h671l56 -56v-603q218 -50 279 -207q34 -90 34 -361h-112v56q0 196 -24 260q-38 99 -177 137v-453h-112v466h-1343v-466h-112v453 q-139 -38 -177 -137q-24 -64 -24 -260v-56h-112v56zM537 205h1343v537h-1343v-537z" />
<glyph unicode="&#x100ba;" horiz-adv-x="2020" d="M112 -317v1320l16 40l520 517l79 -79l-503 -501v-278h217v164l16 39l371 380l80 -78l-355 -364v-141h914v141l-355 364l80 78l371 -380l16 -39v-164h217v278l-503 501l79 79l520 -517l16 -40v-1320l-56 -56h-1684zM224 146v-407h217v407h-217zM224 258h217v332h-217v-332 zM553 146v-407h914v407h-914zM553 258h914v332h-914v-332zM1579 146v-407h217v407h-217zM1579 258h217v332h-217v-332z" />
<glyph unicode="&#x100bb;" horiz-adv-x="1086" d="M112 -317v1798l70 54q153 -40 259 -134q80 -84 161 -168q99 -96 228 -137l31 -82q-64 -96 -127 -192q-92 -145 -92 -191q0 -51 139 -207q95 -100 189 -200l1 -75q-58 -65 -72 -89q-26 -45 -26 -111q0 -64 32 -126q6 -12 69 -110l-47 -86h-759zM224 -261h600 q-63 102 -63 210q0 130 92 236q-148 152 -195 209q-128 154 -128 237q0 90 197 383q-124 49 -262 204q-134 151 -241 188v-1667z" />
<glyph unicode="&#x100bc;" horiz-adv-x="1342" d="M112 -28v339l7 26q9 23 43 71q142 200 558 495q-161 176 -279 307q-85 91 -246 281l89 69q78 -101 484 -544q58 127 172 281q100 131 201 262l89 -67q-157 -208 -209 -280q-156 -221 -167 -288q58 -51 116 -103q77 -73 77 -102v-761q0 -57 -117 -179t-176 -134 q-90 -18 -268 -18q-205 0 -286 68q-88 76 -88 277zM224 -28q0 -156 61 -200q45 -33 201 -33q184 0 252 16q18 4 107.5 97t89.5 106v740q-16 16 -136 124q-462 -327 -575 -525v-325z" />
<glyph unicode="&#x100bd;" horiz-adv-x="2319" d="M112 375q0 205 170 367q122 117 380 245q386 192 398 199q-158 114 -243 160q-148 79 -263 79q-34 0 -167 -12l-8 112q134 12 175 12q147 0 320 -96q76 -41 286 -190q211 150 285 190q172 96 319 96q42 0 176 -12l-8 -112q-133 12 -168 12q-115 0 -262 -79 q-84 -46 -242 -160q12 -7 398 -199q257 -128 380 -245q169 -162 169 -367q0 -321 -285 -403v-289l-56 -56h-1414l-56 56v286q-136 31 -213 150q-71 109 -71 256zM224 375q0 -217 172 -284v557l56 56h1414l56 -56v-563q85 28 131 114q42 77 42 176q0 235 -359 445l-576 296 l-576 -296q-360 -210 -360 -445zM508 -261h1302v853h-1302v-853z" />
<glyph unicode="&#x100be;" horiz-adv-x="1339" d="M112 843l55 66h447v195l-404 374l76 82l384 -355l383 355l76 -82l-403 -373v-196h446l55 -66q-107 -562 -294 -1104h127v-112h-781v112h127q-187 543 -294 1104zM235 797q107 -535 290 -1058h289q183 523 290 1058h-378v-392h-112v392h-379z" />
<glyph unicode="&#x100bf;" horiz-adv-x="2347" d="M112 -1q0 62 64 62q63 0 63 -62q0 -64 -63 -64q-26 0 -45 19t-19 45zM112 194q0 62 64 62q63 0 63 -62q0 -64 -63 -64q-26 0 -45 19t-19 45zM112 -196q0 63 64 63q63 0 63 -63q0 -64 -63 -64q-26 0 -45 19t-19 45zM112 388q0 63 64 63q63 0 63 -63q0 -64 -63 -64 q-26 0 -45 19t-19 45zM112 583q0 63 64 63q63 0 63 -63q0 -64 -63 -64q-26 0 -45 19t-19 45zM112 778q0 63 64 63q63 0 63 -63q0 -64 -63 -64q-26 0 -45 19t-19 45zM112 973q0 62 64 62q63 0 63 -62q0 -64 -63 -64q-26 0 -45 19t-19 45zM112 1168q0 62 64 62q63 0 63 -62 q0 -64 -63 -64q-26 0 -45 19t-19 45zM112 1362q0 63 64 63q63 0 63 -63q0 -64 -63 -64q-26 0 -45 19t-19 45zM297 355q132 66 290 125l-104 107l80 78l140 -144q237 78 372 78q103 0 203 -57q80 85 161 85q132 0 268 -238q245 379 356 379q66 0 121 -76q51 -70 51 -139 q0 -151 -91 -274q-100 -135 -245 -135q-49 0 -81 12q79 -196 169 -511l-107 -31q-80 281 -173 509q-158 392 -268 392t-269 -392q-93 -229 -173 -509l-107 31q66 232 117 373q100 282 202 435q-65 34 -134 34q-103 0 -285 -56l208 -215l-80 -78l-246 254q-175 -63 -325 -137 zM310 758q584 109 1014 272q-422 160 -1014 272l20 110q736 -139 1164 -331v-102q-428 -192 -1164 -331zM1803 330q33 -74 96 -74q97 0 164 103q60 92 60 194q0 21 -19.5 59t-37.5 44q-67 -27 -263 -326z" />
<glyph unicode="&#x100c0;" horiz-adv-x="2494" d="M112 107l56 56h151v766h-48l-56 56v496l56 56h212l56 -56v-232h1316v232l56 56h208l56 -56v-1318h151l56 -56v-424l-56 -56h-623l-56 56v424l56 56h152v766h-1424v-766h152l56 -56v-424l-56 -56h-415l-56 56v424zM224 51v-312h95v312h-95zM327 1041h100v96h-100v-96z M327 1249h100v176h-100v-176zM431 51v-312h96v312h-96zM539 1041h1316v96h-1316v-96zM1759 51v-312h96v312h-96zM1967 51v-312h96v312h-96zM1967 163h96v974h-96v-974zM1967 1249h96v176h-96v-176zM2175 51v-312h95v312h-95z" />
<glyph unicode="&#x100c1;" horiz-adv-x="1800" d="M112 -317v1798l56 56h1464l56 -56v-1798l-56 -56h-1464zM224 -261h1352v1686h-1352v-1686zM273 1114l96 58q154 -252 362 -345q18 421 169 421t169 -421q206 92 361 345l96 -58q-10 -16 -29 -48q-49 -78 -118 -149v-378h-112v279q-139 -105 -279 -132q249 -490 294 -757 l-110 -18q-3 18 -9 55q-11 58 -66 198q-83 210 -197 445q-237 -487 -273 -698l-110 18q44 264 295 756q-141 26 -279 133v-279h-112v381q-83 87 -148 194zM843 793q26 -4 57 -4t57 4q-8 251 -57 331q-50 -98 -57 -331zM844 -108v424h112v-424h-112z" />
<glyph unicode="&#x100c2;" horiz-adv-x="1704" d="M112 402l219 22q21 66 64 197l-160 -16l-11 111l213 21q36 98 73 188l-185 -18l-11 111l246 25q122 279 244 468h94q125 -194 245 -468l247 -25l-11 -111l-187 18q37 -90 73 -188l215 -21l-11 -111l-162 16q32 -93 65 -197l220 -22l-12 -111l-172 17q110 -374 153 -673 l-111 -15q-39 300 -161 700l-202 21l11 111l154 -15q-27 83 -68 196l-209 21l11 111l155 -15q-36 93 -76 188l-179 18l11 111l116 -11q-81 179 -162 318q-80 -137 -162 -318l118 11l11 -111l-181 -18q-42 -100 -76 -188l157 15l11 -111l-211 -21q-37 -103 -67 -196l154 15 l12 -111l-202 -21q-117 -387 -162 -700l-111 15q43 299 153 673l-172 -17z" />
<glyph unicode="&#x100c3;" horiz-adv-x="1424" d="M112 377v482l6 25q7 20 84 172q105 208 197 314q146 167 313 167t313 -166q93 -106 197 -314q34 -65 84 -173l6 -25v-482l-56 -56h-163v-632q0 -62 -66 -62q-64 0 -221.5 173.5t-157.5 240.5v280h-480zM224 433h976v413q-138 281 -189 356q-148 223 -299 223t-299 -223 q-51 -75 -189 -356v-413zM760 41q0 -18 81 -112q75 -87 140 -151v543h-221v-280z" />
<glyph unicode="&#x100c4;" horiz-adv-x="2483" d="M112 403q0 78 59 143.5t136 65.5h1869q79 0 137 -64.5t58 -144.5q0 -87 -70.5 -150.5t-158.5 -63.5h-223v-562h-112v215h-1132v-215h-112v562h-221q-92 0 -161 61.5t-69 152.5zM224 403q0 -44 38 -74q34 -28 80 -28h221v199h-256q-30 0 -56.5 -33t-26.5 -64zM675 -46 h1132v546h-1132v-546zM1919 301h223q41 0 79 31t38 71q0 33 -25.5 65t-57.5 32h-257v-199z" />
<glyph unicode="&#x100c5;" horiz-adv-x="2535" d="M112 67q0 79 56.5 131t136.5 52h156v499h-217v112h623q28 0 49 -24q17 -24 33 -47q10 -14 91 -110q230 -273 421 -273h556l56 -56v-101h157q80 0 136.5 -52t56.5 -131q0 -72 -52 -128t-123 -56h-175v-200l-56 -56h-1500l-56 56v200h-174q-71 0 -123 56t-52 128zM224 67 q0 -25 19 -48.5t44 -23.5h174v143h-156q-81 0 -81 -71zM573 -261h1388v556h-500q-175 0 -342 141q-93 79 -256 282q-14 17 -22 31h-268v-1010zM821 8q3 65 70 115q63 47 131 47q80 0 178.5 -55.5t101.5 -55.5q49 0 79 66l51 33h296v-112h-263q-62 -99 -163 -99 q-46 0 -131 55.5t-149 55.5q-16 0 -52 -18t-37 -32v-56h-112v56zM2073 -5h175q25 0 44 23.5t19 48.5q0 71 -81 71h-157v-143z" />
<glyph unicode="&#x100c6;" horiz-adv-x="2029" d="M112 1484l82 76l1267 -1361q20 1 24 1q231 0 330 -147q74 -109 102 -361l-49 -62q-23 -3 -57 -3q-180 0 -307 130t-127 311q0 26 3 54zM1489 68q-6 -129 86.5 -226.5t223.5 -102.5q-22 174 -77 249q-72 99 -232 100z" />
<glyph unicode="&#x100c7;" horiz-adv-x="2042" d="M112 0v112h374l-169 228l90 66l218 -294h197l-169 228l90 66l218 -294h969v-112h-969l-218 -294l-90 66l169 228h-197l-218 -294l-90 66l169 228h-374z" />
<glyph unicode="&#x100c8;" horiz-adv-x="2355" d="M112 579v112h1476q-5 124 -130 316q-118 182 -110 306h-88v112h951v-112h-88q1 -14 1 -28q0 -107 -117 -285q-119 -183 -124 -309h360v-112h-345q21 -76 74 -180q41 -74 81 -148q61 -114 61 -145q0 -84 -148 -279q-152 -200 -229 -200h-9q-75 0 -225 201 q-146 197 -146 278q0 31 61 145q40 74 81 148q53 104 74 180h-1461zM1459 1285q0 -65 60 -166q58 -94 115 -188q62 -123 66 -240h71q4 117 66 239q57 95 114 189q61 101 61 166q0 18 -1 28h-551q-1 -12 -1 -28zM1470 100q14 -59 113.5 -193t151.5 -166q52 32 152 166 t114 193l-122 234q-73 142 -97 245h-93q-24 -103 -97 -245z" />
<glyph unicode="&#x100c9;" horiz-adv-x="900" d="M112 271q0 266 54 552q69 363 191 501q19 21 37 33v180h112v-180q38 -24 77 -94q105 -188 159 -482q46 -250 46 -510q0 -130 -40 -204l-49 -29h-193v-299h158v-112h-428v112h158v299h-193l-49 29q-40 74 -40 204zM224 271q0 -77 14 -121h156v1018q-170 -351 -170 -897z M506 150h156q14 44 14 121q0 218 -37 453q-47 293 -133 453v-1027z" />
<glyph unicode="&#x100ca;" horiz-adv-x="780" d="M112 -373v1910h112v-223q196 -105 320 -308t124 -424q0 -226 -125 -424q-118 -189 -319 -306v-225h-112zM224 -15q152 105 239 257q93 161 93 340t-93 340q-87 152 -239 257v-1194z" />
<glyph unicode="&#x100cb;" horiz-adv-x="900" d="M112 893q0 130 40 204l49 29h193v299h-158v112h428v-112h-158v-299h193l49 -29q40 -74 40 -204q0 -266 -54 -552q-69 -363 -191 -501q-19 -21 -37 -33v-180h-112v180q-38 24 -77 94q-105 188 -159 482q-46 250 -46 510zM224 893q0 -218 37 -453q47 -293 133 -453v1027 h-156q-14 -44 -14 -121zM506 -4q170 351 170 897q0 77 -14 121h-156v-1018z" />
<glyph unicode="&#x100cc;" horiz-adv-x="3700" d="M112 421q0 156 110.5 266t266.5 110h1221q9 0 13 -1l1182 -272q4 -1 18 6q30 15 50 54q14 34 28 67q9 18 15 26q12 11 34 34q77 86 77 167q0 83 -64 155q-35 39 -133 111l66 90q119 -88 168 -149q75 -93 75 -207q0 -139 -135 -272q-43 -129 -129 -175q86 -45 129 -177 q135 -133 135 -272q0 -114 -75 -207q-49 -62 -168 -150l-66 90q97 71 133 111q64 73 64 156q0 82 -80 170q-11 10 -31 31q-2 2 -42 89q-26 58 -66 65l-643 -173v-178h-112v148l-179 -48v-179h-112v148l-179 -48v-182h-112v152l-182 -49q-16 -128 -113.5 -214.5t-228.5 -86.5 q-143 0 -244 101t-101 244t101 244t244 101q134 0 233 -91v459h-599v-555l-32 -51q-76 -36 -160 -36q-156 0 -266.5 111t-110.5 267zM230 365q20 -90 92.5 -150t166.5 -60q40 0 80 13v197h-339zM230 477h339v208h-80q-94 0 -166.5 -59t-92.5 -149zM821 28h170v170 q-136 -34 -170 -170zM821 -84q34 -136 170 -170v170h-170zM1103 28h170q-34 136 -170 170v-170zM1103 -84v-170q136 34 170 170h-170zM1392 45l179 48v234l-179 211v-493zM1415 685l201 -238l82 152l92 10l121 -142l94 153q-141 44 -142 44q-80 21 -159 21h-289zM1683 123 l179 48v180l-104 123l-75 -140v-211zM1974 202l179 48v96l-86 161l-93 -151v-154zM2155 581l54 -102l42 80zM2265 280l555 149l-456 104l-99 -187v-66zM2563 -169q23 13 49 28q50 29 62 91q6 56 12 113q28 142 158 142h56v-112h-56q-38 0 -50 -50q-1 -4 -8 -79 q-9 -94 -46 -141q-30 -38 -122 -89zM2596 715q23 13 49 28q50 29 61 91q6 56 12 113q27 142 158 142h56v-112h-56q-38 0 -49 -50q-1 -3 -8 -79q-9 -94 -47 -142q-30 -37 -121 -88zM3251 -175q22 12 49 28q51 30 62 90l12 114q27 142 158 142h56v-112h-56q-38 0 -49 -50 q-1 -4 -8 -79q-9 -94 -47 -142q-30 -36 -122 -88zM3251 704q22 12 49 28q51 30 62 90l12 114q27 142 158 142h56v-112h-56q-38 0 -49 -50q-1 -3 -8 -79q-9 -94 -47 -142q-30 -36 -122 -88z" />
<glyph unicode="&#x100cd;" horiz-adv-x="3700" d="M112 421q0 156 110.5 266t266.5 110h1221q9 0 13 -1l1182 -272q4 -1 18 6q30 15 50 54q14 34 28 67q9 18 15 26q12 11 34 34q77 86 77 167q0 83 -64 155q-35 39 -133 111l66 90q119 -88 168 -149q75 -93 75 -207q0 -139 -135 -272q-43 -129 -129 -175q86 -45 129 -177 q135 -133 135 -272q0 -114 -75 -207q-49 -62 -168 -150l-66 90q97 71 133 111q64 73 64 156q0 82 -80 170q-11 10 -31 31q-2 2 -42 89q-26 58 -66 65l-643 -173v-178h-112v148l-179 -48v-179h-112v148l-179 -48v-182h-112v152l-191 -51v-10h-755l-56 56v80q-38 -9 -80 -9 q-156 0 -266.5 111t-110.5 267zM230 365q20 -90 92.5 -150t166.5 -60q38 0 80 14v196h-339zM230 477h339v208h-80q-94 0 -166.5 -59t-92.5 -149zM681 28h83v370q0 40 -83 70v-440zM681 585q77 -17 133 -65q62 -54 62 -122v-370h404v657h-599v-100zM1392 45l179 48v234 l-179 211v-493zM1415 685l201 -238l82 152l92 10l121 -142l94 153q-141 44 -142 44q-80 21 -159 21h-289zM1683 123l179 48v180l-104 123l-75 -140v-211zM1974 202l179 48v96l-86 161l-93 -151v-154zM2155 581l54 -102l42 80zM2265 280l555 149l-456 104l-99 -187v-66z M2563 -169q23 13 49 28q50 29 62 91q6 56 12 113q28 142 158 142h56v-112h-56q-38 0 -50 -50q-1 -4 -8 -79q-9 -94 -46 -141q-30 -38 -122 -89zM2596 715q23 13 49 28q50 29 61 91q6 56 12 113q27 142 158 142h56v-112h-56q-38 0 -49 -50q-1 -3 -8 -79q-9 -94 -47 -142 q-30 -37 -121 -88zM3251 -175q22 12 49 28q51 30 62 90l12 114q27 142 158 142h56v-112h-56q-38 0 -49 -50q-1 -3 -8 -79q-9 -94 -47 -142q-30 -36 -122 -88zM3251 704q22 12 49 28q51 30 62 90l12 114q27 142 158 142h56v-112h-56q-38 0 -49 -50q-1 -4 -8 -79 q-9 -94 -47 -142q-30 -36 -122 -88z" />
<glyph unicode="&#x100ce;" horiz-adv-x="3533" d="M112 0v112h90v877l56 56h896l56 -56v-877h82q817 522 1355 703q120 40 369 109q246 67 369 109l36 -106q-127 -45 -369 -110q-255 -70 -369 -108q-501 -168 -1222 -622q-40 -28 -123 -78q-17 -9 -184 -9h-1042zM314 112h148v478q0 29 -34 57q-22 19 -114 24v-559z M314 784q126 -6 182 -49q29 -22 53 -65q25 -46 25 -80v-478h524v821h-784v-149z" />
<glyph unicode="&#x100cf;" horiz-adv-x="2134" d="M112 582q0 395 280 675t675 280t675 -280t280 -675t-280 -675t-675 -280t-675 280t-280 675zM226 526q21 -315 245.5 -539.5t539.5 -245.5v510q-105 18 -180.5 94t-93.5 181h-511zM226 638h511q18 105 93.5 181t180.5 94v510q-315 -21 -539.5 -245.5t-245.5 -539.5z M851 526q33 -128 160 -161v161h-160zM851 638h160v161q-127 -33 -160 -161zM1123 251v-510q315 21 539.5 245.5t245.5 539.5h-510q-18 -105 -94 -181t-181 -94zM1123 365q128 33 161 161h-161v-161zM1123 638h161q-33 128 -161 161v-161zM1123 913q105 -18 181 -94t94 -181 h510q-21 315 -245.5 539.5t-539.5 245.5v-510z" />
<glyph unicode="&#x100d0;" horiz-adv-x="2084" d="M112 382v330l28 49q142 81 226 234q82 150 82 317q0 20 -3.5 59.5t-3.5 59.5q0 106 83 106h1036q82 0 82 -106q0 -20 -3.5 -59.5t-3.5 -59.5q0 -167 82 -317q84 -153 227 -234l28 -49v-330h-112v298q-157 99 -248 273q-89 170 -89 359q0 21 3 57q4 40 4 56h-152 q0 -18 -3 -55.5t-3 -57.5q0 -271 341 -594l17 -41v-295h-112v271l-6 6q-175 -236 -515 -455v-577h-112v577q-339 218 -514 455l-6 -6v-271h-112v295l17 41q342 324 342 594q0 20 -3.5 57.5t-3.5 55.5h-152q0 -16 4 -56q3 -36 3 -57q0 -189 -89 -359q-91 -174 -247 -273v-298 h-112zM549 741q151 -212 436 -403v208q-198 112 -342 309q-42 -56 -94 -114zM710 954q114 -170 275 -277v748h-168q0 -16 4 -57q3 -35 3 -56q0 -170 -114 -358zM1097 338q283 189 437 403q-49 55 -94 115q-145 -198 -343 -310v-208zM1097 677q160 106 276 278 q-113 188 -113 357q0 21 3 57q3 40 3 56h-169v-748z" />
<glyph unicode="&#x100d1;" horiz-adv-x="2238" d="M112 -317v768l56 56h1902l56 -56v-768l-56 -56h-1902zM224 -261h1790v656h-1790v-656z" />
<glyph unicode="&#x100d2;" horiz-adv-x="1425" d="M112 -373v1910h112v-116q180 -116 244 -259q80 -179 92 -199q73 -125 153 -125q89 0 167 153q52 115 104 229q59 96 217 200v117h112v-1910h-1201zM224 -261h977v1546q-96 -71 -143.5 -171t-93.5 -202q-101 -186 -251 -186q-148 0 -236 159q-65 139 -131 277 q-38 60 -122 122v-1545zM384 405v174l56 56h548l56 -56v-174h-112v118h-163v-193h169v-112h-169v-366h-112v366h-168v112h168v193h-161v-118h-112z" />
<glyph unicode="&#x100d3;" horiz-adv-x="1094" d="M112 763l77 82l100 -94l93 101l82 -76l-93 -101l176 -165l177 165l-94 101l82 76l94 -101l100 94l76 -82l-100 -94l97 -105l-82 -76l-97 105l-197 -184v-782h-112v782l-197 184l-97 -105l-82 76l98 105zM206 1195q0 141 100 241.5t241 100.5t241 -100.5t100 -241.5 t-100 -240.5t-241 -99.5t-241 99.5t-100 240.5zM318 1195q0 -95 67 -161.5t162 -66.5t162 66.5t67 161.5t-67 162.5t-162 67.5t-162 -67.5t-67 -162.5z" />
<glyph unicode="&#x100d4;" horiz-adv-x="2541" d="M112 332v186h112v-168q68 -91 146 -174h1801q78 83 146 174v168h112v-186l-11 -33q-44 -71 -165 -199q-447 -473 -982 -473q-537 0 -983 472q-119 126 -165 200zM486 64q370 -325 785 -325q414 0 784 325h-1569z" />
<glyph unicode="&#x100d5;" horiz-adv-x="2368" d="M112 1418q0 63 64 63q63 0 63 -63q0 -64 -63 -64q-26 0 -45 19t-19 45zM193 1206q0 62 63 62t63 -62q0 -64 -63 -64t-63 64zM293 1012q0 63 64 63q63 0 63 -63q0 -64 -63 -64q-26 0 -45 19t-19 45zM427 804q0 62 63 62t63 -62q0 -64 -63 -64t-63 64zM513 584q0 63 64 63 q62 0 62 -63q0 -64 -62 -64q-26 0 -45 19t-19 45zM540 1131v112h1005l194 175l75 -83l-192 -173v-128h343q76 0 133 -45q62 -48 62 -122q0 -63 -47 -108q-43 -42 -107 -54q63 -65 63 -162v-556h-112v556q0 35 -18 66q-20 36 -53 36q-32 0 -53 -37q-17 -30 -17 -65v-556h-112 v556q0 93 59 158h-141v-165l-56 -56h-589v112h533v539h-970zM636 372q0 62 64 62q62 0 62 -62q0 -64 -62 -64q-26 0 -45 19t-19 45zM806 188q0 63 64 63q63 0 63 -63q0 -64 -63 -64q-26 0 -45 19t-19 45zM1013 65q0 62 64 62q63 0 63 -62q0 -64 -63 -64q-26 0 -45 19t-19 45 zM1244 -25q0 63 64 63q62 0 62 -63q0 -64 -62 -64q-26 0 -45 19t-19 45zM1455 -145q0 63 64 63q63 0 63 -63t-63 -63q-64 0 -64 63zM1622 813h343q27 0 52 13q31 16 31 41t-30 42q-26 13 -53 13h-343v-109zM1665 -253q0 63 64 63q62 0 62 -63q0 -64 -62 -64q-26 0 -45 19 t-19 45zM1912 -242q0 63 64 63q63 0 63 -63q0 -64 -63 -64q-26 0 -45 19t-19 45zM2129 -231q0 63 64 63q63 0 63 -63q0 -64 -63 -64q-26 0 -45 19t-19 45z" />
<glyph unicode="&#x100d6;" horiz-adv-x="2399" d="M112 -253q0 63 64 63q63 0 63 -63q0 -64 -63 -64q-26 0 -45 19t-19 45zM209 -23q0 63 64 63q63 0 63 -63t-63 -63q-64 0 -64 63zM311 177q0 62 64 62q63 0 63 -62q0 -64 -63 -64q-26 0 -45 19t-19 45zM475 373q0 62 64 62q62 0 62 -62q0 -64 -62 -64q-26 0 -45 19t-19 45 zM586 612q0 63 63 63t63 -63q0 -64 -63 -64t-63 64zM743 839q0 63 64 63q63 0 63 -63t-63 -63q-64 0 -64 63zM795 341q0 252 324 403q261 122 547 122q265 0 428 -105q193 -125 193 -377q0 -216 -341 -373l-47 101q276 126 276 272q0 201 -162 295q-130 75 -347 75 q-231 0 -465 -96q-294 -122 -294 -317q0 -114 96 -186q1 -1 180 -99q96 -53 96 -119v-56h-112v51q-27 27 -124 74q-128 63 -181 126q-67 79 -67 209zM962 950q0 63 64 63q62 0 62 -63t-62 -63q-64 0 -64 63zM1162 326q0 40 29 68t69 28t68 -28t28 -68t-28 -69t-68 -29 t-69 29t-29 69zM1197 -261h293v950h112v-950h203v-112h-608v112zM1224 1042q0 63 64 63q62 0 62 -63q0 -64 -62 -64q-26 0 -45 19t-19 45zM1486 1124q0 63 63 63t63 -63q0 -64 -63 -64t-63 64zM1676 1231q0 63 64 63q63 0 63 -63t-63 -63q-64 0 -64 63zM1741 326 q0 40 28.5 68t68.5 28t68.5 -28t28.5 -68t-28.5 -69t-68.5 -29t-68.5 29t-28.5 69zM1844 1418q0 63 64 63q62 0 62 -63q0 -64 -62 -64q-26 0 -45 19t-19 45z" />
<glyph unicode="&#x100d7;" horiz-adv-x="2275" d="M112 582q0 395 280 675t675 280t675 -280t280 -675v-56h-112v56q0 349 -247 596t-596 247t-596 -247t-247 -596t247 -596t596 -247h56v-112h-56q-395 0 -675 280t-280 675zM462 582q0 250 177.5 427.5t427.5 177.5t427.5 -177.5t177.5 -427.5v-56h-112v56 q0 204 -144.5 348.5t-348.5 144.5t-348.5 -144.5t-144.5 -348.5t144.5 -348.5t348.5 -144.5h56v-112h-56q-250 0 -427.5 177.5t-177.5 427.5zM1373 516l99 53l228 -431l393 314l70 -88l-446 -356l-84 18zM1656 262q51 116 77 237l109 -23q-28 -135 -84 -260z" />
<glyph unicode="&#x100d8;" horiz-adv-x="2403" d="M112 0v112h2010q-188 192 -404 272l39 105q142 -53 294 -166.5t240 -233.5v-66q-88 -121 -240.5 -235t-293.5 -166l-39 105q31 11 53 20q161 62 351 253h-2010z" />
<glyph unicode="&#x100d9;" horiz-adv-x="2522" d="M112 -317v917q0 9 171 683l109 -27l-14 -55q-154 -605 -154 -608v-854h1770v213h-1513l-56 56v149q0 3 1 9l156 994l55 47h1413l56 -56v-1468l-56 -56h-1882zM227 1425v112h2127l56 -56v-1854h-112v1798h-2071zM537 64h1457v1031h-1309l-148 -942v-89z" />
<glyph unicode="&#x100da;" horiz-adv-x="2576" d="M112 1286l111 15q37 -280 141 -588q144 -424 303 -459q46 -10 181 -23q184 -18 360 -113l-53 -99q-17 9 -50 27q-85 42 -175 59q-122 15 -244 31q-128 24 -215 115q-116 121 -231 490q-97 308 -128 545zM465 795q0 49 55 128l95 -59q-38 -51 -38 -69q0 -20 17 -36 q544 -145 1536 -479l-36 -106l-53 18q-794 270 -1342 422q-49 12 -146 40q-13 6 -19 9q-69 51 -69 132zM1309 0v112h1155v-112h-1155z" />
<glyph unicode="&#x100db;" horiz-adv-x="2218" d="M112 -373v1769l56 56h1331q3 6 3 29l56 56h492l56 -56v-456l-56 -56h-40v-1342h-112v1342h-106v-1342h-112v1342h-1235v-1342h-112v1342h-109v-1342h-112zM224 1081h1770v344h-387q-24 -85 -108 -85h-1275v-259z" />
<glyph unicode="&#x100dc;" horiz-adv-x="2349" d="M112 415v667h112v-277h207q280 205 280 402q0 90 -77 250l81 71q154 -101 220 -137q146 -78 239 -78q133 0 460 215l81 -71q-77 -160 -77 -250q0 -197 280 -402h207v277h112v-667h-112v278h-184q-57 -184 -57 -320q0 -192 121 -429q96 -188 96 -218q0 -44 -32 -71.5 t-76 -27.5q-14 0 -44 9q-469 143 -775 143q-198 0 -355 -32q-145 -39 -435 -116q-16 -4 -28 -4q-44 0 -76.5 27.5t-32.5 71.5q0 33 96 217q122 234 122 430q0 136 -57 320h-184v-278h-112zM369 -257q153 46 461 120q151 28 344 28q332 0 806 -148q-119 231 -146 301 q-62 160 -62 329q0 155 62 355q-308 233 -308 479q0 57 23 133q-229 -139 -375 -139q-145 0 -374 139q23 -76 23 -133q0 -246 -308 -479q62 -200 62 -355q0 -166 -62 -329q-34 -90 -146 -301zM861 -68v579l56 56h40q51 255 400 449l54 -98q-103 -57 -181 -125 q90 -76 156 -226h46l56 -56v-579h-112v523h-146v-523h-112v523h-145v-523h-112zM1072 567h191q-44 84 -114 144q-57 -70 -77 -144z" />
<glyph unicode="&#x100dd;" horiz-adv-x="2134" d="M112 582v638h112v-638q0 -300 189 -532l598 555v686h112v-686l597 -556q190 233 190 533v638h112v-638q0 -395 -280 -675t-675 -280t-675 280t-280 675zM490 -32q220 -207 521 -227v711zM1123 -259q301 20 521 226l-521 485v-711z" />
<glyph unicode="&#x100de;" horiz-adv-x="2517" d="M112 92q0 66 53 124.5t119 58.5h1948q66 0 119.5 -58.5t53.5 -124.5q0 -92 -87 -154q-78 -56 -174 -56q-89 0 -189 79q-316 -334 -444 -334h-506q-128 0 -443 334q-100 -79 -189 -79q-96 0 -174 56q-87 62 -87 154zM224 92q0 -43 55 -73q47 -25 94 -25q51 0 118 53 q-42 57 -76 116h-131q-19 0 -39.5 -26t-20.5 -45zM546 163q43 -65 76 -103q74 -84 184 -184q150 -137 199 -137h506q49 0 199 136q111 101 185 185q33 38 76 103h-1425zM2026 47q67 -53 118 -53q47 0 94 25q55 30 55 73q0 19 -21 45t-40 26h-130q-34 -59 -76 -116z" />
<glyph unicode="&#x100df;" horiz-adv-x="2472" d="M112 26q0 49 45 131q44 79 108 147h-25l-56 56v429l56 56h228l56 -56v-373h1424v373l56 56h228l56 -56v-429l-56 -56h-25q64 -68 108 -147q45 -82 45 -131q0 -85 -71 -142q-67 -53 -154 -53h-619q-18 0 -38 -23t-20 -42q0 -17 1 -27h122v-112h-690v112h121q2 19 2 27 q0 19 -20 42t-38 23h-619q-87 0 -154 53q-71 57 -71 142zM224 26q0 -36 40 -61q35 -22 73 -22h619q65 0 117.5 -56t52.5 -121q0 -15 -1 -27h222q-1 12 -1 27q0 65 52.5 121t117.5 56h619q38 0 73 22q40 25 40 61q0 47 -88 161q-91 117 -134 117h-1580q-43 0 -132.5 -115.5 t-89.5 -162.5zM296 416h116v317h-116v-317zM2060 416h116v317h-116v-317z" />
<glyph unicode="&#x100e0;" horiz-adv-x="1948" d="M112 1329q0 77 30 136q38 72 108 72q73 0 112 -72q32 -59 32 -139q0 -71 -45 -147h1250q-44 75 -44 147q0 80 32 139q40 72 113 72q70 0 107 -73q29 -57 29 -135q0 -122 -87 -208q4 -26 4 -46q0 -232 -236 -504q54 -75 54 -169q0 -116 -83 -187v-588h-112v590 q-75 70 -88 176q-83 -39 -179 -55q6 -39 6 -75q0 -114 -85 -191v-445h-112v445q-84 76 -84 191q0 36 6 75q-94 16 -179 56q-13 -106 -89 -177v-590h-112v588q-82 70 -82 187q0 94 54 169q-98 112 -162 238q-74 148 -74 266q0 24 3 46q-87 85 -87 208zM224 1329q0 -50 27 -95 q31 52 31 92q0 98 -33 98q-25 -25 -25 -95zM308 1067q4 -105 82 -244q67 -118 156 -210q168 -174 428 -174q264 0 429 173q88 93 155 211q79 140 83 244h-1333zM490 402q0 -47 25 -82q36 46 36 115q0 9 -1 25q-23 17 -38 30q-22 -38 -22 -88zM946 263q0 -52 28 -88 q29 37 29 88q0 27 -6 64q-22 -1 -45 0q-6 -37 -6 -64zM1397 435q0 -69 36 -115q26 36 26 82q0 50 -22 88q-17 -15 -39 -31q-1 -13 -1 -24zM1667 1326q0 -41 30 -92q27 45 27 95q0 72 -24 96q-33 -2 -33 -99z" />
<glyph unicode="&#x100e1;" horiz-adv-x="1771" d="M112 772q0 80 35 190l33 35q217 82 217 316q0 66 1 112h-180v112h1335v-112h-180q1 -66 1 -112q0 -234 217 -316l33 -35q35 -110 35 -190q0 -427 -516 -1122l-45 -23h-426l-45 23q-515 694 -515 1122zM224 772q0 -383 476 -1033h370q477 651 477 1033q0 56 -22 131 q-263 116 -263 410q0 46 -1 112h-750q-2 -88 -2 -112q0 -294 -263 -410q-22 -75 -22 -131z" />
<glyph unicode="&#x100e2;" horiz-adv-x="2341" d="M112 1239q0 292 190 292q104 0 153 -101q38 -78 38 -194q0 -113 -62 -233q29 -30 46 -45q75 130 302 266q9 5 25 17v13q-50 27 -99 54.5t-49 99.5q0 54 36.5 91.5t90.5 37.5h775q54 0 90.5 -37.5t36.5 -91.5q0 -62 -38 -93q-17 -15 -70 -35q-39 -14 -41 -34 q56 -60 188 -146q109 -71 147 -136q22 20 41 39q-64 122 -64 233q0 116 38 194q50 101 154 101q189 0 189 -292q0 -181 -98 -264q-90 -76 -219 -135q6 -41 6 -87q0 -193 -180 -570q-150 -314 -307 -533l-45 -23h-431l-45 23q-157 219 -307 533q-180 377 -180 570q0 42 9 86 q-131 60 -222 136q-98 83 -98 264zM224 1239q0 -84 15 -119q18 -43 81 -87q61 111 61 203q0 183 -79 183q-78 0 -78 -180zM535 753q0 -170 169 -522q137 -286 280 -492h373q143 206 280 492q169 352 169 522q0 112 -71 197q-49 59 -165 135q-31 18 -89 58q-57 44 -57 103 q0 71 49 99.5t99 55.5q1 2 1 7q0 17 -15 17h-775q-16 0 -15 -17l4 -10q49 -26 97 -53t48 -99q0 -61 -59 -105l-110 -66q-213 -140 -213 -322zM1960 1236q0 -90 62 -202q63 43 81 87q14 35 14 118q0 180 -77 180q-80 0 -80 -183z" />
<glyph unicode="&#x100e3;" horiz-adv-x="1564" d="M112 723q237 119 330 261q-228 133 -228 331q0 104 72 165q68 57 174 57h797v-112h-143v-256q0 -57 -77 -122q176 -63 283 -165q132 -125 132 -289q0 -120 -154 -317q-166 -211 -185 -322q-7 -79 -14 -157q-10 -93 -51 -148l-45 -22h-228l-45 22q-41 55 -58 210 q-19 166 -69 250q-85 115 -171 230q-106 146 -106 254q0 77 29 145q-81 -59 -192 -115zM326 1315q0 -148 218 -259l25 -73q-3 -8 -11 -24q81 52 184 88q-78 66 -78 122v256h-204q-134 0 -134 -110zM438 593q0 -76 154 -279q164 -215 185 -342q3 -19 9 -118q4 -73 21 -115 h164q23 54 28 164q6 139 81 264l154 208q106 144 106 218q0 146 -154 254q-119 84 -288 124h-18q-169 -39 -288 -124q-154 -108 -154 -254zM776 1174q32 -50 113 -96q81 46 113 96v251h-226v-251z" />
<glyph unicode="&#x100e4;" horiz-adv-x="1458" d="M112 1329q0 208 181 208h879v-112h-155v-274l-29 -49l-38 -22q153 -48 236.5 -129t140.5 -232q19 -51 19 -81q0 -29 -50 -136q-213 -456 -294 -831l-55 -44h-285l-55 44q-47 215 -126 415q-75 168 -208 511q-9 27 -9 41q0 43 44.5 144t107.5 164q-148 106 -204 165 q-100 106 -100 218zM224 1329q0 -76 98 -169q52 -49 186 -144q63 36 151 64l-38 22l-29 49v274h-299q-69 0 -69 -96zM378 634q0 -5 37 -85q209 -453 292 -810h195q70 301 318 866q7 15 14 33q0 21 -36 99q-43 93 -103 145q-41 36 -98 60q-57 20 -115 39q-69 31 -69 81 q0 68 92 122v241h-201v-241q92 -54 92 -122q0 -47 -49 -71q0 -1 -89 -31q-52 -18 -88 -39q-124 -73 -183 -241q-9 -26 -9 -46z" />
<glyph unicode="&#x100e5;" horiz-adv-x="1694" d="M112 632q0 123 175 295q-62 84 -124 167q-51 82 -51 207q0 236 206 236h920v-112h-119v-249l-23 -45q-52 -35 -74 -62q41 -18 121 -60q51 -32 87 -70q19 3 76 25q48 17 79 17q87 0 142 -57.5t55 -145.5q0 -156 -215 -270q-11 -195 -131 -446q-62 -128 -230 -408l-48 -27 h-232l-48 27q-149 247 -209 368q-112 226 -141 404q-29 -4 -44 -4q-68 0 -122 72q-50 67 -50 138zM224 632q0 -21 20 -58q21 -40 40 -40q16 0 33 2v15q0 196 85 315q77 108 260 202q-24 29 -74 63l-23 45v249h-247q-59 0 -79 -36q-15 -26 -15 -88q0 -103 64 -193l120 -164 l-13 -70q-52 -45 -105 -112q-66 -85 -66 -130zM429 551q0 -179 113 -423q62 -134 216 -389h168q156 258 217 389q113 244 113 423q0 186 -92 290q-48 54 -171 116q-92 47 -92 94q0 80 106 154v220h-330v-220q106 -74 106 -154q0 -46 -92 -93q-122 -63 -170 -117 q-92 -104 -92 -290zM1296 847q53 -95 67 -213q107 67 107 144q0 91 -85 91q-31 0 -89 -22z" />
<glyph unicode="&#x100e6;" horiz-adv-x="1697" d="M112 545q0 173 84 295q90 130 252 162l5 1q-86 66 -153 142q-88 101 -88 165q0 88 51 155q55 72 141 72h891q86 0 142 -72q51 -67 51 -155q0 -65 -89 -166q-68 -76 -154 -142q130 -29 214 -116q126 -130 126 -341q0 -208 -184 -342q85 -71 85 -158v-418h-112v418 q0 24 -29.5 57t-53.5 36q-130 -61 -292 -84l-96 -375h-108l-96 375q-162 23 -292 84q-24 -2 -53.5 -35.5t-29.5 -57.5v-418h-112v418q0 87 84 158q-184 134 -184 342zM224 545q0 -195 227 -304q179 -86 398 -86t398 86q226 109 226 304q0 226 -157 310q-76 40 -291 65 q-157 18 -157 84q0 105 38 199q1 4 45 86q31 60 31 85q0 20 -10 51h-248q-9 -29 -9 -51q0 -25 31 -85q44 -82 45 -86q38 -94 38 -199q0 -66 -157 -84q-215 -25 -291 -65q-157 -84 -157 -310zM324 1310q0 -34 98 -129q85 -82 134 -114l24 -44q46 4 136 16q-5 79 -60 184 q-53 101 -53 151q0 23 6 51h-205q-38 0 -61 -41q-19 -34 -19 -74zM817 43l32 -123l32 123q-32 -1 -64 0zM981 1039q32 -5 137 -17l25 45q49 31 134 114q99 95 99 129q0 40 -20 74q-23 41 -61 41h-207q6 -27 6 -51q0 -50 -53 -151q-55 -105 -60 -184z" />
<glyph unicode="&#x100e7;" horiz-adv-x="2521" d="M112 860l92 65q116 -167 202 -207q42 -1 55 -1h1652q86 39 205 208l91 -65q-180 -255 -296 -255h-42q-143 -157 -143 -247q0 -67 168 -349l-54 -85q-121 14 -229 14q-151 0 -222 -56q-75 -60 -97 -207l-55 -48h-358l-55 48q-22 147 -97 207q-71 56 -222 56 q-108 0 -229 -14l-54 85q169 284 169 349q0 90 -143 247h-43q-115 0 -295 255zM576 46q61 4 131 4q354 0 421 -311h264q67 311 421 311q71 0 132 -4q-129 225 -129 312q0 110 108 247h-1327q108 -137 108 -247q0 -89 -129 -312z" />
<glyph unicode="&#x100e8;" horiz-adv-x="1670" d="M112 1329q0 79 36 138q42 70 116 70h1142q74 0 116 -70q36 -59 36 -138q0 -142 -44 -216q-33 -55 -155 -156q-140 -116 -140 -184q0 -31 60 -147t60 -186q0 -89 -110 -374t-170 -350q-82 -89 -224 -89t-224 89q-60 65 -170 350t-110 374q0 70 60 186t60 147q0 67 -88 139 q-133 108 -163 145q-88 110 -88 272zM224 1329q0 -117 51 -188q26 -37 116 -106q86 -67 129 -132q48 76 115 126q-85 65 -85 143v253h-286q-40 0 -40 -96zM443 440q0 -69 104.5 -337.5t151 -316t136.5 -47.5t136.5 47.5t151 316t104.5 337.5q0 43 -32 110l-54 104 q-1 2 -29 80q-54 150 -209 247v94q106 63 106 97v253h-347v-253q0 -34 106 -97v-94q-153 -96 -211 -252q-9 -27 -30 -79q-26 -51 -53 -102q-31 -65 -31 -108zM1035 1029q69 -51 114 -122q34 48 137 128q97 75 130 132q30 52 30 162q0 96 -40 96h-285v-253q0 -78 -86 -143z " />
<glyph unicode="&#x100e9;" horiz-adv-x="2169" d="M112 1332q0 71 49 135q53 70 121 70h1171q68 0 121 -70q49 -64 49 -135q0 -149 -239 -335q95 -77 131 -216q139 98 187 220q38 98 181 98q174 0 174 -99q0 -23 -8 -47q-49 -150 -195 -240q-136 -83 -301 -83h-18v-12q0 -228 -75 -486q-86 -298 -224 -426 q-85 -79 -368 -79t-368 79q-138 128 -225 426q-75 258 -75 486q0 254 150 379q-238 186 -238 335zM224 1332q0 -67 92 -158q40 -40 152 -127q139 53 139 103v275h-325q-19 0 -39 -38q-19 -34 -19 -55zM312 618q0 -204 67 -442q78 -279 199 -390q51 -47 290 -47t290 47 q121 111 199 390q66 238 66 442q0 200 -111 294q-301 88 -301 238v275h-292v-275q0 -147 -288 -234q-68 -62 -93.5 -126t-25.5 -172zM1123 1150q0 -52 141 -105q113 88 154 128q93 92 93 159q0 21 -19 55q-20 38 -39 38h-330v-275zM1658 753q96 21 172 80q81 64 111 151 q-15 3 -44 3q-58 0 -84 -9q-6 -19 -20 -55q-37 -82 -135 -170z" />
<glyph unicode="&#x100ea;" horiz-adv-x="2539" d="M112 742q0 88 49 155q54 75 138 75h315v69h-112v112h1536v-112h-112v-69h314q84 0 138 -75q49 -67 49 -155q0 -84 -48 -153q-54 -76 -134 -76h-152q10 -59 10 -125q0 -220 -92 -401q-101 -201 -286 -288q-152 -72 -455 -72t-455 72q-185 87 -286 288q-92 181 -92 401 q0 71 9 125h-151q-80 0 -134 76q-49 69 -49 153zM224 742q0 -33 19 -72q22 -45 52 -45h183q56 130 213 229q-2 2 -8 6h-384q-35 0 -57 -44q-18 -36 -18 -74zM549 388q0 -186 75 -341q84 -173 239 -246q132 -62 407 -62h34v499h-229v-113h-112v614h112v-98h431v-112h-431 v-179h285l56 -56v-549q171 14 261 56q155 73 239 246q75 155 75 341q0 143 -51 228q-47 78 -173 158q-46 29 -46 61q0 77 93 131v75h-1088v-75q92 -53 92 -131q0 -32 -41 -59q-133 -89 -177 -157q-51 -81 -51 -231zM1848 854q157 -100 213 -229h184q30 0 52 46q18 38 18 71 q0 38 -18 74q-22 44 -57 44h-383z" />
<glyph unicode="&#x100eb;" horiz-adv-x="2706" d="M112 736q0 260 440 335q-48 86 -74 139q-30 61 -30 92v179l56 56h1698l56 -56v-179q0 -50 -102 -231q438 -75 438 -335q0 -149 -134 -243q-119 -83 -275 -83q-162 0 -341 101q-151 -305 -151 -474v-298h196v-112h-1072v112h196v298q0 168 -151 474q-178 -101 -340 -101 q-156 0 -276 83q-134 94 -134 243zM224 736q0 -100 103 -161q88 -53 195 -53q134 0 289 89q-50 94 -200 356q-387 -55 -387 -231zM560 1302q0 -27 146 -279q185 -317 273 -503q146 -312 146 -483v-298h456v298q0 214 213 623q167 301 334 603q11 22 18 39v123h-1586v-123z M1895 611q155 -89 290 -89q106 0 194 53q103 61 103 161q0 176 -385 231q-68 -116 -202 -356z" />
<glyph unicode="&#x100ec;" horiz-adv-x="2461" d="M112 306l44 91h2150l43 -91q-271 -336 -480 -480q-286 -199 -638 -199t-639 199q-209 144 -480 480zM274 285q228 -271 416 -390q243 -156 541 -156t541 156q187 119 415 390h-1913z" />
<glyph unicode="&#x100ed;" horiz-adv-x="2721" d="M112 1342q0 87 60 141t148 54h319l40 -17q46 -47 91 -80h1180q45 33 91 80l40 17h319q88 0 148.5 -54t60.5 -141q0 -81 -47 -136q-50 -58 -130 -58h-408v-32q109 -79 150 -137q54 -77 54 -193q0 -134 -67 -250q-72 -108 -143 -216q-145 -242 -278 -654l-53 -39h-654 l-53 39q-131 408 -279 654l-142 216q-67 116 -67 250q0 116 54 193q41 58 150 137v32h-408q-80 0 -129 58q-47 55 -47 136zM224 1342q0 -82 64 -82h408v95q-34 25 -80 70h-296q-96 0 -96 -83zM604 786q0 -109 65 -219q64 -95 128 -191q147 -242 277 -637h572 q130 398 276 637q64 96 128 191q66 110 66 219q0 92 -53 153q-26 31 -128 104l-23 45v240h-1104v-240l-23 -45q-102 -73 -128 -104q-53 -61 -53 -153zM2024 1260h408q65 0 65 82q0 83 -97 83h-296q-46 -45 -80 -70v-95z" />
<glyph unicode="&#x100ee;" horiz-adv-x="2760" d="M112 1229q0 146 104 230q97 78 246 78q152 0 241 -150h1354q89 150 240 150q149 0 246 -78q105 -84 105 -230q0 -252 -232 -252q-77 0 -133 37q-37 23 -102 95q-328 -361 -619 -664v-355q71 -65 129 -151q72 -107 72 -179v-77l-56 -56h-655l-56 56v77q0 72 73 179 q58 86 129 151v355q-296 308 -619 664q-66 -72 -102 -95q-56 -37 -133 -37q-232 0 -232 252zM224 1229q0 -75 20 -103q25 -37 100 -37q56 0 111 49q42 47 85 93l82 -1q375 -415 672 -723l16 -39v-404l-22 -44q-49 -39 -110 -120q-70 -94 -70 -140v-21h543v21q0 46 -70 140 q-61 82 -109 120l-22 44v404l16 39q314 326 673 723l82 1q42 -46 85 -93q53 -49 110 -49q75 0 100 37q20 28 20 103q0 98 -73 150q-64 46 -166 46q-61 0 -98 -34q-24 -22 -61 -88l-49 -28h-1418l-49 28q-36 66 -61 88q-38 34 -99 34q-102 0 -166 -46q-72 -52 -72 -150z" />
<glyph unicode="&#x100ef;" horiz-adv-x="1370" d="M112 1465q0 72 100 72h945q101 0 101 -72q0 -19 -12 -40l-62 -92q-43 -67 -43 -93v-453q0 -121 -344 -345v-407q83 -50 160 -142q88 -105 88 -178q0 -36 -22 -62t-57 -26h-562q-35 0 -57 26t-22 62q0 73 88 178q77 92 160 142v407q-345 224 -345 345v453q0 32 -58 115 t-58 110zM257 1425q83 -121 83 -185v-453q28 -85 319 -267l26 -47l26 47q80 50 171 120q132 102 147 147v453q0 65 83 185h-855zM443 -261h484q-22 50 -90 121q-71 72 -115 89l-37 52l-36 -52q-45 -17 -114.5 -88.5t-91.5 -121.5z" />
<glyph unicode="&#x100f0;" horiz-adv-x="1355" d="M112 166q0 138 20 213q27 98 105 191q36 39 107 117q85 99 85 252v486h-118v112h734v-112h-120v-486q0 -147 82 -246l154 -176q82 -130 82 -351q0 -265 -222 -427h24v-112h-734v112h23q-222 162 -222 427zM224 166q0 -180 138 -305q133 -122 315 -122t316 122 q138 125 138 305q0 198 -82 314q-76 86 -153 171q-82 108 -83 284h-272q-1 -177 -83 -284q-76 -86 -152 -171q-82 -116 -82 -314zM541 1047h272v378h-272v-378z" />
<glyph unicode="&#x100f1;" horiz-adv-x="2597" d="M112 146v265q0 80 92.5 177t92.5 166q0 71 -92.5 168t-92.5 177v264h112v-264q0 -36 80 -120h608q-64 233 -136 446h-136v112h1845v-112h-135q-285 -835 -375 -1748l-56 -50h-711l-56 50q-43 440 -129 847h-726q-73 -76 -73 -113v-265h-112zM382 636h136v231h-133 q24 -53 24 -113q0 -63 -27 -118zM630 636h368q-26 117 -56 231h-312v-231zM894 1425q275 -827 364 -1686h610q89 859 364 1686h-1338z" />
<glyph unicode="&#x100f2;" horiz-adv-x="2164" d="M112 1057q0 480 218 480q220 0 220 -480q0 -246 -61 -369h1186q-59 120 -59 369q0 480 218 480t218 -480q0 -281 -75 -398l27 -27v-949l-56 -56h-1732l-56 56v949l27 27q-75 117 -75 398zM224 1057q0 -369 106 -369q64 0 91 157q17 95 17 212q0 116 -17 211 q-27 157 -91 157q-106 0 -106 -368zM272 -261h1620v837h-1620v-837zM1728 1057q0 -369 106 -369t106 369q0 368 -106 368t-106 -368z" />
<glyph unicode="&#x100f3;" horiz-adv-x="2524" d="M112 523q0 97 98 167q89 64 190 64q97 0 177 -62q85 -67 85 -162q0 -80 -86 -130v-68h1836v-112h-133q-124 -112 -124 -200q0 -62 103 -133l-1 -93q-118 -77 -170 -77h-456q-20 0 -94 -74l-40 -16h-168l-40 16q-74 74 -94 74h-456q-52 0 -170 77l-1 93q103 71 103 133 q0 89 -124 200h-27l-56 56v160l42 54q44 13 44 40q0 47 -53 81q-48 31 -97 31q-51 0 -110 -34q-66 -38 -66 -85q0 -44 93 -129t93 -161q0 -75 -52.5 -128.5t-127.5 -53.5q-38 0 -88 -2l-4 112q51 2 92 2q68 0 68 70q0 23 -93 112.5t-93 177.5zM699 -153q33 -18 40 -18h456 q65 0 157 -90h122q92 90 157 90l459 1q6 0 37 17q-84 76 -84 173q0 101 81 200h-1422q81 -99 81 -200q0 -97 -84 -173z" />
<glyph unicode="&#x100f4;" horiz-adv-x="2014" d="M112 872v609l56 56h1678l56 -56v-609q0 -55 -294 -664q-238 -493 -396 -551q-82 -30 -205 -30q-174 0 -267 67q-73 52 -175 217q-92 148 -212 396q-132 273 -226 511q-15 38 -15 54zM224 878q0 1 9 -25q42 -121 273 -597q217 -449 334 -493q64 -24 167 -24q142 0 213 54 q47 37 134 177q144 233 401 822q12 28 35 86v547h-1566v-547z" />
<glyph unicode="&#x100f5;" horiz-adv-x="2500" d="M112 173h112v-118h108q74 132 176 132h226q-129 94 -211 256l50 81h414q-108 124 -108 246q0 56 48 141q51 92 57 138q-20 26 -61 83q-43 -68 -109 -123q-74 -61 -139 -70l-55 -8l-16 110l55 8q65 9 146 110q-175 86 -175 207q0 67 60 119t128 52q71 0 133 -46 q66 -50 66 -119q0 -12 -1 -29h293l225 217l78 -80l-224 -217v-46q0 -33 -38 -87q-30 -41 -60 -81q6 -46 57 -138q47 -85 47 -141q0 -123 -108 -246h408l52 -78q-69 -162 -202 -259h243q102 0 175 -132h111v118h112v-533h-112v118h-107q-74 -131 -176 -131h-1278 q-102 0 -176 131h-112v-118h-112v533zM224 -57v-73h87v73h-87zM423 -13v-152q43 -96 89 -96h1278q41 0 85 87v152q-43 97 -88 97h-1279q-41 0 -85 -88zM671 412q129 -188 352 -225h229q234 38 350 225h-350l97 -143l-93 -63l-120 177l-119 -177l-93 63l97 143h-350z M742 1366q0 -51 104 -103q59 47 59 109q0 19 -35 37q-31 16 -52 16t-48.5 -19.5t-27.5 -39.5zM991 770q0 -33 18 -75q16 -37 53 -85q46 -59 74 -59t74 59q38 48 54 85q18 42 18 75q0 30 -52.5 129.5t-52.5 157.5q0 31 40 85q55 72 59 81v8h-278v-8q4 -9 59 -81 q40 -54 40 -85q0 -58 -53 -158t-53 -129zM1742 827v628l56 56h224l56 -56v-348h254l56 -56v-224l-56 -56h-534zM1854 883h422v112h-254l-56 56v348h-112v-516zM1987 -57v-73h86v73h-86z" />
<glyph unicode="&#x100f6;" horiz-adv-x="2580" d="M112 -163l32 46q107 154 139 217q40 80 84 244q18 67 107 188q72 97 75 231l14 36q114 124 227 247q128 149 180 281q25 76 78 226l105 -39q-72 -196 -85 -229q-45 -108 -105 -196h110q98 123 144 238q25 76 77 226l105 -39q-75 -205 -85 -229q-44 -108 -104 -196h509 q21 0 96.5 -45.5t117.5 -45.5q7 0 21.5 3t21.5 3q55 0 160 -81q332 -255 332 -493q0 -211 -195 -290l-42 104q73 29 99 68t26 118q0 108 -124 253q-104 121 -220 192q-28 17 -36 17q-7 0 -21.5 -3t-21.5 -3q-76 0 -227 91h-581q-73 -79 -217 -237q-6 -108 -54 -197 q-55 -84 -110 -169q-20 -32 -34 -102q-18 -87 -26 -109q-41 -113 -137 -253q42 1 166 5q105 3 167 3q481 0 891 -154q10 -4 29 -11q1 43 1 59q0 155 -23 206l-2 42q31 88 121 120q13 4 23 6q53 5 105 9q57 12 57 66q0 10 -2 23l-1 6q-14 14 -48 37l66 90q54 -39 67 -53 q28 -32 28 -80q0 -201 -256 -210q-37 -15 -47 -33q24 -68 24 -225q0 -89 -4 -138l-63 -51q-44 6 -107 30q-98 37 -104 39q-344 110 -755 110q-65 0 -195.5 -4t-195.5 -4q-104 0 -104 59q0 18 16 41q24 34 72 103q85 129 139 335h-133q-11 -59 -42 -173q-41 -114 -233 -390z M545 448h114q44 62 89 123q46 78 49 192l14 36q55 59 165 178h-99q-73 -79 -217 -237q-5 -94 -37 -165q-19 -40 -78 -127zM1111 588l85 73q61 -72 94 -95q52 -35 128 -35q29 0 142 15l15 -111q-106 -14 -162 -14q-97 0 -171 45q-57 36 -131 122zM1128 799q200 105 304 105 q83 0 177 -56q41 -25 153 -112l-69 -89q-105 82 -121 92q-79 52 -139 52q-76 0 -253 -92z" />
<glyph unicode="&#x100f7;" horiz-adv-x="2521" d="M112 182v112h2245l52 -76q-228 -591 -681 -591q-266 0 -433 159q-139 132 -227 396h-956zM1185 182q73 -211 187 -316q137 -127 356 -127q349 0 545 443h-1088z" />
<glyph unicode="&#x100f8;" horiz-adv-x="1800" d="M112 1044v285q0 94 96 155q84 53 184 53q113 0 191 -55q88 -61 88 -170v-1127h961l56 -56v-12q0 -232 -199 -369q-176 -121 -418 -121q-214 0 -348 79q-164 98 -164 298v1308q0 113 -167 113q-47 0 -102 -24q-66 -30 -66 -72v-285h-112zM671 4q0 -265 400 -265 q179 0 318 79q163 92 184 255h-902v-69z" />
<glyph unicode="&#x100f9;" horiz-adv-x="2895" d="M112 519q0 152 143 210q88 36 273 43l4 -112q-140 -5 -191 -18q-117 -31 -117 -123q0 -143 262 -143q27 0 148 13l11 -111q-138 -14 -159 -14q-152 0 -249 51q-125 66 -125 204zM250 1304l93 61l84 -128h1461q28 0 97 63q67 60 79 91q24 60 70 60q74 0 164 -31 q109 117 237 117q96 0 167 -50q81 -55 81 -147q0 -33 -24 -112l-108 32q20 64 20 80q0 41 -50 65q-40 20 -86 20q-84 0 -164 -92q-9 -198 -189 -319q-161 -108 -371 -108q-29 0 -60 8q-219 -386 -328 -775q-36 -158 -118 -472l-54 -40h-143l-52 36l-194 520 q-115 300 -226 506q-70 130 -386 615zM498 1125q343 -544 495 -952q50 -145 154 -434h62q33 144 106 430q107 379 332 798q45 84 99 158h-1248zM1686 264l27 109q108 -27 170 -27q109 0 177 42q82 51 82 153q0 52 -42 87q-39 32 -93 32q-80 0 -135 -69q-35 -44 -75 -141 l-104 42l21 52q92 228 293 228q100 0 173.5 -66t73.5 -165q0 -151 -114 -234q-101 -73 -257 -73q-77 0 -197 30zM1808 1018h3q169 0 285 74q125 80 154 226q-45 15 -86 19q-24 -57 -118 -132q-98 -78 -156 -80q-42 -46 -82 -107z" />
<glyph unicode="&#x100fa;" horiz-adv-x="2295" d="M112 1079q0 193 133 325.5t327 132.5q187 0 325 -136t138 -322q0 -161 -123 -307l-495 -587l-86 72l304 361q-229 20 -362 119q-161 120 -161 342zM224 1079q0 -336 503 -353q110 131 130 161q66 98 66 192q0 140 -105.5 243t-245.5 103q-147 0 -247.5 -99.5 t-100.5 -246.5zM803 387q0 95 62 177q68 89 159 89h676v-112h-676q-43 0 -78 -57q-31 -51 -31 -97q0 -280 193 -280h375v-112h-375q-161 0 -239 121q-66 101 -66 271zM1552 -251q0 65 66 65q65 0 65 -65q0 -66 -65 -66q-27 0 -46.5 19.5t-19.5 46.5zM1617 112q0 65 66 65 q65 0 65 -65q0 -66 -65 -66q-27 0 -46.5 19.5t-19.5 46.5zM1748 391q0 64 66 64q65 0 65 -64q0 -27 -19 -47t-46 -20t-46.5 20t-19.5 47zM1764 757q0 27 20 46t47 19q64 0 64 -65q0 -66 -64 -66q-27 0 -47 19.5t-20 46.5zM1865 1038q0 65 66 65q65 0 65 -65q0 -66 -65 -66 q-27 0 -46.5 19.5t-19.5 46.5zM2052 1283q0 65 66 65q65 0 65 -65q0 -66 -65 -66q-27 0 -46.5 19.5t-19.5 46.5z" />
<glyph unicode="&#x10100;" horiz-adv-x="336" d="M112 281h112v-723h-112v723z" />
<glyph unicode="&#x10101;" horiz-adv-x="466" d="M112 582q0 50 35.5 85.5t85.5 35.5t85.5 -35.5t35.5 -85.5t-35.5 -85.5t-85.5 -35.5t-85.5 35.5t-35.5 85.5z" />
<glyph unicode="&#x10102;" horiz-adv-x="1138" d="M112 95l386 487l-386 487l88 70l369 -467l370 467l87 -70l-385 -487l385 -487l-87 -70l-370 467l-369 -467z" />
<glyph unicode="&#x10107;" horiz-adv-x="336" d="M112 289v586h112v-586h-112z" />
<glyph unicode="&#x10108;" horiz-adv-x="636" d="M112 289v586h112v-586h-112zM412 289v586h112v-586h-112z" />
<glyph unicode="&#x10109;" horiz-adv-x="936" d="M112 289v586h112v-586h-112zM412 289v586h112v-586h-112zM712 289v586h112v-586h-112z" />
<glyph unicode="&#x1010a;" horiz-adv-x="636" d="M112 -61v586h112v-586h-112zM112 639v586h112v-586h-112zM412 -61v586h112v-586h-112zM412 639v586h112v-586h-112z" />
<glyph unicode="&#x1010b;" horiz-adv-x="936" d="M112 639v586h112v-586h-112zM237 -61v586h112v-586h-112zM412 639v586h112v-586h-112zM537 -61v586h112v-586h-112zM712 639v586h112v-586h-112z" />
<glyph unicode="&#x1010c;" horiz-adv-x="936" d="M112 -61v586h112v-586h-112zM112 639v586h112v-586h-112zM412 -61v586h112v-586h-112zM412 639v586h112v-586h-112zM712 -61v586h112v-586h-112zM712 639v586h112v-586h-112z" />
<glyph unicode="&#x1010d;" d="M112 639v586h112v-586h-112zM237 -61v586h112v-586h-112zM412 639v586h112v-586h-112zM537 -61v586h112v-586h-112zM712 639v586h112v-586h-112zM837 -61v586h112v-586h-112zM1012 639v586h112v-586h-112z" />
<glyph unicode="&#x1010e;" d="M112 -61v586h112v-586h-112zM112 639v586h112v-586h-112zM412 -61v586h112v-586h-112zM412 639v586h112v-586h-112zM712 -61v586h112v-586h-112zM712 639v586h112v-586h-112zM1012 -61v586h112v-586h-112zM1012 639v586h112v-586h-112z" />
<glyph unicode="&#x1010f;" horiz-adv-x="936" d="M112 175h112v-586h-112v586zM112 289v586h112v-586h-112zM112 989v586h112v-586h-112zM412 175h112v-586h-112v586zM412 289v586h112v-586h-112zM412 989v586h112v-586h-112zM712 175h112v-586h-112v586zM712 289v586h112v-586h-112zM712 989v586h112v-586h-112z" />
<glyph unicode="&#x10110;" horiz-adv-x="810" d="M112 526v112h586v-112h-586z" />
<glyph unicode="&#x10111;" horiz-adv-x="810" d="M112 376v112h586v-112h-586zM112 676v112h586v-112h-586z" />
<glyph unicode="&#x10112;" horiz-adv-x="810" d="M112 226v112h586v-112h-586zM112 526v112h586v-112h-586zM112 826v112h586v-112h-586z" />
<glyph unicode="&#x10113;" horiz-adv-x="1510" d="M112 376v112h586v-112h-586zM112 676v112h586v-112h-586zM812 376v112h586v-112h-586zM812 676v112h586v-112h-586z" />
<glyph unicode="&#x10114;" horiz-adv-x="1510" d="M112 226v112h586v-112h-586zM112 526v112h586v-112h-586zM112 826v112h586v-112h-586zM812 376v112h586v-112h-586zM812 676v112h586v-112h-586z" />
<glyph unicode="&#x10115;" horiz-adv-x="1510" d="M112 226v112h586v-112h-586zM112 526v112h586v-112h-586zM112 826v112h586v-112h-586zM812 226v112h586v-112h-586zM812 526v112h586v-112h-586zM812 826v112h586v-112h-586z" />
<glyph unicode="&#x10116;" horiz-adv-x="1510" d="M112 76v112h586v-112h-586zM112 376v112h586v-112h-586zM112 676v112h586v-112h-586zM112 976v112h586v-112h-586zM812 226v112h586v-112h-586zM812 526v112h586v-112h-586zM812 826v112h586v-112h-586z" />
<glyph unicode="&#x10117;" horiz-adv-x="1510" d="M112 76v112h586v-112h-586zM112 376v112h586v-112h-586zM112 676v112h586v-112h-586zM112 976v112h586v-112h-586zM812 76v112h586v-112h-586zM812 376v112h586v-112h-586zM812 676v112h586v-112h-586zM812 976v112h586v-112h-586z" />
<glyph unicode="&#x10118;" horiz-adv-x="2210" d="M112 226v112h586v-112h-586zM112 526v112h586v-112h-586zM112 826v112h586v-112h-586zM812 226v112h586v-112h-586zM812 526v112h586v-112h-586zM812 826v112h586v-112h-586zM1512 226v112h586v-112h-586zM1512 526v112h586v-112h-586zM1512 826v112h586v-112h-586z" />
<glyph unicode="&#x10119;" horiz-adv-x="620" d="M112 582q0 82 58 140t140 58t140 -58t58 -140t-58 -140t-140 -58t-140 58t-58 140zM214 582q0 -40 28 -68t68 -28t68 28t28 68t-28 68t-68 28t-68 -28t-28 -68z" />
<glyph unicode="&#x1011a;" horiz-adv-x="1138" d="M112 582q0 82 58 140t140 58t140 -58t58 -140t-58 -140t-140 -58t-140 58t-58 140zM214 582q0 -40 28 -68t68 -28t68 28t28 68t-28 68t-68 28t-68 -28t-28 -68zM630 582q0 82 58 140t140 58t140 -58t58 -140t-58 -140t-140 -58t-140 58t-58 140zM732 582q0 -40 28 -68 t68 -28t68 28t28 68t-28 68t-68 28t-68 -28t-28 -68z" />
<glyph unicode="&#x1011b;" horiz-adv-x="620" d="M112 64q0 82 58 140t140 58t140 -58t58 -140t-58 -140t-140 -58t-140 58t-58 140zM112 582q0 82 58 140t140 58t140 -58t58 -140t-58 -140t-140 -58t-140 58t-58 140zM112 1100q0 82 58 140t140 58t140 -58t58 -140t-58 -140t-140 -58t-140 58t-58 140zM214 64 q0 -40 28 -68t68 -28t68 28t28 68t-28 68t-68 28t-68 -28t-28 -68zM214 582q0 -40 28 -68t68 -28t68 28t28 68t-28 68t-68 28t-68 -28t-28 -68zM214 1100q0 -40 28 -68t68 -28t68 28t28 68t-28 68t-68 28t-68 -28t-28 -68z" />
<glyph unicode="&#x1011c;" horiz-adv-x="1138" d="M112 323q0 82 58 140t140 58t140 -58t58 -140t-58 -140t-140 -58t-140 58t-58 140zM112 841q0 82 58 140t140 58t140 -58t58 -140t-58 -140t-140 -58t-140 58t-58 140zM214 323q0 -40 28 -68t68 -28t68 28t28 68t-28 68t-68 28t-68 -28t-28 -68zM214 841q0 -40 28 -68 t68 -28t68 28t28 68t-28 68t-68 28t-68 -28t-28 -68zM630 323q0 82 58 140t140 58t140 -58t58 -140t-58 -140t-140 -58t-140 58t-58 140zM630 841q0 82 58 140t140 58t140 -58t58 -140t-58 -140t-140 -58t-140 58t-58 140zM732 323q0 -40 28 -68t68 -28t68 28t28 68t-28 68 t-68 28t-68 -28t-28 -68zM732 841q0 -40 28 -68t68 -28t68 28t28 68t-28 68t-68 28t-68 -28t-28 -68z" />
<glyph unicode="&#x1011d;" horiz-adv-x="1138" d="M112 64q0 82 58 140t140 58t140 -58t58 -140t-58 -140t-140 -58t-140 58t-58 140zM112 582q0 82 58 140t140 58t140 -58t58 -140t-58 -140t-140 -58t-140 58t-58 140zM112 1100q0 82 58 140t140 58t140 -58t58 -140t-58 -140t-140 -58t-140 58t-58 140zM214 64 q0 -40 28 -68t68 -28t68 28t28 68t-28 68t-68 28t-68 -28t-28 -68zM214 582q0 -40 28 -68t68 -28t68 28t28 68t-28 68t-68 28t-68 -28t-28 -68zM214 1100q0 -40 28 -68t68 -28t68 28t28 68t-28 68t-68 28t-68 -28t-28 -68zM630 323q0 82 58 140t140 58t140 -58t58 -140 t-58 -140t-140 -58t-140 58t-58 140zM630 841q0 82 58 140t140 58t140 -58t58 -140t-58 -140t-140 -58t-140 58t-58 140zM732 323q0 -40 28 -68t68 -28t68 28t28 68t-28 68t-68 28t-68 -28t-28 -68zM732 841q0 -40 28 -68t68 -28t68 28t28 68t-28 68t-68 28t-68 -28t-28 -68 z" />
<glyph unicode="&#x1011e;" horiz-adv-x="1138" d="M112 64q0 82 58 140t140 58t140 -58t58 -140t-58 -140t-140 -58t-140 58t-58 140zM112 582q0 82 58 140t140 58t140 -58t58 -140t-58 -140t-140 -58t-140 58t-58 140zM112 1100q0 82 58 140t140 58t140 -58t58 -140t-58 -140t-140 -58t-140 58t-58 140zM214 64 q0 -40 28 -68t68 -28t68 28t28 68t-28 68t-68 28t-68 -28t-28 -68zM214 582q0 -40 28 -68t68 -28t68 28t28 68t-28 68t-68 28t-68 -28t-28 -68zM214 1100q0 -40 28 -68t68 -28t68 28t28 68t-28 68t-68 28t-68 -28t-28 -68zM630 64q0 82 58 140t140 58t140 -58t58 -140 t-58 -140t-140 -58t-140 58t-58 140zM630 582q0 82 58 140t140 58t140 -58t58 -140t-58 -140t-140 -58t-140 58t-58 140zM630 1100q0 82 58 140t140 58t140 -58t58 -140t-58 -140t-140 -58t-140 58t-58 140zM732 64q0 -40 28 -68t68 -28t68 28t28 68t-28 68t-68 28t-68 -28 t-28 -68zM732 582q0 -40 28 -68t68 -28t68 28t28 68t-28 68t-68 28t-68 -28t-28 -68zM732 1100q0 -40 28 -68t68 -28t68 28t28 68t-28 68t-68 28t-68 -28t-28 -68z" />
<glyph unicode="&#x1011f;" horiz-adv-x="1138" d="M112 -195q0 82 58 140t140 58t140 -58t58 -140t-58 -140t-140 -58t-140 58t-58 140zM112 323q0 82 58 140t140 58t140 -58t58 -140t-58 -140t-140 -58t-140 58t-58 140zM112 841q0 82 58 140t140 58t140 -58t58 -140t-58 -140t-140 -58t-140 58t-58 140zM112 1359 q0 82 58 140t140 58t140 -58t58 -140t-58 -140t-140 -58t-140 58t-58 140zM214 -195q0 -40 28 -68t68 -28t68 28t28 68t-28 68t-68 28t-68 -28t-28 -68zM214 323q0 -40 28 -68t68 -28t68 28t28 68t-28 68t-68 28t-68 -28t-28 -68zM214 841q0 -40 28 -68t68 -28t68 28t28 68 t-28 68t-68 28t-68 -28t-28 -68zM214 1359q0 -40 28 -68t68 -28t68 28t28 68t-28 68t-68 28t-68 -28t-28 -68zM630 64q0 82 58 140t140 58t140 -58t58 -140t-58 -140t-140 -58t-140 58t-58 140zM630 582q0 82 58 140t140 58t140 -58t58 -140t-58 -140t-140 -58t-140 58 t-58 140zM630 1100q0 82 58 140t140 58t140 -58t58 -140t-58 -140t-140 -58t-140 58t-58 140zM732 64q0 -40 28 -68t68 -28t68 28t28 68t-28 68t-68 28t-68 -28t-28 -68zM732 582q0 -40 28 -68t68 -28t68 28t28 68t-28 68t-68 28t-68 -28t-28 -68zM732 1100q0 -40 28 -68 t68 -28t68 28t28 68t-28 68t-68 28t-68 -28t-28 -68z" />
<glyph unicode="&#x10120;" horiz-adv-x="1138" d="M112 -195q0 82 58 140t140 58t140 -58t58 -140t-58 -140t-140 -58t-140 58t-58 140zM112 323q0 82 58 140t140 58t140 -58t58 -140t-58 -140t-140 -58t-140 58t-58 140zM112 841q0 82 58 140t140 58t140 -58t58 -140t-58 -140t-140 -58t-140 58t-58 140zM112 1359 q0 82 58 140t140 58t140 -58t58 -140t-58 -140t-140 -58t-140 58t-58 140zM214 -195q0 -40 28 -68t68 -28t68 28t28 68t-28 68t-68 28t-68 -28t-28 -68zM214 323q0 -40 28 -68t68 -28t68 28t28 68t-28 68t-68 28t-68 -28t-28 -68zM214 841q0 -40 28 -68t68 -28t68 28t28 68 t-28 68t-68 28t-68 -28t-28 -68zM214 1359q0 -40 28 -68t68 -28t68 28t28 68t-28 68t-68 28t-68 -28t-28 -68zM630 -195q0 82 58 140t140 58t140 -58t58 -140t-58 -140t-140 -58t-140 58t-58 140zM630 323q0 82 58 140t140 58t140 -58t58 -140t-58 -140t-140 -58t-140 58 t-58 140zM630 841q0 82 58 140t140 58t140 -58t58 -140t-58 -140t-140 -58t-140 58t-58 140zM630 1359q0 82 58 140t140 58t140 -58t58 -140t-58 -140t-140 -58t-140 58t-58 140zM732 -195q0 -40 28 -68t68 -28t68 28t28 68t-28 68t-68 28t-68 -28t-28 -68zM732 323 q0 -40 28 -68t68 -28t68 28t28 68t-28 68t-68 28t-68 -28t-28 -68zM732 841q0 -40 28 -68t68 -28t68 28t28 68t-28 68t-68 28t-68 -28t-28 -68zM732 1359q0 -40 28 -68t68 -28t68 28t28 68t-28 68t-68 28t-68 -28t-28 -68z" />
<glyph unicode="&#x10121;" horiz-adv-x="1656" d="M112 64q0 82 58 140t140 58t140 -58t58 -140t-58 -140t-140 -58t-140 58t-58 140zM112 582q0 82 58 140t140 58t140 -58t58 -140t-58 -140t-140 -58t-140 58t-58 140zM112 1100q0 82 58 140t140 58t140 -58t58 -140t-58 -140t-140 -58t-140 58t-58 140zM214 64 q0 -40 28 -68t68 -28t68 28t28 68t-28 68t-68 28t-68 -28t-28 -68zM214 582q0 -40 28 -68t68 -28t68 28t28 68t-28 68t-68 28t-68 -28t-28 -68zM214 1100q0 -40 28 -68t68 -28t68 28t28 68t-28 68t-68 28t-68 -28t-28 -68zM630 64q0 82 58 140t140 58t140 -58t58 -140 t-58 -140t-140 -58t-140 58t-58 140zM630 582q0 82 58 140t140 58t140 -58t58 -140t-58 -140t-140 -58t-140 58t-58 140zM630 1100q0 82 58 140t140 58t140 -58t58 -140t-58 -140t-140 -58t-140 58t-58 140zM732 64q0 -40 28 -68t68 -28t68 28t28 68t-28 68t-68 28t-68 -28 t-28 -68zM732 582q0 -40 28 -68t68 -28t68 28t28 68t-28 68t-68 28t-68 -28t-28 -68zM732 1100q0 -40 28 -68t68 -28t68 28t28 68t-28 68t-68 28t-68 -28t-28 -68zM1148 64q0 82 58 140t140 58t140 -58t58 -140t-58 -140t-140 -58t-140 58t-58 140zM1148 582q0 82 58 140 t140 58t140 -58t58 -140t-58 -140t-140 -58t-140 58t-58 140zM1148 1100q0 82 58 140t140 58t140 -58t58 -140t-58 -140t-140 -58t-140 58t-58 140zM1250 64q0 -40 28 -68t68 -28t68 28t28 68t-28 68t-68 28t-68 -28t-28 -68zM1250 582q0 -40 28 -68t68 -28t68 28t28 68 t-28 68t-68 28t-68 -28t-28 -68zM1250 1100q0 -40 28 -68t68 -28t68 28t28 68t-28 68t-68 28t-68 -28t-28 -68z" />
<glyph unicode="&#x10122;" horiz-adv-x="718" d="M112 536v92h54q28 119 147 147v54h92v-54q119 -28 147 -147h54v-92h-54q-28 -119 -147 -147v-54h-92v54q-119 28 -147 147h-54zM263 582q0 -40 28 -68t68 -28t68 28t28 68t-28 68t-68 28t-68 -28t-28 -68z" />
<glyph unicode="&#x10123;" d="M112 536v92h54q28 119 147 147v54h92v-54q119 -28 147 -147h54v-92h-54q-28 -119 -147 -147v-54h-92v54q-119 28 -147 147h-54zM263 582q0 -40 28 -68t68 -28t68 28t28 68t-28 68t-68 28t-68 -28t-28 -68zM630 536v92h54q28 119 147 147v54h92v-54q119 -28 147 -147h54 v-92h-54q-28 -119 -147 -147v-54h-92v54q-119 28 -147 147h-54zM781 582q0 -40 28 -68t68 -28t68 28t28 68t-28 68t-68 28t-68 -28t-28 -68z" />
<glyph unicode="&#x10124;" horiz-adv-x="718" d="M112 18v92h54q28 119 147 147v54h92v-54q119 -28 147 -147h54v-92h-54q-28 -119 -147 -147v-54h-92v54q-119 28 -147 147h-54zM112 536v92h54q28 119 147 147v54h92v-54q119 -28 147 -147h54v-92h-54q-28 -119 -147 -147v-54h-92v54q-119 28 -147 147h-54zM112 1054v92 h54q28 119 147 147v54h92v-54q119 -28 147 -147h54v-92h-54q-28 -119 -147 -147v-54h-92v54q-119 28 -147 147h-54zM263 64q0 -40 28 -68t68 -28t68 28t28 68t-28 68t-68 28t-68 -28t-28 -68zM263 582q0 -40 28 -68t68 -28t68 28t28 68t-28 68t-68 28t-68 -28t-28 -68z M263 1100q0 -40 28 -68t68 -28t68 28t28 68t-28 68t-68 28t-68 -28t-28 -68z" />
<glyph unicode="&#x10125;" d="M112 277v92h54q28 119 147 147v54h92v-54q119 -28 147 -147h54v-92h-54q-28 -119 -147 -147v-54h-92v54q-119 28 -147 147h-54zM112 795v92h54q28 119 147 147v54h92v-54q119 -28 147 -147h54v-92h-54q-28 -119 -147 -147v-54h-92v54q-119 28 -147 147h-54zM263 323 q0 -40 28 -68t68 -28t68 28t28 68t-28 68t-68 28t-68 -28t-28 -68zM263 841q0 -40 28 -68t68 -28t68 28t28 68t-28 68t-68 28t-68 -28t-28 -68zM630 277v92h54q28 119 147 147v54h92v-54q119 -28 147 -147h54v-92h-54q-28 -119 -147 -147v-54h-92v54q-119 28 -147 147h-54z M630 795v92h54q28 119 147 147v54h92v-54q119 -28 147 -147h54v-92h-54q-28 -119 -147 -147v-54h-92v54q-119 28 -147 147h-54zM781 323q0 -40 28 -68t68 -28t68 28t28 68t-28 68t-68 28t-68 -28t-28 -68zM781 841q0 -40 28 -68t68 -28t68 28t28 68t-28 68t-68 28t-68 -28 t-28 -68z" />
<glyph unicode="&#x10126;" d="M112 18v92h54q28 119 147 147v54h92v-54q119 -28 147 -147h54v-92h-54q-28 -119 -147 -147v-54h-92v54q-119 28 -147 147h-54zM112 536v92h54q28 119 147 147v54h92v-54q119 -28 147 -147h54v-92h-54q-28 -119 -147 -147v-54h-92v54q-119 28 -147 147h-54zM112 1054v92 h54q28 119 147 147v54h92v-54q119 -28 147 -147h54v-92h-54q-28 -119 -147 -147v-54h-92v54q-119 28 -147 147h-54zM263 64q0 -40 28 -68t68 -28t68 28t28 68t-28 68t-68 28t-68 -28t-28 -68zM263 582q0 -40 28 -68t68 -28t68 28t28 68t-28 68t-68 28t-68 -28t-28 -68z M263 1100q0 -40 28 -68t68 -28t68 28t28 68t-28 68t-68 28t-68 -28t-28 -68zM630 277v92h54q28 119 147 147v54h92v-54q119 -28 147 -147h54v-92h-54q-28 -119 -147 -147v-54h-92v54q-119 28 -147 147h-54zM630 795v92h54q28 119 147 147v54h92v-54q119 -28 147 -147h54v-92 h-54q-28 -119 -147 -147v-54h-92v54q-119 28 -147 147h-54zM781 323q0 -40 28 -68t68 -28t68 28t28 68t-28 68t-68 28t-68 -28t-28 -68zM781 841q0 -40 28 -68t68 -28t68 28t28 68t-28 68t-68 28t-68 -28t-28 -68z" />
<glyph unicode="&#x10127;" d="M112 18v92h54q28 119 147 147v54h92v-54q119 -28 147 -147h54v-92h-54q-28 -119 -147 -147v-54h-92v54q-119 28 -147 147h-54zM112 536v92h54q28 119 147 147v54h92v-54q119 -28 147 -147h54v-92h-54q-28 -119 -147 -147v-54h-92v54q-119 28 -147 147h-54zM112 1054v92 h54q28 119 147 147v54h92v-54q119 -28 147 -147h54v-92h-54q-28 -119 -147 -147v-54h-92v54q-119 28 -147 147h-54zM263 64q0 -40 28 -68t68 -28t68 28t28 68t-28 68t-68 28t-68 -28t-28 -68zM263 582q0 -40 28 -68t68 -28t68 28t28 68t-28 68t-68 28t-68 -28t-28 -68z M263 1100q0 -40 28 -68t68 -28t68 28t28 68t-28 68t-68 28t-68 -28t-28 -68zM630 18v92h54q28 119 147 147v54h92v-54q119 -28 147 -147h54v-92h-54q-28 -119 -147 -147v-54h-92v54q-119 28 -147 147h-54zM630 536v92h54q28 119 147 147v54h92v-54q119 -28 147 -147h54v-92 h-54q-28 -119 -147 -147v-54h-92v54q-119 28 -147 147h-54zM630 1054v92h54q28 119 147 147v54h92v-54q119 -28 147 -147h54v-92h-54q-28 -119 -147 -147v-54h-92v54q-119 28 -147 147h-54zM781 64q0 -40 28 -68t68 -28t68 28t28 68t-28 68t-68 28t-68 -28t-28 -68zM781 582 q0 -40 28 -68t68 -28t68 28t28 68t-28 68t-68 28t-68 -28t-28 -68zM781 1100q0 -40 28 -68t68 -28t68 28t28 68t-28 68t-68 28t-68 -28t-28 -68z" />
<glyph unicode="&#x10128;" d="M112 -149h54q28 119 147 147v54h92v-54q119 -28 147 -147h54v-92h-54q-28 -119 -147 -147v-54h-92v54q-119 28 -147 147h-54v92zM112 277v92h54q28 119 147 147v54h92v-54q119 -28 147 -147h54v-92h-54q-28 -119 -147 -147v-54h-92v54q-119 28 -147 147h-54zM112 795v92 h54q28 119 147 147v54h92v-54q119 -28 147 -147h54v-92h-54q-28 -119 -147 -147v-54h-92v54q-119 28 -147 147h-54zM112 1313v92h54q28 119 147 147v54h92v-54q119 -28 147 -147h54v-92h-54q-28 -119 -147 -147v-54h-92v54q-119 28 -147 147h-54zM263 -195q0 -40 28 -68 t68 -28t68 28t28 68t-28 68t-68 28t-68 -28t-28 -68zM263 323q0 -40 28 -68t68 -28t68 28t28 68t-28 68t-68 28t-68 -28t-28 -68zM263 841q0 -40 28 -68t68 -28t68 28t28 68t-28 68t-68 28t-68 -28t-28 -68zM263 1359q0 -40 28 -68t68 -28t68 28t28 68t-28 68t-68 28 t-68 -28t-28 -68zM630 18v92h54q28 119 147 147v54h92v-54q119 -28 147 -147h54v-92h-54q-28 -119 -147 -147v-54h-92v54q-119 28 -147 147h-54zM630 536v92h54q28 119 147 147v54h92v-54q119 -28 147 -147h54v-92h-54q-28 -119 -147 -147v-54h-92v54q-119 28 -147 147h-54z M630 1054v92h54q28 119 147 147v54h92v-54q119 -28 147 -147h54v-92h-54q-28 -119 -147 -147v-54h-92v54q-119 28 -147 147h-54zM781 64q0 -40 28 -68t68 -28t68 28t28 68t-28 68t-68 28t-68 -28t-28 -68zM781 582q0 -40 28 -68t68 -28t68 28t28 68t-28 68t-68 28t-68 -28 t-28 -68zM781 1100q0 -40 28 -68t68 -28t68 28t28 68t-28 68t-68 28t-68 -28t-28 -68z" />
<glyph unicode="&#x10129;" d="M112 -149h54q28 119 147 147v54h92v-54q119 -28 147 -147h54v-92h-54q-28 -119 -147 -147v-54h-92v54q-119 28 -147 147h-54v92zM112 277v92h54q28 119 147 147v54h92v-54q119 -28 147 -147h54v-92h-54q-28 -119 -147 -147v-54h-92v54q-119 28 -147 147h-54zM112 795v92 h54q28 119 147 147v54h92v-54q119 -28 147 -147h54v-92h-54q-28 -119 -147 -147v-54h-92v54q-119 28 -147 147h-54zM112 1313v92h54q28 119 147 147v54h92v-54q119 -28 147 -147h54v-92h-54q-28 -119 -147 -147v-54h-92v54q-119 28 -147 147h-54zM263 -195q0 -40 28 -68 t68 -28t68 28t28 68t-28 68t-68 28t-68 -28t-28 -68zM263 323q0 -40 28 -68t68 -28t68 28t28 68t-28 68t-68 28t-68 -28t-28 -68zM263 841q0 -40 28 -68t68 -28t68 28t28 68t-28 68t-68 28t-68 -28t-28 -68zM263 1359q0 -40 28 -68t68 -28t68 28t28 68t-28 68t-68 28 t-68 -28t-28 -68zM630 -149h54q28 119 147 147v54h92v-54q119 -28 147 -147h54v-92h-54q-28 -119 -147 -147v-54h-92v54q-119 28 -147 147h-54v92zM630 277v92h54q28 119 147 147v54h92v-54q119 -28 147 -147h54v-92h-54q-28 -119 -147 -147v-54h-92v54q-119 28 -147 147 h-54zM630 795v92h54q28 119 147 147v54h92v-54q119 -28 147 -147h54v-92h-54q-28 -119 -147 -147v-54h-92v54q-119 28 -147 147h-54zM630 1313v92h54q28 119 147 147v54h92v-54q119 -28 147 -147h54v-92h-54q-28 -119 -147 -147v-54h-92v54q-119 28 -147 147h-54zM781 -195 q0 -40 28 -68t68 -28t68 28t28 68t-28 68t-68 28t-68 -28t-28 -68zM781 323q0 -40 28 -68t68 -28t68 28t28 68t-28 68t-68 28t-68 -28t-28 -68zM781 841q0 -40 28 -68t68 -28t68 28t28 68t-28 68t-68 28t-68 -28t-28 -68zM781 1359q0 -40 28 -68t68 -28t68 28t28 68t-28 68 t-68 28t-68 -28t-28 -68z" />
<glyph unicode="&#x1012a;" horiz-adv-x="1754" d="M112 18v92h54q28 119 147 147v54h92v-54q119 -28 147 -147h54v-92h-54q-28 -119 -147 -147v-54h-92v54q-119 28 -147 147h-54zM112 536v92h54q28 119 147 147v54h92v-54q119 -28 147 -147h54v-92h-54q-28 -119 -147 -147v-54h-92v54q-119 28 -147 147h-54zM112 1054v92 h54q28 119 147 147v54h92v-54q119 -28 147 -147h54v-92h-54q-28 -119 -147 -147v-54h-92v54q-119 28 -147 147h-54zM263 64q0 -40 28 -68t68 -28t68 28t28 68t-28 68t-68 28t-68 -28t-28 -68zM263 582q0 -40 28 -68t68 -28t68 28t28 68t-28 68t-68 28t-68 -28t-28 -68z M263 1100q0 -40 28 -68t68 -28t68 28t28 68t-28 68t-68 28t-68 -28t-28 -68zM630 18v92h54q28 119 147 147v54h92v-54q119 -28 147 -147h54v-92h-54q-28 -119 -147 -147v-54h-92v54q-119 28 -147 147h-54zM630 536v92h54q28 119 147 147v54h92v-54q119 -28 147 -147h54v-92 h-54q-28 -119 -147 -147v-54h-92v54q-119 28 -147 147h-54zM630 1054v92h54q28 119 147 147v54h92v-54q119 -28 147 -147h54v-92h-54q-28 -119 -147 -147v-54h-92v54q-119 28 -147 147h-54zM781 64q0 -40 28 -68t68 -28t68 28t28 68t-28 68t-68 28t-68 -28t-28 -68zM781 582 q0 -40 28 -68t68 -28t68 28t28 68t-28 68t-68 28t-68 -28t-28 -68zM781 1100q0 -40 28 -68t68 -28t68 28t28 68t-28 68t-68 28t-68 -28t-28 -68zM1148 18v92h54q28 119 147 147v54h92v-54q119 -28 147 -147h54v-92h-54q-28 -119 -147 -147v-54h-92v54q-119 28 -147 147h-54z M1148 536v92h54q28 119 147 147v54h92v-54q119 -28 147 -147h54v-92h-54q-28 -119 -147 -147v-54h-92v54q-119 28 -147 147h-54zM1148 1054v92h54q28 119 147 147v54h92v-54q119 -28 147 -147h54v-92h-54q-28 -119 -147 -147v-54h-92v54q-119 28 -147 147h-54zM1299 64 q0 -40 28 -68t68 -28t68 28t28 68t-28 68t-68 28t-68 -28t-28 -68zM1299 582q0 -40 28 -68t68 -28t68 28t28 68t-28 68t-68 28t-68 -28t-28 -68zM1299 1100q0 -40 28 -68t68 -28t68 28t28 68t-28 68t-68 28t-68 -28t-28 -68z" />
<glyph unicode="&#x1012b;" horiz-adv-x="718" d="M112 536v92h54q28 119 147 147v54h92v-54q119 -28 147 -147h54v-92h-54q-28 -119 -147 -147v-54h-92v54q-119 28 -147 147h-54zM263 582q0 -40 28 -68t68 -28t68 28t28 68t-28 68t-68 28t-68 -28t-28 -68zM313 536v92h92v-92h-92z" />
<glyph unicode="&#x1012c;" d="M112 536v92h54q28 119 147 147v54h92v-54q119 -28 147 -147h54v-92h-54q-28 -119 -147 -147v-54h-92v54q-119 28 -147 147h-54zM263 582q0 -40 28 -68t68 -28t68 28t28 68t-28 68t-68 28t-68 -28t-28 -68zM313 536v92h92v-92h-92zM630 536v92h54q28 119 147 147v54h92 v-54q119 -28 147 -147h54v-92h-54q-28 -119 -147 -147v-54h-92v54q-119 28 -147 147h-54zM781 582q0 -40 28 -68t68 -28t68 28t28 68t-28 68t-68 28t-68 -28t-28 -68zM831 536v92h92v-92h-92z" />
<glyph unicode="&#x1012d;" horiz-adv-x="718" d="M112 18v92h54q28 119 147 147v54h92v-54q119 -28 147 -147h54v-92h-54q-28 -119 -147 -147v-54h-92v54q-119 28 -147 147h-54zM112 536v92h54q28 119 147 147v54h92v-54q119 -28 147 -147h54v-92h-54q-28 -119 -147 -147v-54h-92v54q-119 28 -147 147h-54zM112 1054v92 h54q28 119 147 147v54h92v-54q119 -28 147 -147h54v-92h-54q-28 -119 -147 -147v-54h-92v54q-119 28 -147 147h-54zM263 64q0 -40 28 -68t68 -28t68 28t28 68t-28 68t-68 28t-68 -28t-28 -68zM263 582q0 -40 28 -68t68 -28t68 28t28 68t-28 68t-68 28t-68 -28t-28 -68z M263 1100q0 -40 28 -68t68 -28t68 28t28 68t-28 68t-68 28t-68 -28t-28 -68zM313 18v92h92v-92h-92zM313 536v92h92v-92h-92zM313 1054v92h92v-92h-92z" />
<glyph unicode="&#x1012e;" d="M112 277v92h54q28 119 147 147v54h92v-54q119 -28 147 -147h54v-92h-54q-28 -119 -147 -147v-54h-92v54q-119 28 -147 147h-54zM112 795v92h54q28 119 147 147v54h92v-54q119 -28 147 -147h54v-92h-54q-28 -119 -147 -147v-54h-92v54q-119 28 -147 147h-54zM263 323 q0 -40 28 -68t68 -28t68 28t28 68t-28 68t-68 28t-68 -28t-28 -68zM263 841q0 -40 28 -68t68 -28t68 28t28 68t-28 68t-68 28t-68 -28t-28 -68zM313 277v92h92v-92h-92zM313 795v92h92v-92h-92zM630 277v92h54q28 119 147 147v54h92v-54q119 -28 147 -147h54v-92h-54 q-28 -119 -147 -147v-54h-92v54q-119 28 -147 147h-54zM630 795v92h54q28 119 147 147v54h92v-54q119 -28 147 -147h54v-92h-54q-28 -119 -147 -147v-54h-92v54q-119 28 -147 147h-54zM781 323q0 -40 28 -68t68 -28t68 28t28 68t-28 68t-68 28t-68 -28t-28 -68zM781 841 q0 -40 28 -68t68 -28t68 28t28 68t-28 68t-68 28t-68 -28t-28 -68zM831 277v92h92v-92h-92zM831 795v92h92v-92h-92z" />
<glyph unicode="&#x1012f;" d="M112 18v92h54q28 119 147 147v54h92v-54q119 -28 147 -147h54v-92h-54q-28 -119 -147 -147v-54h-92v54q-119 28 -147 147h-54zM112 536v92h54q28 119 147 147v54h92v-54q119 -28 147 -147h54v-92h-54q-28 -119 -147 -147v-54h-92v54q-119 28 -147 147h-54zM112 1054v92 h54q28 119 147 147v54h92v-54q119 -28 147 -147h54v-92h-54q-28 -119 -147 -147v-54h-92v54q-119 28 -147 147h-54zM263 64q0 -40 28 -68t68 -28t68 28t28 68t-28 68t-68 28t-68 -28t-28 -68zM263 582q0 -40 28 -68t68 -28t68 28t28 68t-28 68t-68 28t-68 -28t-28 -68z M263 1100q0 -40 28 -68t68 -28t68 28t28 68t-28 68t-68 28t-68 -28t-28 -68zM313 18v92h92v-92h-92zM313 536v92h92v-92h-92zM313 1054v92h92v-92h-92zM630 277v92h54q28 119 147 147v54h92v-54q119 -28 147 -147h54v-92h-54q-28 -119 -147 -147v-54h-92v54 q-119 28 -147 147h-54zM630 795v92h54q28 119 147 147v54h92v-54q119 -28 147 -147h54v-92h-54q-28 -119 -147 -147v-54h-92v54q-119 28 -147 147h-54zM781 323q0 -40 28 -68t68 -28t68 28t28 68t-28 68t-68 28t-68 -28t-28 -68zM781 841q0 -40 28 -68t68 -28t68 28t28 68 t-28 68t-68 28t-68 -28t-28 -68zM831 277v92h92v-92h-92zM831 795v92h92v-92h-92z" />
<glyph unicode="&#x10130;" d="M112 18v92h54q28 119 147 147v54h92v-54q119 -28 147 -147h54v-92h-54q-28 -119 -147 -147v-54h-92v54q-119 28 -147 147h-54zM112 536v92h54q28 119 147 147v54h92v-54q119 -28 147 -147h54v-92h-54q-28 -119 -147 -147v-54h-92v54q-119 28 -147 147h-54zM112 1054v92 h54q28 119 147 147v54h92v-54q119 -28 147 -147h54v-92h-54q-28 -119 -147 -147v-54h-92v54q-119 28 -147 147h-54zM263 64q0 -40 28 -68t68 -28t68 28t28 68t-28 68t-68 28t-68 -28t-28 -68zM263 582q0 -40 28 -68t68 -28t68 28t28 68t-28 68t-68 28t-68 -28t-28 -68z M263 1100q0 -40 28 -68t68 -28t68 28t28 68t-28 68t-68 28t-68 -28t-28 -68zM313 18v92h92v-92h-92zM313 536v92h92v-92h-92zM313 1054v92h92v-92h-92zM630 18v92h54q28 119 147 147v54h92v-54q119 -28 147 -147h54v-92h-54q-28 -119 -147 -147v-54h-92v54q-119 28 -147 147 h-54zM630 536v92h54q28 119 147 147v54h92v-54q119 -28 147 -147h54v-92h-54q-28 -119 -147 -147v-54h-92v54q-119 28 -147 147h-54zM630 1054v92h54q28 119 147 147v54h92v-54q119 -28 147 -147h54v-92h-54q-28 -119 -147 -147v-54h-92v54q-119 28 -147 147h-54zM781 64 q0 -40 28 -68t68 -28t68 28t28 68t-28 68t-68 28t-68 -28t-28 -68zM781 582q0 -40 28 -68t68 -28t68 28t28 68t-28 68t-68 28t-68 -28t-28 -68zM781 1100q0 -40 28 -68t68 -28t68 28t28 68t-28 68t-68 28t-68 -28t-28 -68zM831 18v92h92v-92h-92zM831 536v92h92v-92h-92z M831 1054v92h92v-92h-92z" />
<glyph unicode="&#x10131;" d="M112 -149h54q28 119 147 147v54h92v-54q119 -28 147 -147h54v-92h-54q-28 -119 -147 -147v-54h-92v54q-119 28 -147 147h-54v92zM112 277v92h54q28 119 147 147v54h92v-54q119 -28 147 -147h54v-92h-54q-28 -119 -147 -147v-54h-92v54q-119 28 -147 147h-54zM112 795v92 h54q28 119 147 147v54h92v-54q119 -28 147 -147h54v-92h-54q-28 -119 -147 -147v-54h-92v54q-119 28 -147 147h-54zM112 1313v92h54q28 119 147 147v54h92v-54q119 -28 147 -147h54v-92h-54q-28 -119 -147 -147v-54h-92v54q-119 28 -147 147h-54zM263 -195q0 -40 28 -68 t68 -28t68 28t28 68t-28 68t-68 28t-68 -28t-28 -68zM263 323q0 -40 28 -68t68 -28t68 28t28 68t-28 68t-68 28t-68 -28t-28 -68zM263 841q0 -40 28 -68t68 -28t68 28t28 68t-28 68t-68 28t-68 -28t-28 -68zM263 1359q0 -40 28 -68t68 -28t68 28t28 68t-28 68t-68 28 t-68 -28t-28 -68zM313 -149h92v-92h-92v92zM313 277v92h92v-92h-92zM313 795v92h92v-92h-92zM313 1313v92h92v-92h-92zM630 18v92h54q28 119 147 147v54h92v-54q119 -28 147 -147h54v-92h-54q-28 -119 -147 -147v-54h-92v54q-119 28 -147 147h-54zM630 536v92h54 q28 119 147 147v54h92v-54q119 -28 147 -147h54v-92h-54q-28 -119 -147 -147v-54h-92v54q-119 28 -147 147h-54zM630 1054v92h54q28 119 147 147v54h92v-54q119 -28 147 -147h54v-92h-54q-28 -119 -147 -147v-54h-92v54q-119 28 -147 147h-54zM781 64q0 -40 28 -68t68 -28 t68 28t28 68t-28 68t-68 28t-68 -28t-28 -68zM781 582q0 -40 28 -68t68 -28t68 28t28 68t-28 68t-68 28t-68 -28t-28 -68zM781 1100q0 -40 28 -68t68 -28t68 28t28 68t-28 68t-68 28t-68 -28t-28 -68zM831 18v92h92v-92h-92zM831 536v92h92v-92h-92zM831 1054v92h92v-92h-92 z" />
<glyph unicode="&#x10132;" d="M112 -149h54q28 119 147 147v54h92v-54q119 -28 147 -147h54v-92h-54q-28 -119 -147 -147v-54h-92v54q-119 28 -147 147h-54v92zM112 277v92h54q28 119 147 147v54h92v-54q119 -28 147 -147h54v-92h-54q-28 -119 -147 -147v-54h-92v54q-119 28 -147 147h-54zM112 795v92 h54q28 119 147 147v54h92v-54q119 -28 147 -147h54v-92h-54q-28 -119 -147 -147v-54h-92v54q-119 28 -147 147h-54zM112 1313v92h54q28 119 147 147v54h92v-54q119 -28 147 -147h54v-92h-54q-28 -119 -147 -147v-54h-92v54q-119 28 -147 147h-54zM263 -195q0 -40 28 -68 t68 -28t68 28t28 68t-28 68t-68 28t-68 -28t-28 -68zM263 323q0 -40 28 -68t68 -28t68 28t28 68t-28 68t-68 28t-68 -28t-28 -68zM263 841q0 -40 28 -68t68 -28t68 28t28 68t-28 68t-68 28t-68 -28t-28 -68zM263 1359q0 -40 28 -68t68 -28t68 28t28 68t-28 68t-68 28 t-68 -28t-28 -68zM313 -149h92v-92h-92v92zM313 277v92h92v-92h-92zM313 795v92h92v-92h-92zM313 1313v92h92v-92h-92zM630 -149h54q28 119 147 147v54h92v-54q119 -28 147 -147h54v-92h-54q-28 -119 -147 -147v-54h-92v54q-119 28 -147 147h-54v92zM630 277v92h54 q28 119 147 147v54h92v-54q119 -28 147 -147h54v-92h-54q-28 -119 -147 -147v-54h-92v54q-119 28 -147 147h-54zM630 795v92h54q28 119 147 147v54h92v-54q119 -28 147 -147h54v-92h-54q-28 -119 -147 -147v-54h-92v54q-119 28 -147 147h-54zM630 1313v92h54q28 119 147 147 v54h92v-54q119 -28 147 -147h54v-92h-54q-28 -119 -147 -147v-54h-92v54q-119 28 -147 147h-54zM781 -195q0 -40 28 -68t68 -28t68 28t28 68t-28 68t-68 28t-68 -28t-28 -68zM781 323q0 -40 28 -68t68 -28t68 28t28 68t-28 68t-68 28t-68 -28t-28 -68zM781 841q0 -40 28 -68 t68 -28t68 28t28 68t-28 68t-68 28t-68 -28t-28 -68zM781 1359q0 -40 28 -68t68 -28t68 28t28 68t-28 68t-68 28t-68 -28t-28 -68zM831 -149h92v-92h-92v92zM831 277v92h92v-92h-92zM831 795v92h92v-92h-92zM831 1313v92h92v-92h-92z" />
<glyph unicode="&#x10133;" horiz-adv-x="1754" d="M112 18v92h54q28 119 147 147v54h92v-54q119 -28 147 -147h54v-92h-54q-28 -119 -147 -147v-54h-92v54q-119 28 -147 147h-54zM112 536v92h54q28 119 147 147v54h92v-54q119 -28 147 -147h54v-92h-54q-28 -119 -147 -147v-54h-92v54q-119 28 -147 147h-54zM112 1054v92 h54q28 119 147 147v54h92v-54q119 -28 147 -147h54v-92h-54q-28 -119 -147 -147v-54h-92v54q-119 28 -147 147h-54zM263 64q0 -40 28 -68t68 -28t68 28t28 68t-28 68t-68 28t-68 -28t-28 -68zM263 582q0 -40 28 -68t68 -28t68 28t28 68t-28 68t-68 28t-68 -28t-28 -68z M263 1100q0 -40 28 -68t68 -28t68 28t28 68t-28 68t-68 28t-68 -28t-28 -68zM313 18v92h92v-92h-92zM313 536v92h92v-92h-92zM313 1054v92h92v-92h-92zM630 18v92h54q28 119 147 147v54h92v-54q119 -28 147 -147h54v-92h-54q-28 -119 -147 -147v-54h-92v54q-119 28 -147 147 h-54zM630 536v92h54q28 119 147 147v54h92v-54q119 -28 147 -147h54v-92h-54q-28 -119 -147 -147v-54h-92v54q-119 28 -147 147h-54zM630 1054v92h54q28 119 147 147v54h92v-54q119 -28 147 -147h54v-92h-54q-28 -119 -147 -147v-54h-92v54q-119 28 -147 147h-54zM781 64 q0 -40 28 -68t68 -28t68 28t28 68t-28 68t-68 28t-68 -28t-28 -68zM781 582q0 -40 28 -68t68 -28t68 28t28 68t-28 68t-68 28t-68 -28t-28 -68zM781 1100q0 -40 28 -68t68 -28t68 28t28 68t-28 68t-68 28t-68 -28t-28 -68zM831 18v92h92v-92h-92zM831 536v92h92v-92h-92z M831 1054v92h92v-92h-92zM1148 18v92h54q28 119 147 147v54h92v-54q119 -28 147 -147h54v-92h-54q-28 -119 -147 -147v-54h-92v54q-119 28 -147 147h-54zM1148 536v92h54q28 119 147 147v54h92v-54q119 -28 147 -147h54v-92h-54q-28 -119 -147 -147v-54h-92v54 q-119 28 -147 147h-54zM1148 1054v92h54q28 119 147 147v54h92v-54q119 -28 147 -147h54v-92h-54q-28 -119 -147 -147v-54h-92v54q-119 28 -147 147h-54zM1299 64q0 -40 28 -68t68 -28t68 28t28 68t-28 68t-68 28t-68 -28t-28 -68zM1299 582q0 -40 28 -68t68 -28t68 28 t28 68t-28 68t-68 28t-68 -28t-28 -68zM1299 1100q0 -40 28 -68t68 -28t68 28t28 68t-28 68t-68 28t-68 -28t-28 -68zM1349 18v92h92v-92h-92zM1349 536v92h92v-92h-92zM1349 1054v92h92v-92h-92z" />
<glyph unicode="&#x10137;" horiz-adv-x="1796" d="M112 1198v112h506l-134 183l90 66l184 -249h280l184 249l90 -66l-134 -183h506v-112h-225q141 -394 194 -816l-43 -61q-113 -28 -231 -28t-232 28l-43 61q53 418 195 816h-204l-141 -191v-1380h-112v1380l-141 191h-203q142 -398 195 -816l-43 -61q-113 -28 -231 -28 q-119 0 -233 28l-43 61q53 418 195 816h-226zM261 419q77 -14 158 -14q79 0 156 14q-47 339 -157 667q-110 -328 -157 -667zM840 1198l58 -79l58 79h-116zM1222 419q77 -14 157 -14q79 0 156 14q-48 342 -156 667q-110 -328 -157 -667z" />
<glyph unicode="&#x10138;" horiz-adv-x="750" d="M112 1335q62 103 110 144q69 58 169 58q97 0 170 -61q77 -65 77 -160q0 -84 -103 -210q-95 -105 -191 -211q-103 -118 -103 -182q0 -76 82 -76t117 31q17 14 69 101l96 -58q-66 -110 -110 -142q-58 -44 -172 -44q-81 0 -137.5 53.5t-56.5 134.5q0 92 103 222 q95 106 191 212q103 114 103 169q0 48 -45 80q-40 29 -90 29q-67 0 -112 -46q-25 -24 -71 -102zM142 314q56 94 98 130q62 53 151 53q87 0 151 -55q68 -58 68 -143q0 -83 -88 -195q-25 -31 -164 -177q-88 -92 -88 -130q0 -58 63 -58q71 0 100 27q13 11 58 87l96 -58 q-58 -99 -99 -129q-53 -39 -155 -39q-73 0 -124 48.5t-51 121.5q0 86 170 262t170 240q0 38 -36 63q-31 23 -71 23q-55 0 -94 -41q-18 -19 -59 -88z" />
<glyph unicode="&#x10139;" horiz-adv-x="1437" d="M112 274v112h201l21 392h-222v112h228l35 650l112 -6l-35 -644h587l34 647l112 -6l-34 -641h174v-112h-180l-21 -392h201v-112h-207l-35 -653l-112 6l35 647h-587l-35 -650l-112 6l35 644h-195zM425 386h587l21 392h-587z" />
<glyph unicode="&#x1013a;" horiz-adv-x="1174" d="M112 1220q102 158 194 228q118 89 282 89q176 0 305 -84q149 -97 149 -264q0 -139 -109 -301q-77 -114 -248 -288q156 -68 227 -121q102 -78 102 -168q0 -183 -295 -219l-14 111q197 22 197 108q0 75 -303 203q-176 -177 -246 -274q-108 -148 -108 -265t119 -182 q97 -54 224 -54q132 0 227 78q66 53 154 189l93 -62q-105 -160 -193 -228q-118 -89 -281 -89q-177 0 -306 84q-149 97 -149 264q0 138 108 300q77 114 247 287q-261 121 -261 271q0 207 302 249l16 -111q-19 -2 -56 -7q-54 -9 -98 -42q-52 -39 -52 -89q0 -83 235 -185 q177 179 247 274q109 149 109 267q0 117 -118 182q-97 54 -224 54q-132 0 -228 -77q-66 -54 -154 -190zM523 1201q0 44 31 76t75 32t75.5 -32t31.5 -76t-31.5 -75t-75.5 -31t-75 31t-31 75z" />
<glyph unicode="&#x1013b;" horiz-adv-x="1188" d="M112 1062q0 246 254 498l79 -79q-221 -219 -221 -419q0 -228 177 -228q108 0 206 71l89 -45v-328h380v-112h-380v-793h-112v793h-378v112h378v231q-90 -41 -183 -41q-142 0 -220 102q-69 91 -69 238z" />
<glyph unicode="&#x1013c;" horiz-adv-x="1472" d="M112 1425v112h1248v-112h-568v-1798h-112v1798h-568z" />
<glyph unicode="&#x1013d;" horiz-adv-x="1290" d="M112 1258l53 99q157 -85 248 -208q85 -115 134 -295l-108 -30q-78 299 -327 434zM216 1448l39 105q173 -65 385 -65q209 0 390 64l37 -105q-197 -71 -427 -71q-232 0 -424 72zM486 1185l45 103q226 -99 354 -363q110 62 257 111l36 -106q-144 -48 -248 -109 q124 -334 124 -952v-121q-1 -81 -1 -121h-112q0 45 1 135.5t1 135.5q0 546 -109 858q-87 -67 -167 -165l-87 71q97 120 210 202q-112 237 -304 321z" />
<glyph unicode="&#x1013e;" horiz-adv-x="1065" d="M112 713q0 230 163 394t393 164q88 0 173 -28v294h112v-1910h-112v1496q-85 36 -173 36q-184 0 -314 -131t-130 -315q0 -198 136 -320q127 -113 329 -129l-9 -111q-18 1 -55 4q-219 20 -366 178.5t-147 377.5z" />
<glyph unicode="&#x1013f;" horiz-adv-x="2535" d="M112 433q0 116 98 193q90 71 210 71q103 0 188 -55q89 -59 112 -153h1648l55 -69q-84 -362 -298 -568q-234 -225 -591 -225q-324 0 -547 186q-206 171 -306 479q-90 -123 -261 -123q-120 0 -210 71q-98 77 -98 193zM224 433q0 -69 66 -113q58 -39 130 -39t130 39 q65 44 65 113t-65 113q-58 39 -130 39t-130 -39q-66 -44 -66 -113zM772 377q84 -298 267 -461q198 -177 495 -177t495 177q183 164 267 461h-1524z" />
</font>
</defs>
</svg>
